<?xml version="1.0" encoding="utf-8" standalone="no"?>
<!DOCTYPE svg PUBLIC "-//W3C//DTD SVG 1.1//EN"
  "http://www.w3.org/Graphics/SVG/1.1/DTD/svg11.dtd">
<!-- Created with matplotlib (https://matplotlib.org/) -->
<svg height="338.4pt" version="1.1" viewBox="0 0 356.41125 338.4" width="356.41125pt" xmlns="http://www.w3.org/2000/svg" xmlns:xlink="http://www.w3.org/1999/xlink">
 <defs>
  <style type="text/css">
*{stroke-linecap:butt;stroke-linejoin:round;}
  </style>
 </defs>
 <g id="figure_1">
  <g id="patch_1">
   <path d="M 0 338.4 
L 356.41125 338.4 
L 356.41125 0 
L 0 0 
z
" style="fill:#ffffff;"/>
  </g>
  <g id="axes_1">
   <g id="patch_2">
    <path d="M 156.794444 331.2 
L 199.616806 331.2 
L 199.616806 22.318125 
L 156.794444 22.318125 
z
" style="fill:#ffffff;"/>
   </g>
   <g id="patch_3">
    <path clip-path="url(#pc41d909b01)" d="M 156.794444 216.598993 
L 172.307535 216.598993 
L 172.307535 221.517778 
L 156.794444 221.517778 
z
" style="fill:#4ec36b;stroke:#000000;stroke-linejoin:miter;"/>
   </g>
   <g id="patch_4">
    <path clip-path="url(#pc41d909b01)" d="M 176.603125 89.088958 
L 196.300521 89.088958 
L 196.300521 109.25375 
L 176.603125 109.25375 
z
" style="fill:#1e9b8a;stroke:#000000;stroke-linejoin:miter;"/>
   </g>
   <g id="patch_5">
    <path clip-path="url(#pc41d909b01)" d="M 182.256389 262.314757 
L 193.674201 262.314757 
L 193.674201 272.99809 
L 182.256389 272.99809 
z
" style="fill:#1fa088;stroke:#000000;stroke-linejoin:miter;"/>
   </g>
   <g id="patch_6">
    <path clip-path="url(#pc41d909b01)" d="M 156.794444 126.836736 
L 175.490278 126.836736 
L 175.490278 143.062049 
L 156.794444 143.062049 
z
" style="fill:#20a486;stroke:#000000;stroke-linejoin:miter;"/>
   </g>
   <g id="patch_7">
    <path clip-path="url(#pc41d909b01)" d="M 156.794444 279.541632 
L 166.743299 279.541632 
L 166.743299 287.086736 
L 156.794444 287.086736 
z
" style="fill:#25ab82;stroke:#000000;stroke-linejoin:miter;"/>
   </g>
   <g id="patch_8">
    <path clip-path="url(#pc41d909b01)" d="M 177.493403 310.923924 
L 181.254826 310.923924 
L 181.254826 331.2 
L 177.493403 331.2 
z
" style="fill:#2f6b8e;stroke:#000000;stroke-linejoin:miter;"/>
   </g>
   <g id="patch_9">
    <path clip-path="url(#pc41d909b01)" d="M 178.673021 59.843333 
L 195.655069 59.843333 
L 195.655069 60.956181 
L 178.673021 60.956181 
z
" style="fill:#70cf57;stroke:#000000;stroke-linejoin:miter;"/>
   </g>
   <g id="patch_10">
    <path clip-path="url(#pc41d909b01)" d="M 183.725347 308.809514 
L 189.133785 308.809514 
L 189.133785 329.931354 
L 183.725347 329.931354 
z
" style="fill:#2d708e;stroke:#000000;stroke-linejoin:miter;"/>
   </g>
   <g id="patch_11">
    <path clip-path="url(#pc41d909b01)" d="M 195.922153 59.06434 
L 197.302083 59.06434 
L 197.302083 61.067465 
L 195.922153 61.067465 
z
" style="fill:#23898e;stroke:#000000;stroke-linejoin:miter;"/>
   </g>
   <g id="patch_12">
    <path clip-path="url(#pc41d909b01)" d="M 172.307535 219.403368 
L 187.776111 219.403368 
L 187.776111 241.615799 
L 172.307535 241.615799 
z
" style="fill:#238a8d;stroke:#000000;stroke-linejoin:miter;"/>
   </g>
   <g id="patch_13">
    <path clip-path="url(#pc41d909b01)" d="M 166.409444 306.316736 
L 173.420382 306.316736 
L 173.420382 320.227326 
L 166.409444 320.227326 
z
" style="fill:#277f8e;stroke:#000000;stroke-linejoin:miter;"/>
   </g>
   <g id="patch_14">
    <path clip-path="url(#pc41d909b01)" d="M 173.709722 191.025764 
L 190.135347 191.025764 
L 190.135347 207.317847 
L 173.709722 207.317847 
z
" style="fill:#1e9d89;stroke:#000000;stroke-linejoin:miter;"/>
   </g>
   <g id="patch_15">
    <path clip-path="url(#pc41d909b01)" d="M 190.535972 183.169062 
L 199.616806 183.169062 
L 199.616806 188.889097 
L 190.535972 188.889097 
z
" style="fill:#2db27d;stroke:#000000;stroke-linejoin:miter;"/>
   </g>
   <g id="patch_16">
    <path clip-path="url(#pc41d909b01)" d="M 196.411806 58.775 
L 199.305208 58.775 
L 199.305208 59.06434 
L 196.411806 59.06434 
z
" style="fill:#6ccd5a;stroke:#000000;stroke-linejoin:miter;"/>
   </g>
   <g id="patch_17">
    <path clip-path="url(#pc41d909b01)" d="M 176.447326 287.108993 
L 185.995556 287.108993 
L 185.995556 295.188264 
L 176.447326 295.188264 
z
" style="fill:#21a585;stroke:#000000;stroke-linejoin:miter;"/>
   </g>
   <g id="patch_18">
    <path clip-path="url(#pc41d909b01)" d="M 192.694896 278.272986 
L 195.477014 278.272986 
L 195.477014 285.81809 
L 192.694896 285.81809 
z
" style="fill:#2a768e;stroke:#000000;stroke-linejoin:miter;"/>
   </g>
   <g id="patch_19">
    <path clip-path="url(#pc41d909b01)" d="M 168.768681 277.694306 
L 178.940104 277.694306 
L 178.940104 285.640035 
L 168.768681 285.640035 
z
" style="fill:#23a983;stroke:#000000;stroke-linejoin:miter;"/>
   </g>
   <g id="patch_20">
    <path clip-path="url(#pc41d909b01)" d="M 156.794444 39.856597 
L 178.673021 39.856597 
L 178.673021 52.565313 
L 156.794444 52.565313 
z
" style="fill:#31b57b;stroke:#000000;stroke-linejoin:miter;"/>
   </g>
   <g id="patch_21">
    <path clip-path="url(#pc41d909b01)" d="M 178.272396 61.201007 
L 199.527778 61.201007 
L 199.527778 75.578993 
L 178.272396 75.578993 
z
" style="fill:#29af7f;stroke:#000000;stroke-linejoin:miter;"/>
   </g>
   <g id="patch_22">
    <path clip-path="url(#pc41d909b01)" d="M 173.420382 310.923924 
L 177.493403 310.923924 
L 177.493403 330.510035 
L 173.420382 330.510035 
z
" style="fill:#2e6d8e;stroke:#000000;stroke-linejoin:miter;"/>
   </g>
   <g id="patch_23">
    <path clip-path="url(#pc41d909b01)" d="M 190.135347 203 
L 198.392674 203 
L 198.392674 206.939479 
L 190.135347 206.939479 
z
" style="fill:#3bbb75;stroke:#000000;stroke-linejoin:miter;"/>
   </g>
   <g id="patch_24">
    <path clip-path="url(#pc41d909b01)" d="M 156.794444 88.176424 
L 176.603125 88.176424 
L 176.603125 100.506771 
L 156.794444 100.506771 
z
" style="fill:#2db27d;stroke:#000000;stroke-linejoin:miter;"/>
   </g>
   <g id="patch_25">
    <path clip-path="url(#pc41d909b01)" d="M 189.200556 212.169861 
L 192.828437 212.169861 
L 192.828437 218.780174 
L 189.200556 218.780174 
z
" style="fill:#26818e;stroke:#000000;stroke-linejoin:miter;"/>
   </g>
   <g id="patch_26">
    <path clip-path="url(#pc41d909b01)" d="M 196.300521 89.088958 
L 199.572292 89.088958 
L 199.572292 100.662569 
L 196.300521 100.662569 
z
" style="fill:#2d718e;stroke:#000000;stroke-linejoin:miter;"/>
   </g>
   <g id="patch_27">
    <path clip-path="url(#pc41d909b01)" d="M 191.71559 176.937118 
L 198.570729 176.937118 
L 198.570729 183.124549 
L 191.71559 183.124549 
z
" style="fill:#1fa287;stroke:#000000;stroke-linejoin:miter;"/>
   </g>
   <g id="patch_28">
    <path clip-path="url(#pc41d909b01)" d="M 156.794444 70.237326 
L 177.960799 70.237326 
L 177.960799 87.041319 
L 156.794444 87.041319 
z
" style="fill:#22a884;stroke:#000000;stroke-linejoin:miter;"/>
   </g>
   <g id="patch_29">
    <path clip-path="url(#pc41d909b01)" d="M 173.197812 207.317847 
L 189.200556 207.317847 
L 189.200556 219.403368 
L 173.197812 219.403368 
z
" style="fill:#25ab82;stroke:#000000;stroke-linejoin:miter;"/>
   </g>
   <g id="patch_30">
    <path clip-path="url(#pc41d909b01)" d="M 193.874514 138.810972 
L 199.015868 138.810972 
L 199.015868 139.389653 
L 193.874514 139.389653 
z
" style="fill:#69cd5b;stroke:#000000;stroke-linejoin:miter;"/>
   </g>
   <g id="patch_31">
    <path clip-path="url(#pc41d909b01)" d="M 187.776111 238.010174 
L 199.461007 238.010174 
L 199.461007 248.114826 
L 187.776111 248.114826 
z
" style="fill:#20a486;stroke:#000000;stroke-linejoin:miter;"/>
   </g>
   <g id="patch_32">
    <path clip-path="url(#pc41d909b01)" d="M 176.447326 295.188264 
L 183.725347 295.188264 
L 183.725347 310.923924 
L 176.447326 310.923924 
z
" style="fill:#287c8e;stroke:#000000;stroke-linejoin:miter;"/>
   </g>
   <g id="patch_33">
    <path clip-path="url(#pc41d909b01)" d="M 191.71559 167.23309 
L 199.349722 167.23309 
L 199.349722 174.822708 
L 191.71559 174.822708 
z
" style="fill:#1e9d89;stroke:#000000;stroke-linejoin:miter;"/>
   </g>
   <g id="patch_34">
    <path clip-path="url(#pc41d909b01)" d="M 156.794444 287.086736 
L 166.409444 287.086736 
L 166.409444 307.296042 
L 156.794444 307.296042 
z
" style="fill:#287d8e;stroke:#000000;stroke-linejoin:miter;"/>
   </g>
   <g id="patch_35">
    <path clip-path="url(#pc41d909b01)" d="M 156.794444 197.413507 
L 173.197812 197.413507 
L 173.197812 210.522847 
L 156.794444 210.522847 
z
" style="fill:#22a884;stroke:#000000;stroke-linejoin:miter;"/>
   </g>
   <g id="patch_36">
    <path clip-path="url(#pc41d909b01)" d="M 195.054132 299.528368 
L 199.238437 299.528368 
L 199.238437 311.191007 
L 195.054132 311.191007 
z
" style="fill:#2b758e;stroke:#000000;stroke-linejoin:miter;"/>
   </g>
   <g id="patch_37">
    <path clip-path="url(#pc41d909b01)" d="M 192.783924 148.826597 
L 199.394236 148.826597 
L 199.394236 155.058542 
L 192.783924 155.058542 
z
" style="fill:#1fa088;stroke:#000000;stroke-linejoin:miter;"/>
   </g>
   <g id="patch_38">
    <path clip-path="url(#pc41d909b01)" d="M 156.794444 226.681389 
L 172.107222 226.681389 
L 172.107222 243.930521 
L 156.794444 243.930521 
z
" style="fill:#1f958b;stroke:#000000;stroke-linejoin:miter;"/>
   </g>
   <g id="patch_39">
    <path clip-path="url(#pc41d909b01)" d="M 156.794444 52.565313 
L 178.673021 52.565313 
L 178.673021 61.201007 
L 156.794444 61.201007 
z
" style="fill:#44bf70;stroke:#000000;stroke-linejoin:miter;"/>
   </g>
   <g id="patch_40">
    <path clip-path="url(#pc41d909b01)" d="M 156.794444 22.318125 
L 178.851076 22.318125 
L 178.851076 39.856597 
L 156.794444 39.856597 
z
" style="fill:#22a884;stroke:#000000;stroke-linejoin:miter;"/>
   </g>
   <g id="patch_41">
    <path clip-path="url(#pc41d909b01)" d="M 156.794444 100.506771 
L 176.068958 100.506771 
L 176.068958 104.95816 
L 156.794444 104.95816 
z
" style="fill:#5ac864;stroke:#000000;stroke-linejoin:miter;"/>
   </g>
   <g id="patch_42">
    <path clip-path="url(#pc41d909b01)" d="M 194.720278 109.25375 
L 199.127153 109.25375 
L 199.127153 130.776215 
L 194.720278 130.776215 
z
" style="fill:#2f6c8e;stroke:#000000;stroke-linejoin:miter;"/>
   </g>
   <g id="patch_43">
    <path clip-path="url(#pc41d909b01)" d="M 169.725729 256.572465 
L 182.256389 256.572465 
L 182.256389 277.694306 
L 169.725729 277.694306 
z
" style="fill:#25838e;stroke:#000000;stroke-linejoin:miter;"/>
   </g>
   <g id="patch_44">
    <path clip-path="url(#pc41d909b01)" d="M 156.794444 155.43691 
L 174.288403 155.43691 
L 174.288403 176.491979 
L 156.794444 176.491979 
z
" style="fill:#20928c;stroke:#000000;stroke-linejoin:miter;"/>
   </g>
   <g id="patch_45">
    <path clip-path="url(#pc41d909b01)" d="M 190.135347 191.025764 
L 199.282951 191.025764 
L 199.282951 203 
L 190.135347 203 
z
" style="fill:#218e8d;stroke:#000000;stroke-linejoin:miter;"/>
   </g>
   <g id="patch_46">
    <path clip-path="url(#pc41d909b01)" d="M 175.490278 132.49 
L 193.874514 132.49 
L 193.874514 140.547014 
L 175.490278 140.547014 
z
" style="fill:#3fbc73;stroke:#000000;stroke-linejoin:miter;"/>
   </g>
   <g id="patch_47">
    <path clip-path="url(#pc41d909b01)" d="M 178.851076 22.318125 
L 199.594549 22.318125 
L 199.594549 22.763264 
L 178.851076 22.763264 
z
" style="fill:#77d153;stroke:#000000;stroke-linejoin:miter;"/>
   </g>
   <g id="patch_48">
    <path clip-path="url(#pc41d909b01)" d="M 196.300521 100.662569 
L 199.216181 100.662569 
L 199.216181 108.4525 
L 196.300521 108.4525 
z
" style="fill:#2a768e;stroke:#000000;stroke-linejoin:miter;"/>
   </g>
   <g id="patch_49">
    <path clip-path="url(#pc41d909b01)" d="M 198.971354 28.216215 
L 199.616806 28.216215 
L 199.616806 31.933125 
L 198.971354 31.933125 
z
" style="fill:#306a8e;stroke:#000000;stroke-linejoin:miter;"/>
   </g>
   <g id="patch_50">
    <path clip-path="url(#pc41d909b01)" d="M 163.360243 307.296042 
L 166.053333 307.296042 
L 166.053333 325.034826 
L 163.360243 325.034826 
z
" style="fill:#30698e;stroke:#000000;stroke-linejoin:miter;"/>
   </g>
   <g id="patch_51">
    <path clip-path="url(#pc41d909b01)" d="M 178.673021 44.040903 
L 198.704271 44.040903 
L 198.704271 58.775 
L 178.673021 58.775 
z
" style="fill:#25ac82;stroke:#000000;stroke-linejoin:miter;"/>
   </g>
   <g id="patch_52">
    <path clip-path="url(#pc41d909b01)" d="M 185.995556 287.108993 
L 195.054132 287.108993 
L 195.054132 308.809514 
L 185.995556 308.809514 
z
" style="fill:#29798e;stroke:#000000;stroke-linejoin:miter;"/>
   </g>
   <g id="patch_53">
    <path clip-path="url(#pc41d909b01)" d="M 156.794444 151.809028 
L 174.466458 151.809028 
L 174.466458 155.43691 
L 156.794444 155.43691 
z
" style="fill:#5cc863;stroke:#000000;stroke-linejoin:miter;"/>
   </g>
   <g id="patch_54">
    <path clip-path="url(#pc41d909b01)" d="M 156.794444 181.65559 
L 173.709722 181.65559 
L 173.709722 197.413507 
L 156.794444 197.413507 
z
" style="fill:#1fa188;stroke:#000000;stroke-linejoin:miter;"/>
   </g>
   <g id="patch_55">
    <path clip-path="url(#pc41d909b01)" d="M 156.794444 176.491979 
L 173.821007 176.491979 
L 173.821007 181.65559 
L 156.794444 181.65559 
z
" style="fill:#50c46a;stroke:#000000;stroke-linejoin:miter;"/>
   </g>
   <g id="patch_56">
    <path clip-path="url(#pc41d909b01)" d="M 178.851076 22.763264 
L 199.082639 22.763264 
L 199.082639 28.216215 
L 178.851076 28.216215 
z
" style="fill:#54c568;stroke:#000000;stroke-linejoin:miter;"/>
   </g>
   <g id="patch_57">
    <path clip-path="url(#pc41d909b01)" d="M 192.783924 161.223715 
L 194.364167 161.223715 
L 194.364167 164.606771 
L 192.783924 164.606771 
z
" style="fill:#287c8e;stroke:#000000;stroke-linejoin:miter;"/>
   </g>
   <g id="patch_58">
    <path clip-path="url(#pc41d909b01)" d="M 191.71559 174.822708 
L 199.327465 174.822708 
L 199.327465 175.980069 
L 191.71559 175.980069 
z
" style="fill:#65cb5e;stroke:#000000;stroke-linejoin:miter;"/>
   </g>
   <g id="patch_59">
    <path clip-path="url(#pc41d909b01)" d="M 156.794444 261.157396 
L 168.768681 261.157396 
L 168.768681 279.541632 
L 156.794444 279.541632 
z
" style="fill:#24878e;stroke:#000000;stroke-linejoin:miter;"/>
   </g>
   <g id="patch_60">
    <path clip-path="url(#pc41d909b01)" d="M 172.107222 241.615799 
L 187.152917 241.615799 
L 187.152917 250.674375 
L 172.107222 250.674375 
z
" style="fill:#2fb47c;stroke:#000000;stroke-linejoin:miter;"/>
   </g>
   <g id="patch_61">
    <path clip-path="url(#pc41d909b01)" d="M 174.288403 167.23309 
L 191.71559 167.23309 
L 191.71559 183.169062 
L 174.288403 183.169062 
z
" style="fill:#1fa187;stroke:#000000;stroke-linejoin:miter;"/>
   </g>
   <g id="patch_62">
    <path clip-path="url(#pc41d909b01)" d="M 178.673021 58.775 
L 196.411806 58.775 
L 196.411806 58.930799 
L 178.673021 58.930799 
z
" style="fill:#7ad151;stroke:#000000;stroke-linejoin:miter;"/>
   </g>
   <g id="patch_63">
    <path clip-path="url(#pc41d909b01)" d="M 178.940104 277.694306 
L 181.788993 277.694306 
L 181.788993 286.04066 
L 178.940104 286.04066 
z
" style="fill:#2b748e;stroke:#000000;stroke-linejoin:miter;"/>
   </g>
   <g id="patch_64">
    <path clip-path="url(#pc41d909b01)" d="M 156.794444 243.930521 
L 171.68434 243.930521 
L 171.68434 245.733333 
L 156.794444 245.733333 
z
" style="fill:#69cd5b;stroke:#000000;stroke-linejoin:miter;"/>
   </g>
   <g id="patch_65">
    <path clip-path="url(#pc41d909b01)" d="M 189.133785 308.809514 
L 194.408681 308.809514 
L 194.408681 329.909097 
L 189.133785 329.909097 
z
" style="fill:#2e6f8e;stroke:#000000;stroke-linejoin:miter;"/>
   </g>
   <g id="patch_66">
    <path clip-path="url(#pc41d909b01)" d="M 156.794444 210.522847 
L 172.374306 210.522847 
L 172.374306 216.598993 
L 156.794444 216.598993 
z
" style="fill:#44bf70;stroke:#000000;stroke-linejoin:miter;"/>
   </g>
   <g id="patch_67">
    <path clip-path="url(#pc41d909b01)" d="M 177.960799 75.578993 
L 199.104896 75.578993 
L 199.104896 89.088958 
L 177.960799 89.088958 
z
" style="fill:#2cb17e;stroke:#000000;stroke-linejoin:miter;"/>
   </g>
   <g id="patch_68">
    <path clip-path="url(#pc41d909b01)" d="M 156.794444 256.483437 
L 169.725729 256.483437 
L 169.725729 261.157396 
L 156.794444 261.157396 
z
" style="fill:#48c16e;stroke:#000000;stroke-linejoin:miter;"/>
   </g>
   <g id="patch_69">
    <path clip-path="url(#pc41d909b01)" d="M 178.851076 28.216215 
L 198.971354 28.216215 
L 198.971354 44.040903 
L 178.851076 44.040903 
z
" style="fill:#23a983;stroke:#000000;stroke-linejoin:miter;"/>
   </g>
   <g id="patch_70">
    <path clip-path="url(#pc41d909b01)" d="M 187.776111 226.770417 
L 199.527778 226.770417 
L 199.527778 238.010174 
L 187.776111 238.010174 
z
" style="fill:#1f9f88;stroke:#000000;stroke-linejoin:miter;"/>
   </g>
   <g id="patch_71">
    <path clip-path="url(#pc41d909b01)" d="M 173.709722 183.169062 
L 190.535972 183.169062 
L 190.535972 191.025764 
L 173.709722 191.025764 
z
" style="fill:#3bbb75;stroke:#000000;stroke-linejoin:miter;"/>
   </g>
   <g id="patch_72">
    <path clip-path="url(#pc41d909b01)" d="M 185.461389 250.674375 
L 198.481701 250.674375 
L 198.481701 262.314757 
L 185.461389 262.314757 
z
" style="fill:#1fa287;stroke:#000000;stroke-linejoin:miter;"/>
   </g>
   <g id="patch_73">
    <path clip-path="url(#pc41d909b01)" d="M 194.364167 161.223715 
L 195.387986 161.223715 
L 195.387986 164.272917 
L 194.364167 164.272917 
z
" style="fill:#2b748e;stroke:#000000;stroke-linejoin:miter;"/>
   </g>
   <g id="patch_74">
    <path clip-path="url(#pc41d909b01)" d="M 156.794444 104.95816 
L 175.868646 104.95816 
L 175.868646 126.836736 
L 156.794444 126.836736 
z
" style="fill:#1f948c;stroke:#000000;stroke-linejoin:miter;"/>
   </g>
   <g id="patch_75">
    <path clip-path="url(#pc41d909b01)" d="M 178.673021 58.930799 
L 195.922153 58.930799 
L 195.922153 59.843333 
L 178.673021 59.843333 
z
" style="fill:#73d056;stroke:#000000;stroke-linejoin:miter;"/>
   </g>
   <g id="patch_76">
    <path clip-path="url(#pc41d909b01)" d="M 175.868646 109.25375 
L 194.720278 109.25375 
L 194.720278 123.787535 
L 175.868646 123.787535 
z
" style="fill:#24aa83;stroke:#000000;stroke-linejoin:miter;"/>
   </g>
   <g id="patch_77">
    <path clip-path="url(#pc41d909b01)" d="M 182.256389 272.99809 
L 192.694896 272.99809 
L 192.694896 287.108993 
L 182.256389 287.108993 
z
" style="fill:#228d8d;stroke:#000000;stroke-linejoin:miter;"/>
   </g>
   <g id="patch_78">
    <path clip-path="url(#pc41d909b01)" d="M 156.794444 61.201007 
L 178.272396 61.201007 
L 178.272396 70.237326 
L 156.794444 70.237326 
z
" style="fill:#40bd72;stroke:#000000;stroke-linejoin:miter;"/>
   </g>
   <g id="patch_79">
    <path clip-path="url(#pc41d909b01)" d="M 156.794444 221.517778 
L 172.151736 221.517778 
L 172.151736 226.681389 
L 156.794444 226.681389 
z
" style="fill:#4cc26c;stroke:#000000;stroke-linejoin:miter;"/>
   </g>
   <g id="patch_80">
    <path clip-path="url(#pc41d909b01)" d="M 166.743299 285.640035 
L 176.447326 285.640035 
L 176.447326 306.316736 
L 166.743299 306.316736 
z
" style="fill:#287c8e;stroke:#000000;stroke-linejoin:miter;"/>
   </g>
   <g id="patch_81">
    <path clip-path="url(#pc41d909b01)" d="M 193.874514 132.49 
L 199.015868 132.49 
L 199.015868 138.810972 
L 193.874514 138.810972 
z
" style="fill:#21918c;stroke:#000000;stroke-linejoin:miter;"/>
   </g>
   <g id="patch_82">
    <path clip-path="url(#pc41d909b01)" d="M 156.794444 245.733333 
L 171.417257 245.733333 
L 171.417257 256.483437 
L 156.794444 256.483437 
z
" style="fill:#25ac82;stroke:#000000;stroke-linejoin:miter;"/>
   </g>
   <g id="patch_83">
    <path clip-path="url(#pc41d909b01)" d="M 198.971354 31.933125 
L 199.572292 31.933125 
L 199.572292 49.96125 
L 198.971354 49.96125 
z
" style="fill:#34618d;stroke:#000000;stroke-linejoin:miter;"/>
   </g>
   <g id="patch_84">
    <path clip-path="url(#pc41d909b01)" d="M 193.718715 140.547014 
L 199.616806 140.547014 
L 199.616806 148.737569 
L 193.718715 148.737569 
z
" style="fill:#228b8d;stroke:#000000;stroke-linejoin:miter;"/>
   </g>
   <g id="patch_85">
    <path clip-path="url(#pc41d909b01)" d="M 175.868646 123.787535 
L 194.675764 123.787535 
L 194.675764 132.49 
L 175.868646 132.49 
z
" style="fill:#3dbc74;stroke:#000000;stroke-linejoin:miter;"/>
   </g>
   <g id="patch_86">
    <path clip-path="url(#pc41d909b01)" d="M 193.674201 262.314757 
L 199.461007 262.314757 
L 199.461007 278.272986 
L 193.674201 278.272986 
z
" style="fill:#2a768e;stroke:#000000;stroke-linejoin:miter;"/>
   </g>
   <g id="patch_87">
    <path clip-path="url(#pc41d909b01)" d="M 187.152917 248.114826 
L 197.858507 248.114826 
L 197.858507 249.98441 
L 187.152917 249.98441 
z
" style="fill:#60ca60;stroke:#000000;stroke-linejoin:miter;"/>
   </g>
   <g id="patch_88">
    <path clip-path="url(#pc41d909b01)" d="M 192.783924 155.058542 
L 198.771042 155.058542 
L 198.771042 161.223715 
L 192.783924 161.223715 
z
" style="fill:#1f9a8a;stroke:#000000;stroke-linejoin:miter;"/>
   </g>
   <g id="patch_89">
    <path clip-path="url(#pc41d909b01)" d="M 156.794444 143.062049 
L 174.844826 143.062049 
L 174.844826 151.809028 
L 156.794444 151.809028 
z
" style="fill:#3aba76;stroke:#000000;stroke-linejoin:miter;"/>
   </g>
   <g id="patch_90">
    <path clip-path="url(#pc41d909b01)" d="M 191.71559 175.980069 
L 199.127153 175.980069 
L 199.127153 176.937118 
L 191.71559 176.937118 
z
" style="fill:#67cc5c;stroke:#000000;stroke-linejoin:miter;"/>
   </g>
   <g id="patch_91">
    <path clip-path="url(#pc41d909b01)" d="M 175.490278 140.547014 
L 193.718715 140.547014 
L 193.718715 148.826597 
L 175.490278 148.826597 
z
" style="fill:#3dbc74;stroke:#000000;stroke-linejoin:miter;"/>
   </g>
   <g id="patch_92">
    <path clip-path="url(#pc41d909b01)" d="M 195.054132 287.108993 
L 199.349722 287.108993 
L 199.349722 299.528368 
L 195.054132 299.528368 
z
" style="fill:#2b748e;stroke:#000000;stroke-linejoin:miter;"/>
   </g>
   <g id="patch_93">
    <path clip-path="url(#pc41d909b01)" d="M 156.794444 87.041319 
L 177.871771 87.041319 
L 177.871771 88.176424 
L 156.794444 88.176424 
z
" style="fill:#73d056;stroke:#000000;stroke-linejoin:miter;"/>
   </g>
   <g id="patch_94">
    <path clip-path="url(#pc41d909b01)" d="M 181.254826 310.923924 
L 183.591806 310.923924 
L 183.591806 322.720104 
L 181.254826 322.720104 
z
" style="fill:#2f6c8e;stroke:#000000;stroke-linejoin:miter;"/>
   </g>
   <g id="patch_95">
    <path clip-path="url(#pc41d909b01)" d="M 189.200556 207.317847 
L 199.505521 207.317847 
L 199.505521 212.169861 
L 189.200556 212.169861 
z
" style="fill:#3bbb75;stroke:#000000;stroke-linejoin:miter;"/>
   </g>
   <g id="patch_96">
    <path clip-path="url(#pc41d909b01)" d="M 171.417257 250.674375 
L 185.461389 250.674375 
L 185.461389 256.572465 
L 171.417257 256.572465 
z
" style="fill:#40bd72;stroke:#000000;stroke-linejoin:miter;"/>
   </g>
   <g id="patch_97">
    <path clip-path="url(#pc41d909b01)" d="M 194.408681 311.191007 
L 195.966667 311.191007 
L 195.966667 328.28434 
L 194.408681 328.28434 
z
" style="fill:#32658e;stroke:#000000;stroke-linejoin:miter;"/>
   </g>
   <g id="patch_98">
    <path clip-path="url(#pc41d909b01)" d="M 199.127153 109.25375 
L 199.305208 109.25375 
L 199.305208 124.522014 
L 199.127153 124.522014 
z
" style="fill:#34608d;stroke:#000000;stroke-linejoin:miter;"/>
   </g>
   <g id="patch_99">
    <path clip-path="url(#pc41d909b01)" d="M 156.794444 307.296042 
L 163.360243 307.296042 
L 163.360243 324.700972 
L 156.794444 324.700972 
z
" style="fill:#2a768e;stroke:#000000;stroke-linejoin:miter;"/>
   </g>
   <g id="patch_100">
    <path clip-path="url(#pc41d909b01)" d="M 174.844826 148.826597 
L 192.783924 148.826597 
L 192.783924 167.23309 
L 174.844826 167.23309 
z
" style="fill:#1e9b8a;stroke:#000000;stroke-linejoin:miter;"/>
   </g>
   <g id="patch_101">
    <path clip-path="url(#pc41d909b01)" d="M 187.776111 219.403368 
L 199.572292 219.403368 
L 199.572292 226.770417 
L 187.776111 226.770417 
z
" style="fill:#2db27d;stroke:#000000;stroke-linejoin:miter;"/>
   </g>
   <g id="patch_102">
    <path clip-path="url(#pc41d909b01)" d="M 192.828437 212.169861 
L 196.411806 212.169861 
L 196.411806 218.446319 
L 192.828437 218.446319 
z
" style="fill:#26828e;stroke:#000000;stroke-linejoin:miter;"/>
   </g>
   <g id="patch_103">
    <path d="M 156.794444 331.2 
L 156.794444 22.318125 
" style="fill:none;stroke:#000000;stroke-linecap:square;stroke-linejoin:miter;stroke-width:0.8;"/>
   </g>
   <g id="patch_104">
    <path d="M 199.616806 331.2 
L 199.616806 22.318125 
" style="fill:none;stroke:#000000;stroke-linecap:square;stroke-linejoin:miter;stroke-width:0.8;"/>
   </g>
   <g id="patch_105">
    <path d="M 156.794444 331.2 
L 199.616806 331.2 
" style="fill:none;stroke:#000000;stroke-linecap:square;stroke-linejoin:miter;stroke-width:0.8;"/>
   </g>
   <g id="patch_106">
    <path d="M 156.794444 22.318125 
L 199.616806 22.318125 
" style="fill:none;stroke:#000000;stroke-linecap:square;stroke-linejoin:miter;stroke-width:0.8;"/>
   </g>
   <g id="text_1">
    <!-- Packing density 94.84% (1924 x 13878), 100 rectangles. -->
    <defs>
     <path d="M 19.671875 64.796875 
L 19.671875 37.40625 
L 32.078125 37.40625 
Q 38.96875 37.40625 42.71875 40.96875 
Q 46.484375 44.53125 46.484375 51.125 
Q 46.484375 57.671875 42.71875 61.234375 
Q 38.96875 64.796875 32.078125 64.796875 
z
M 9.8125 72.90625 
L 32.078125 72.90625 
Q 44.34375 72.90625 50.609375 67.359375 
Q 56.890625 61.8125 56.890625 51.125 
Q 56.890625 40.328125 50.609375 34.8125 
Q 44.34375 29.296875 32.078125 29.296875 
L 19.671875 29.296875 
L 19.671875 0 
L 9.8125 0 
z
" id="DejaVuSans-80"/>
     <path d="M 34.28125 27.484375 
Q 23.390625 27.484375 19.1875 25 
Q 14.984375 22.515625 14.984375 16.5 
Q 14.984375 11.71875 18.140625 8.90625 
Q 21.296875 6.109375 26.703125 6.109375 
Q 34.1875 6.109375 38.703125 11.40625 
Q 43.21875 16.703125 43.21875 25.484375 
L 43.21875 27.484375 
z
M 52.203125 31.203125 
L 52.203125 0 
L 43.21875 0 
L 43.21875 8.296875 
Q 40.140625 3.328125 35.546875 0.953125 
Q 30.953125 -1.421875 24.3125 -1.421875 
Q 15.921875 -1.421875 10.953125 3.296875 
Q 6 8.015625 6 15.921875 
Q 6 25.140625 12.171875 29.828125 
Q 18.359375 34.515625 30.609375 34.515625 
L 43.21875 34.515625 
L 43.21875 35.40625 
Q 43.21875 41.609375 39.140625 45 
Q 35.0625 48.390625 27.6875 48.390625 
Q 23 48.390625 18.546875 47.265625 
Q 14.109375 46.140625 10.015625 43.890625 
L 10.015625 52.203125 
Q 14.9375 54.109375 19.578125 55.046875 
Q 24.21875 56 28.609375 56 
Q 40.484375 56 46.34375 49.84375 
Q 52.203125 43.703125 52.203125 31.203125 
z
" id="DejaVuSans-97"/>
     <path d="M 48.78125 52.59375 
L 48.78125 44.1875 
Q 44.96875 46.296875 41.140625 47.34375 
Q 37.3125 48.390625 33.40625 48.390625 
Q 24.65625 48.390625 19.8125 42.84375 
Q 14.984375 37.3125 14.984375 27.296875 
Q 14.984375 17.28125 19.8125 11.734375 
Q 24.65625 6.203125 33.40625 6.203125 
Q 37.3125 6.203125 41.140625 7.25 
Q 44.96875 8.296875 48.78125 10.40625 
L 48.78125 2.09375 
Q 45.015625 0.34375 40.984375 -0.53125 
Q 36.96875 -1.421875 32.421875 -1.421875 
Q 20.0625 -1.421875 12.78125 6.34375 
Q 5.515625 14.109375 5.515625 27.296875 
Q 5.515625 40.671875 12.859375 48.328125 
Q 20.21875 56 33.015625 56 
Q 37.15625 56 41.109375 55.140625 
Q 45.0625 54.296875 48.78125 52.59375 
z
" id="DejaVuSans-99"/>
     <path d="M 9.078125 75.984375 
L 18.109375 75.984375 
L 18.109375 31.109375 
L 44.921875 54.6875 
L 56.390625 54.6875 
L 27.390625 29.109375 
L 57.625 0 
L 45.90625 0 
L 18.109375 26.703125 
L 18.109375 0 
L 9.078125 0 
z
" id="DejaVuSans-107"/>
     <path d="M 9.421875 54.6875 
L 18.40625 54.6875 
L 18.40625 0 
L 9.421875 0 
z
M 9.421875 75.984375 
L 18.40625 75.984375 
L 18.40625 64.59375 
L 9.421875 64.59375 
z
" id="DejaVuSans-105"/>
     <path d="M 54.890625 33.015625 
L 54.890625 0 
L 45.90625 0 
L 45.90625 32.71875 
Q 45.90625 40.484375 42.875 44.328125 
Q 39.84375 48.1875 33.796875 48.1875 
Q 26.515625 48.1875 22.3125 43.546875 
Q 18.109375 38.921875 18.109375 30.90625 
L 18.109375 0 
L 9.078125 0 
L 9.078125 54.6875 
L 18.109375 54.6875 
L 18.109375 46.1875 
Q 21.34375 51.125 25.703125 53.5625 
Q 30.078125 56 35.796875 56 
Q 45.21875 56 50.046875 50.171875 
Q 54.890625 44.34375 54.890625 33.015625 
z
" id="DejaVuSans-110"/>
     <path d="M 45.40625 27.984375 
Q 45.40625 37.75 41.375 43.109375 
Q 37.359375 48.484375 30.078125 48.484375 
Q 22.859375 48.484375 18.828125 43.109375 
Q 14.796875 37.75 14.796875 27.984375 
Q 14.796875 18.265625 18.828125 12.890625 
Q 22.859375 7.515625 30.078125 7.515625 
Q 37.359375 7.515625 41.375 12.890625 
Q 45.40625 18.265625 45.40625 27.984375 
z
M 54.390625 6.78125 
Q 54.390625 -7.171875 48.1875 -13.984375 
Q 42 -20.796875 29.203125 -20.796875 
Q 24.46875 -20.796875 20.265625 -20.09375 
Q 16.0625 -19.390625 12.109375 -17.921875 
L 12.109375 -9.1875 
Q 16.0625 -11.328125 19.921875 -12.34375 
Q 23.78125 -13.375 27.78125 -13.375 
Q 36.625 -13.375 41.015625 -8.765625 
Q 45.40625 -4.15625 45.40625 5.171875 
L 45.40625 9.625 
Q 42.625 4.78125 38.28125 2.390625 
Q 33.9375 0 27.875 0 
Q 17.828125 0 11.671875 7.65625 
Q 5.515625 15.328125 5.515625 27.984375 
Q 5.515625 40.671875 11.671875 48.328125 
Q 17.828125 56 27.875 56 
Q 33.9375 56 38.28125 53.609375 
Q 42.625 51.21875 45.40625 46.390625 
L 45.40625 54.6875 
L 54.390625 54.6875 
z
" id="DejaVuSans-103"/>
     <path id="DejaVuSans-32"/>
     <path d="M 45.40625 46.390625 
L 45.40625 75.984375 
L 54.390625 75.984375 
L 54.390625 0 
L 45.40625 0 
L 45.40625 8.203125 
Q 42.578125 3.328125 38.25 0.953125 
Q 33.9375 -1.421875 27.875 -1.421875 
Q 17.96875 -1.421875 11.734375 6.484375 
Q 5.515625 14.40625 5.515625 27.296875 
Q 5.515625 40.1875 11.734375 48.09375 
Q 17.96875 56 27.875 56 
Q 33.9375 56 38.25 53.625 
Q 42.578125 51.265625 45.40625 46.390625 
z
M 14.796875 27.296875 
Q 14.796875 17.390625 18.875 11.75 
Q 22.953125 6.109375 30.078125 6.109375 
Q 37.203125 6.109375 41.296875 11.75 
Q 45.40625 17.390625 45.40625 27.296875 
Q 45.40625 37.203125 41.296875 42.84375 
Q 37.203125 48.484375 30.078125 48.484375 
Q 22.953125 48.484375 18.875 42.84375 
Q 14.796875 37.203125 14.796875 27.296875 
z
" id="DejaVuSans-100"/>
     <path d="M 56.203125 29.59375 
L 56.203125 25.203125 
L 14.890625 25.203125 
Q 15.484375 15.921875 20.484375 11.0625 
Q 25.484375 6.203125 34.421875 6.203125 
Q 39.59375 6.203125 44.453125 7.46875 
Q 49.3125 8.734375 54.109375 11.28125 
L 54.109375 2.78125 
Q 49.265625 0.734375 44.1875 -0.34375 
Q 39.109375 -1.421875 33.890625 -1.421875 
Q 20.796875 -1.421875 13.15625 6.1875 
Q 5.515625 13.8125 5.515625 26.8125 
Q 5.515625 40.234375 12.765625 48.109375 
Q 20.015625 56 32.328125 56 
Q 43.359375 56 49.78125 48.890625 
Q 56.203125 41.796875 56.203125 29.59375 
z
M 47.21875 32.234375 
Q 47.125 39.59375 43.09375 43.984375 
Q 39.0625 48.390625 32.421875 48.390625 
Q 24.90625 48.390625 20.390625 44.140625 
Q 15.875 39.890625 15.1875 32.171875 
z
" id="DejaVuSans-101"/>
     <path d="M 44.28125 53.078125 
L 44.28125 44.578125 
Q 40.484375 46.53125 36.375 47.5 
Q 32.28125 48.484375 27.875 48.484375 
Q 21.1875 48.484375 17.84375 46.4375 
Q 14.5 44.390625 14.5 40.28125 
Q 14.5 37.15625 16.890625 35.375 
Q 19.28125 33.59375 26.515625 31.984375 
L 29.59375 31.296875 
Q 39.15625 29.25 43.1875 25.515625 
Q 47.21875 21.78125 47.21875 15.09375 
Q 47.21875 7.46875 41.1875 3.015625 
Q 35.15625 -1.421875 24.609375 -1.421875 
Q 20.21875 -1.421875 15.453125 -0.5625 
Q 10.6875 0.296875 5.421875 2 
L 5.421875 11.28125 
Q 10.40625 8.6875 15.234375 7.390625 
Q 20.0625 6.109375 24.8125 6.109375 
Q 31.15625 6.109375 34.5625 8.28125 
Q 37.984375 10.453125 37.984375 14.40625 
Q 37.984375 18.0625 35.515625 20.015625 
Q 33.0625 21.96875 24.703125 23.78125 
L 21.578125 24.515625 
Q 13.234375 26.265625 9.515625 29.90625 
Q 5.8125 33.546875 5.8125 39.890625 
Q 5.8125 47.609375 11.28125 51.796875 
Q 16.75 56 26.8125 56 
Q 31.78125 56 36.171875 55.265625 
Q 40.578125 54.546875 44.28125 53.078125 
z
" id="DejaVuSans-115"/>
     <path d="M 18.3125 70.21875 
L 18.3125 54.6875 
L 36.8125 54.6875 
L 36.8125 47.703125 
L 18.3125 47.703125 
L 18.3125 18.015625 
Q 18.3125 11.328125 20.140625 9.421875 
Q 21.96875 7.515625 27.59375 7.515625 
L 36.8125 7.515625 
L 36.8125 0 
L 27.59375 0 
Q 17.1875 0 13.234375 3.875 
Q 9.28125 7.765625 9.28125 18.015625 
L 9.28125 47.703125 
L 2.6875 47.703125 
L 2.6875 54.6875 
L 9.28125 54.6875 
L 9.28125 70.21875 
z
" id="DejaVuSans-116"/>
     <path d="M 32.171875 -5.078125 
Q 28.375 -14.84375 24.75 -17.8125 
Q 21.140625 -20.796875 15.09375 -20.796875 
L 7.90625 -20.796875 
L 7.90625 -13.28125 
L 13.1875 -13.28125 
Q 16.890625 -13.28125 18.9375 -11.515625 
Q 21 -9.765625 23.484375 -3.21875 
L 25.09375 0.875 
L 2.984375 54.6875 
L 12.5 54.6875 
L 29.59375 11.921875 
L 46.6875 54.6875 
L 56.203125 54.6875 
z
" id="DejaVuSans-121"/>
     <path d="M 10.984375 1.515625 
L 10.984375 10.5 
Q 14.703125 8.734375 18.5 7.8125 
Q 22.3125 6.890625 25.984375 6.890625 
Q 35.75 6.890625 40.890625 13.453125 
Q 46.046875 20.015625 46.78125 33.40625 
Q 43.953125 29.203125 39.59375 26.953125 
Q 35.25 24.703125 29.984375 24.703125 
Q 19.046875 24.703125 12.671875 31.3125 
Q 6.296875 37.9375 6.296875 49.421875 
Q 6.296875 60.640625 12.9375 67.421875 
Q 19.578125 74.21875 30.609375 74.21875 
Q 43.265625 74.21875 49.921875 64.515625 
Q 56.59375 54.828125 56.59375 36.375 
Q 56.59375 19.140625 48.40625 8.859375 
Q 40.234375 -1.421875 26.421875 -1.421875 
Q 22.703125 -1.421875 18.890625 -0.6875 
Q 15.09375 0.046875 10.984375 1.515625 
z
M 30.609375 32.421875 
Q 37.25 32.421875 41.125 36.953125 
Q 45.015625 41.5 45.015625 49.421875 
Q 45.015625 57.28125 41.125 61.84375 
Q 37.25 66.40625 30.609375 66.40625 
Q 23.96875 66.40625 20.09375 61.84375 
Q 16.21875 57.28125 16.21875 49.421875 
Q 16.21875 41.5 20.09375 36.953125 
Q 23.96875 32.421875 30.609375 32.421875 
z
" id="DejaVuSans-57"/>
     <path d="M 37.796875 64.3125 
L 12.890625 25.390625 
L 37.796875 25.390625 
z
M 35.203125 72.90625 
L 47.609375 72.90625 
L 47.609375 25.390625 
L 58.015625 25.390625 
L 58.015625 17.1875 
L 47.609375 17.1875 
L 47.609375 0 
L 37.796875 0 
L 37.796875 17.1875 
L 4.890625 17.1875 
L 4.890625 26.703125 
z
" id="DejaVuSans-52"/>
     <path d="M 10.6875 12.40625 
L 21 12.40625 
L 21 0 
L 10.6875 0 
z
" id="DejaVuSans-46"/>
     <path d="M 31.78125 34.625 
Q 24.75 34.625 20.71875 30.859375 
Q 16.703125 27.09375 16.703125 20.515625 
Q 16.703125 13.921875 20.71875 10.15625 
Q 24.75 6.390625 31.78125 6.390625 
Q 38.8125 6.390625 42.859375 10.171875 
Q 46.921875 13.96875 46.921875 20.515625 
Q 46.921875 27.09375 42.890625 30.859375 
Q 38.875 34.625 31.78125 34.625 
z
M 21.921875 38.8125 
Q 15.578125 40.375 12.03125 44.71875 
Q 8.5 49.078125 8.5 55.328125 
Q 8.5 64.0625 14.71875 69.140625 
Q 20.953125 74.21875 31.78125 74.21875 
Q 42.671875 74.21875 48.875 69.140625 
Q 55.078125 64.0625 55.078125 55.328125 
Q 55.078125 49.078125 51.53125 44.71875 
Q 48 40.375 41.703125 38.8125 
Q 48.828125 37.15625 52.796875 32.3125 
Q 56.78125 27.484375 56.78125 20.515625 
Q 56.78125 9.90625 50.3125 4.234375 
Q 43.84375 -1.421875 31.78125 -1.421875 
Q 19.734375 -1.421875 13.25 4.234375 
Q 6.78125 9.90625 6.78125 20.515625 
Q 6.78125 27.484375 10.78125 32.3125 
Q 14.796875 37.15625 21.921875 38.8125 
z
M 18.3125 54.390625 
Q 18.3125 48.734375 21.84375 45.5625 
Q 25.390625 42.390625 31.78125 42.390625 
Q 38.140625 42.390625 41.71875 45.5625 
Q 45.3125 48.734375 45.3125 54.390625 
Q 45.3125 60.0625 41.71875 63.234375 
Q 38.140625 66.40625 31.78125 66.40625 
Q 25.390625 66.40625 21.84375 63.234375 
Q 18.3125 60.0625 18.3125 54.390625 
z
" id="DejaVuSans-56"/>
     <path d="M 72.703125 32.078125 
Q 68.453125 32.078125 66.03125 28.46875 
Q 63.625 24.859375 63.625 18.40625 
Q 63.625 12.0625 66.03125 8.421875 
Q 68.453125 4.78125 72.703125 4.78125 
Q 76.859375 4.78125 79.265625 8.421875 
Q 81.6875 12.0625 81.6875 18.40625 
Q 81.6875 24.8125 79.265625 28.4375 
Q 76.859375 32.078125 72.703125 32.078125 
z
M 72.703125 38.28125 
Q 80.421875 38.28125 84.953125 32.90625 
Q 89.5 27.546875 89.5 18.40625 
Q 89.5 9.28125 84.9375 3.921875 
Q 80.375 -1.421875 72.703125 -1.421875 
Q 64.890625 -1.421875 60.34375 3.921875 
Q 55.8125 9.28125 55.8125 18.40625 
Q 55.8125 27.59375 60.375 32.9375 
Q 64.9375 38.28125 72.703125 38.28125 
z
M 22.3125 68.015625 
Q 18.109375 68.015625 15.6875 64.375 
Q 13.28125 60.75 13.28125 54.390625 
Q 13.28125 47.953125 15.671875 44.328125 
Q 18.0625 40.71875 22.3125 40.71875 
Q 26.5625 40.71875 28.96875 44.328125 
Q 31.390625 47.953125 31.390625 54.390625 
Q 31.390625 60.6875 28.953125 64.34375 
Q 26.515625 68.015625 22.3125 68.015625 
z
M 66.40625 74.21875 
L 74.21875 74.21875 
L 28.609375 -1.421875 
L 20.796875 -1.421875 
z
M 22.3125 74.21875 
Q 30.03125 74.21875 34.609375 68.875 
Q 39.203125 63.53125 39.203125 54.390625 
Q 39.203125 45.171875 34.640625 39.84375 
Q 30.078125 34.515625 22.3125 34.515625 
Q 14.546875 34.515625 10.03125 39.859375 
Q 5.515625 45.21875 5.515625 54.390625 
Q 5.515625 63.484375 10.046875 68.84375 
Q 14.59375 74.21875 22.3125 74.21875 
z
" id="DejaVuSans-37"/>
     <path d="M 31 75.875 
Q 24.46875 64.65625 21.28125 53.65625 
Q 18.109375 42.671875 18.109375 31.390625 
Q 18.109375 20.125 21.3125 9.0625 
Q 24.515625 -2 31 -13.1875 
L 23.1875 -13.1875 
Q 15.875 -1.703125 12.234375 9.375 
Q 8.59375 20.453125 8.59375 31.390625 
Q 8.59375 42.28125 12.203125 53.3125 
Q 15.828125 64.359375 23.1875 75.875 
z
" id="DejaVuSans-40"/>
     <path d="M 12.40625 8.296875 
L 28.515625 8.296875 
L 28.515625 63.921875 
L 10.984375 60.40625 
L 10.984375 69.390625 
L 28.421875 72.90625 
L 38.28125 72.90625 
L 38.28125 8.296875 
L 54.390625 8.296875 
L 54.390625 0 
L 12.40625 0 
z
" id="DejaVuSans-49"/>
     <path d="M 19.1875 8.296875 
L 53.609375 8.296875 
L 53.609375 0 
L 7.328125 0 
L 7.328125 8.296875 
Q 12.9375 14.109375 22.625 23.890625 
Q 32.328125 33.6875 34.8125 36.53125 
Q 39.546875 41.84375 41.421875 45.53125 
Q 43.3125 49.21875 43.3125 52.78125 
Q 43.3125 58.59375 39.234375 62.25 
Q 35.15625 65.921875 28.609375 65.921875 
Q 23.96875 65.921875 18.8125 64.3125 
Q 13.671875 62.703125 7.8125 59.421875 
L 7.8125 69.390625 
Q 13.765625 71.78125 18.9375 73 
Q 24.125 74.21875 28.421875 74.21875 
Q 39.75 74.21875 46.484375 68.546875 
Q 53.21875 62.890625 53.21875 53.421875 
Q 53.21875 48.921875 51.53125 44.890625 
Q 49.859375 40.875 45.40625 35.40625 
Q 44.1875 33.984375 37.640625 27.21875 
Q 31.109375 20.453125 19.1875 8.296875 
z
" id="DejaVuSans-50"/>
     <path d="M 54.890625 54.6875 
L 35.109375 28.078125 
L 55.90625 0 
L 45.3125 0 
L 29.390625 21.484375 
L 13.484375 0 
L 2.875 0 
L 24.125 28.609375 
L 4.6875 54.6875 
L 15.28125 54.6875 
L 29.78125 35.203125 
L 44.28125 54.6875 
z
" id="DejaVuSans-120"/>
     <path d="M 40.578125 39.3125 
Q 47.65625 37.796875 51.625 33 
Q 55.609375 28.21875 55.609375 21.1875 
Q 55.609375 10.40625 48.1875 4.484375 
Q 40.765625 -1.421875 27.09375 -1.421875 
Q 22.515625 -1.421875 17.65625 -0.515625 
Q 12.796875 0.390625 7.625 2.203125 
L 7.625 11.71875 
Q 11.71875 9.328125 16.59375 8.109375 
Q 21.484375 6.890625 26.8125 6.890625 
Q 36.078125 6.890625 40.9375 10.546875 
Q 45.796875 14.203125 45.796875 21.1875 
Q 45.796875 27.640625 41.28125 31.265625 
Q 36.765625 34.90625 28.71875 34.90625 
L 20.21875 34.90625 
L 20.21875 43.015625 
L 29.109375 43.015625 
Q 36.375 43.015625 40.234375 45.921875 
Q 44.09375 48.828125 44.09375 54.296875 
Q 44.09375 59.90625 40.109375 62.90625 
Q 36.140625 65.921875 28.71875 65.921875 
Q 24.65625 65.921875 20.015625 65.03125 
Q 15.375 64.15625 9.8125 62.3125 
L 9.8125 71.09375 
Q 15.4375 72.65625 20.34375 73.4375 
Q 25.25 74.21875 29.59375 74.21875 
Q 40.828125 74.21875 47.359375 69.109375 
Q 53.90625 64.015625 53.90625 55.328125 
Q 53.90625 49.265625 50.4375 45.09375 
Q 46.96875 40.921875 40.578125 39.3125 
z
" id="DejaVuSans-51"/>
     <path d="M 8.203125 72.90625 
L 55.078125 72.90625 
L 55.078125 68.703125 
L 28.609375 0 
L 18.3125 0 
L 43.21875 64.59375 
L 8.203125 64.59375 
z
" id="DejaVuSans-55"/>
     <path d="M 8.015625 75.875 
L 15.828125 75.875 
Q 23.140625 64.359375 26.78125 53.3125 
Q 30.421875 42.28125 30.421875 31.390625 
Q 30.421875 20.453125 26.78125 9.375 
Q 23.140625 -1.703125 15.828125 -13.1875 
L 8.015625 -13.1875 
Q 14.5 -2 17.703125 9.0625 
Q 20.90625 20.125 20.90625 31.390625 
Q 20.90625 42.671875 17.703125 53.65625 
Q 14.5 64.65625 8.015625 75.875 
z
" id="DejaVuSans-41"/>
     <path d="M 11.71875 12.40625 
L 22.015625 12.40625 
L 22.015625 4 
L 14.015625 -11.625 
L 7.71875 -11.625 
L 11.71875 4 
z
" id="DejaVuSans-44"/>
     <path d="M 31.78125 66.40625 
Q 24.171875 66.40625 20.328125 58.90625 
Q 16.5 51.421875 16.5 36.375 
Q 16.5 21.390625 20.328125 13.890625 
Q 24.171875 6.390625 31.78125 6.390625 
Q 39.453125 6.390625 43.28125 13.890625 
Q 47.125 21.390625 47.125 36.375 
Q 47.125 51.421875 43.28125 58.90625 
Q 39.453125 66.40625 31.78125 66.40625 
z
M 31.78125 74.21875 
Q 44.046875 74.21875 50.515625 64.515625 
Q 56.984375 54.828125 56.984375 36.375 
Q 56.984375 17.96875 50.515625 8.265625 
Q 44.046875 -1.421875 31.78125 -1.421875 
Q 19.53125 -1.421875 13.0625 8.265625 
Q 6.59375 17.96875 6.59375 36.375 
Q 6.59375 54.828125 13.0625 64.515625 
Q 19.53125 74.21875 31.78125 74.21875 
z
" id="DejaVuSans-48"/>
     <path d="M 41.109375 46.296875 
Q 39.59375 47.171875 37.8125 47.578125 
Q 36.03125 48 33.890625 48 
Q 26.265625 48 22.1875 43.046875 
Q 18.109375 38.09375 18.109375 28.8125 
L 18.109375 0 
L 9.078125 0 
L 9.078125 54.6875 
L 18.109375 54.6875 
L 18.109375 46.1875 
Q 20.953125 51.171875 25.484375 53.578125 
Q 30.03125 56 36.53125 56 
Q 37.453125 56 38.578125 55.875 
Q 39.703125 55.765625 41.0625 55.515625 
z
" id="DejaVuSans-114"/>
     <path d="M 9.421875 75.984375 
L 18.40625 75.984375 
L 18.40625 0 
L 9.421875 0 
z
" id="DejaVuSans-108"/>
    </defs>
    <g transform="translate(7.2 16.318125)scale(0.12 -0.12)">
     <use xlink:href="#DejaVuSans-80"/>
     <use x="60.240234" xlink:href="#DejaVuSans-97"/>
     <use x="121.519531" xlink:href="#DejaVuSans-99"/>
     <use x="176.5" xlink:href="#DejaVuSans-107"/>
     <use x="234.410156" xlink:href="#DejaVuSans-105"/>
     <use x="262.193359" xlink:href="#DejaVuSans-110"/>
     <use x="325.572266" xlink:href="#DejaVuSans-103"/>
     <use x="389.048828" xlink:href="#DejaVuSans-32"/>
     <use x="420.835938" xlink:href="#DejaVuSans-100"/>
     <use x="484.3125" xlink:href="#DejaVuSans-101"/>
     <use x="545.835938" xlink:href="#DejaVuSans-110"/>
     <use x="609.214844" xlink:href="#DejaVuSans-115"/>
     <use x="661.314453" xlink:href="#DejaVuSans-105"/>
     <use x="689.097656" xlink:href="#DejaVuSans-116"/>
     <use x="728.306641" xlink:href="#DejaVuSans-121"/>
     <use x="787.486328" xlink:href="#DejaVuSans-32"/>
     <use x="819.273438" xlink:href="#DejaVuSans-57"/>
     <use x="882.896484" xlink:href="#DejaVuSans-52"/>
     <use x="946.519531" xlink:href="#DejaVuSans-46"/>
     <use x="978.306641" xlink:href="#DejaVuSans-56"/>
     <use x="1041.929688" xlink:href="#DejaVuSans-52"/>
     <use x="1105.552734" xlink:href="#DejaVuSans-37"/>
     <use x="1200.572266" xlink:href="#DejaVuSans-32"/>
     <use x="1232.359375" xlink:href="#DejaVuSans-40"/>
     <use x="1271.373047" xlink:href="#DejaVuSans-49"/>
     <use x="1334.996094" xlink:href="#DejaVuSans-57"/>
     <use x="1398.619141" xlink:href="#DejaVuSans-50"/>
     <use x="1462.242188" xlink:href="#DejaVuSans-52"/>
     <use x="1525.865234" xlink:href="#DejaVuSans-32"/>
     <use x="1557.652344" xlink:href="#DejaVuSans-120"/>
     <use x="1616.832031" xlink:href="#DejaVuSans-32"/>
     <use x="1648.619141" xlink:href="#DejaVuSans-49"/>
     <use x="1712.242188" xlink:href="#DejaVuSans-51"/>
     <use x="1775.865234" xlink:href="#DejaVuSans-56"/>
     <use x="1839.488281" xlink:href="#DejaVuSans-55"/>
     <use x="1903.111328" xlink:href="#DejaVuSans-56"/>
     <use x="1966.734375" xlink:href="#DejaVuSans-41"/>
     <use x="2005.748047" xlink:href="#DejaVuSans-44"/>
     <use x="2037.535156" xlink:href="#DejaVuSans-32"/>
     <use x="2069.322266" xlink:href="#DejaVuSans-49"/>
     <use x="2132.945312" xlink:href="#DejaVuSans-48"/>
     <use x="2196.568359" xlink:href="#DejaVuSans-48"/>
     <use x="2260.191406" xlink:href="#DejaVuSans-32"/>
     <use x="2291.978516" xlink:href="#DejaVuSans-114"/>
     <use x="2333.060547" xlink:href="#DejaVuSans-101"/>
     <use x="2394.583984" xlink:href="#DejaVuSans-99"/>
     <use x="2449.564453" xlink:href="#DejaVuSans-116"/>
     <use x="2488.773438" xlink:href="#DejaVuSans-97"/>
     <use x="2550.052734" xlink:href="#DejaVuSans-110"/>
     <use x="2613.431641" xlink:href="#DejaVuSans-103"/>
     <use x="2676.908203" xlink:href="#DejaVuSans-108"/>
     <use x="2704.691406" xlink:href="#DejaVuSans-101"/>
     <use x="2766.214844" xlink:href="#DejaVuSans-115"/>
     <use x="2818.314453" xlink:href="#DejaVuSans-46"/>
    </g>
   </g>
  </g>
 </g>
 <defs>
  <clipPath id="pc41d909b01">
   <rect height="308.881875" width="42.822361" x="156.794444" y="22.318125"/>
  </clipPath>
 </defs>
</svg>
