<?xml version="1.0" encoding="utf-8" standalone="no"?>
<!DOCTYPE svg PUBLIC "-//W3C//DTD SVG 1.1//EN"
  "http://www.w3.org/Graphics/SVG/1.1/DTD/svg11.dtd">
<!-- Created with matplotlib (https://matplotlib.org/) -->
<svg height="345.6pt" version="1.1" viewBox="0 0 460.8 345.6" width="460.8pt" xmlns="http://www.w3.org/2000/svg" xmlns:xlink="http://www.w3.org/1999/xlink">
 <defs>
  <style type="text/css">
*{stroke-linecap:butt;stroke-linejoin:round;}
  </style>
 </defs>
 <g id="figure_1">
  <g id="patch_1">
   <path d="M 0 345.6 
L 460.8 345.6 
L 460.8 0 
L 0 0 
z
" style="fill:#ffffff;"/>
  </g>
  <g id="axes_1">
   <g id="patch_2">
    <path d="M 40.026562 304.44375 
L 446.5 304.44375 
L 446.5 25.92 
L 40.026562 25.92 
z
" style="fill:#ffffff;"/>
   </g>
   <g id="matplotlib.axis_1">
    <g id="xtick_1">
     <g id="line2d_1">
      <defs>
       <path d="M 0 0 
L 0 3.5 
" id="m28446d917d" style="stroke:#000000;stroke-width:0.8;"/>
      </defs>
      <g>
       <use style="stroke:#000000;stroke-width:0.8;" x="60.350234" xlink:href="#m28446d917d" y="304.44375"/>
      </g>
     </g>
     <g id="text_1">
      <!-- 10 -->
      <defs>
       <path d="M 12.40625 8.296875 
L 28.515625 8.296875 
L 28.515625 63.921875 
L 10.984375 60.40625 
L 10.984375 69.390625 
L 28.421875 72.90625 
L 38.28125 72.90625 
L 38.28125 8.296875 
L 54.390625 8.296875 
L 54.390625 0 
L 12.40625 0 
z
" id="DejaVuSans-49"/>
       <path d="M 31.78125 66.40625 
Q 24.171875 66.40625 20.328125 58.90625 
Q 16.5 51.421875 16.5 36.375 
Q 16.5 21.390625 20.328125 13.890625 
Q 24.171875 6.390625 31.78125 6.390625 
Q 39.453125 6.390625 43.28125 13.890625 
Q 47.125 21.390625 47.125 36.375 
Q 47.125 51.421875 43.28125 58.90625 
Q 39.453125 66.40625 31.78125 66.40625 
z
M 31.78125 74.21875 
Q 44.046875 74.21875 50.515625 64.515625 
Q 56.984375 54.828125 56.984375 36.375 
Q 56.984375 17.96875 50.515625 8.265625 
Q 44.046875 -1.421875 31.78125 -1.421875 
Q 19.53125 -1.421875 13.0625 8.265625 
Q 6.59375 17.96875 6.59375 36.375 
Q 6.59375 54.828125 13.0625 64.515625 
Q 19.53125 74.21875 31.78125 74.21875 
z
" id="DejaVuSans-48"/>
      </defs>
      <g transform="translate(53.987734 319.042187)scale(0.1 -0.1)">
       <use xlink:href="#DejaVuSans-49"/>
       <use x="63.623047" xlink:href="#DejaVuSans-48"/>
      </g>
     </g>
    </g>
    <g id="xtick_2">
     <g id="line2d_2">
      <g>
       <use style="stroke:#000000;stroke-width:0.8;" x="100.997578" xlink:href="#m28446d917d" y="304.44375"/>
      </g>
     </g>
     <g id="text_2">
      <!-- 20 -->
      <defs>
       <path d="M 19.1875 8.296875 
L 53.609375 8.296875 
L 53.609375 0 
L 7.328125 0 
L 7.328125 8.296875 
Q 12.9375 14.109375 22.625 23.890625 
Q 32.328125 33.6875 34.8125 36.53125 
Q 39.546875 41.84375 41.421875 45.53125 
Q 43.3125 49.21875 43.3125 52.78125 
Q 43.3125 58.59375 39.234375 62.25 
Q 35.15625 65.921875 28.609375 65.921875 
Q 23.96875 65.921875 18.8125 64.3125 
Q 13.671875 62.703125 7.8125 59.421875 
L 7.8125 69.390625 
Q 13.765625 71.78125 18.9375 73 
Q 24.125 74.21875 28.421875 74.21875 
Q 39.75 74.21875 46.484375 68.546875 
Q 53.21875 62.890625 53.21875 53.421875 
Q 53.21875 48.921875 51.53125 44.890625 
Q 49.859375 40.875 45.40625 35.40625 
Q 44.1875 33.984375 37.640625 27.21875 
Q 31.109375 20.453125 19.1875 8.296875 
z
" id="DejaVuSans-50"/>
      </defs>
      <g transform="translate(94.635078 319.042187)scale(0.1 -0.1)">
       <use xlink:href="#DejaVuSans-50"/>
       <use x="63.623047" xlink:href="#DejaVuSans-48"/>
      </g>
     </g>
    </g>
    <g id="xtick_3">
     <g id="line2d_3">
      <g>
       <use style="stroke:#000000;stroke-width:0.8;" x="141.644922" xlink:href="#m28446d917d" y="304.44375"/>
      </g>
     </g>
     <g id="text_3">
      <!-- 30 -->
      <defs>
       <path d="M 40.578125 39.3125 
Q 47.65625 37.796875 51.625 33 
Q 55.609375 28.21875 55.609375 21.1875 
Q 55.609375 10.40625 48.1875 4.484375 
Q 40.765625 -1.421875 27.09375 -1.421875 
Q 22.515625 -1.421875 17.65625 -0.515625 
Q 12.796875 0.390625 7.625 2.203125 
L 7.625 11.71875 
Q 11.71875 9.328125 16.59375 8.109375 
Q 21.484375 6.890625 26.8125 6.890625 
Q 36.078125 6.890625 40.9375 10.546875 
Q 45.796875 14.203125 45.796875 21.1875 
Q 45.796875 27.640625 41.28125 31.265625 
Q 36.765625 34.90625 28.71875 34.90625 
L 20.21875 34.90625 
L 20.21875 43.015625 
L 29.109375 43.015625 
Q 36.375 43.015625 40.234375 45.921875 
Q 44.09375 48.828125 44.09375 54.296875 
Q 44.09375 59.90625 40.109375 62.90625 
Q 36.140625 65.921875 28.71875 65.921875 
Q 24.65625 65.921875 20.015625 65.03125 
Q 15.375 64.15625 9.8125 62.3125 
L 9.8125 71.09375 
Q 15.4375 72.65625 20.34375 73.4375 
Q 25.25 74.21875 29.59375 74.21875 
Q 40.828125 74.21875 47.359375 69.109375 
Q 53.90625 64.015625 53.90625 55.328125 
Q 53.90625 49.265625 50.4375 45.09375 
Q 46.96875 40.921875 40.578125 39.3125 
z
" id="DejaVuSans-51"/>
      </defs>
      <g transform="translate(135.282422 319.042187)scale(0.1 -0.1)">
       <use xlink:href="#DejaVuSans-51"/>
       <use x="63.623047" xlink:href="#DejaVuSans-48"/>
      </g>
     </g>
    </g>
    <g id="xtick_4">
     <g id="line2d_4">
      <g>
       <use style="stroke:#000000;stroke-width:0.8;" x="182.292266" xlink:href="#m28446d917d" y="304.44375"/>
      </g>
     </g>
     <g id="text_4">
      <!-- 40 -->
      <defs>
       <path d="M 37.796875 64.3125 
L 12.890625 25.390625 
L 37.796875 25.390625 
z
M 35.203125 72.90625 
L 47.609375 72.90625 
L 47.609375 25.390625 
L 58.015625 25.390625 
L 58.015625 17.1875 
L 47.609375 17.1875 
L 47.609375 0 
L 37.796875 0 
L 37.796875 17.1875 
L 4.890625 17.1875 
L 4.890625 26.703125 
z
" id="DejaVuSans-52"/>
      </defs>
      <g transform="translate(175.929766 319.042187)scale(0.1 -0.1)">
       <use xlink:href="#DejaVuSans-52"/>
       <use x="63.623047" xlink:href="#DejaVuSans-48"/>
      </g>
     </g>
    </g>
    <g id="xtick_5">
     <g id="line2d_5">
      <g>
       <use style="stroke:#000000;stroke-width:0.8;" x="222.939609" xlink:href="#m28446d917d" y="304.44375"/>
      </g>
     </g>
     <g id="text_5">
      <!-- 50 -->
      <defs>
       <path d="M 10.796875 72.90625 
L 49.515625 72.90625 
L 49.515625 64.59375 
L 19.828125 64.59375 
L 19.828125 46.734375 
Q 21.96875 47.46875 24.109375 47.828125 
Q 26.265625 48.1875 28.421875 48.1875 
Q 40.625 48.1875 47.75 41.5 
Q 54.890625 34.8125 54.890625 23.390625 
Q 54.890625 11.625 47.5625 5.09375 
Q 40.234375 -1.421875 26.90625 -1.421875 
Q 22.3125 -1.421875 17.546875 -0.640625 
Q 12.796875 0.140625 7.71875 1.703125 
L 7.71875 11.625 
Q 12.109375 9.234375 16.796875 8.0625 
Q 21.484375 6.890625 26.703125 6.890625 
Q 35.15625 6.890625 40.078125 11.328125 
Q 45.015625 15.765625 45.015625 23.390625 
Q 45.015625 31 40.078125 35.4375 
Q 35.15625 39.890625 26.703125 39.890625 
Q 22.75 39.890625 18.8125 39.015625 
Q 14.890625 38.140625 10.796875 36.28125 
z
" id="DejaVuSans-53"/>
      </defs>
      <g transform="translate(216.577109 319.042187)scale(0.1 -0.1)">
       <use xlink:href="#DejaVuSans-53"/>
       <use x="63.623047" xlink:href="#DejaVuSans-48"/>
      </g>
     </g>
    </g>
    <g id="xtick_6">
     <g id="line2d_6">
      <g>
       <use style="stroke:#000000;stroke-width:0.8;" x="263.586953" xlink:href="#m28446d917d" y="304.44375"/>
      </g>
     </g>
     <g id="text_6">
      <!-- 60 -->
      <defs>
       <path d="M 33.015625 40.375 
Q 26.375 40.375 22.484375 35.828125 
Q 18.609375 31.296875 18.609375 23.390625 
Q 18.609375 15.53125 22.484375 10.953125 
Q 26.375 6.390625 33.015625 6.390625 
Q 39.65625 6.390625 43.53125 10.953125 
Q 47.40625 15.53125 47.40625 23.390625 
Q 47.40625 31.296875 43.53125 35.828125 
Q 39.65625 40.375 33.015625 40.375 
z
M 52.59375 71.296875 
L 52.59375 62.3125 
Q 48.875 64.0625 45.09375 64.984375 
Q 41.3125 65.921875 37.59375 65.921875 
Q 27.828125 65.921875 22.671875 59.328125 
Q 17.53125 52.734375 16.796875 39.40625 
Q 19.671875 43.65625 24.015625 45.921875 
Q 28.375 48.1875 33.59375 48.1875 
Q 44.578125 48.1875 50.953125 41.515625 
Q 57.328125 34.859375 57.328125 23.390625 
Q 57.328125 12.15625 50.6875 5.359375 
Q 44.046875 -1.421875 33.015625 -1.421875 
Q 20.359375 -1.421875 13.671875 8.265625 
Q 6.984375 17.96875 6.984375 36.375 
Q 6.984375 53.65625 15.1875 63.9375 
Q 23.390625 74.21875 37.203125 74.21875 
Q 40.921875 74.21875 44.703125 73.484375 
Q 48.484375 72.75 52.59375 71.296875 
z
" id="DejaVuSans-54"/>
      </defs>
      <g transform="translate(257.224453 319.042187)scale(0.1 -0.1)">
       <use xlink:href="#DejaVuSans-54"/>
       <use x="63.623047" xlink:href="#DejaVuSans-48"/>
      </g>
     </g>
    </g>
    <g id="xtick_7">
     <g id="line2d_7">
      <g>
       <use style="stroke:#000000;stroke-width:0.8;" x="304.234297" xlink:href="#m28446d917d" y="304.44375"/>
      </g>
     </g>
     <g id="text_7">
      <!-- 70 -->
      <defs>
       <path d="M 8.203125 72.90625 
L 55.078125 72.90625 
L 55.078125 68.703125 
L 28.609375 0 
L 18.3125 0 
L 43.21875 64.59375 
L 8.203125 64.59375 
z
" id="DejaVuSans-55"/>
      </defs>
      <g transform="translate(297.871797 319.042187)scale(0.1 -0.1)">
       <use xlink:href="#DejaVuSans-55"/>
       <use x="63.623047" xlink:href="#DejaVuSans-48"/>
      </g>
     </g>
    </g>
    <g id="xtick_8">
     <g id="line2d_8">
      <g>
       <use style="stroke:#000000;stroke-width:0.8;" x="344.881641" xlink:href="#m28446d917d" y="304.44375"/>
      </g>
     </g>
     <g id="text_8">
      <!-- 80 -->
      <defs>
       <path d="M 31.78125 34.625 
Q 24.75 34.625 20.71875 30.859375 
Q 16.703125 27.09375 16.703125 20.515625 
Q 16.703125 13.921875 20.71875 10.15625 
Q 24.75 6.390625 31.78125 6.390625 
Q 38.8125 6.390625 42.859375 10.171875 
Q 46.921875 13.96875 46.921875 20.515625 
Q 46.921875 27.09375 42.890625 30.859375 
Q 38.875 34.625 31.78125 34.625 
z
M 21.921875 38.8125 
Q 15.578125 40.375 12.03125 44.71875 
Q 8.5 49.078125 8.5 55.328125 
Q 8.5 64.0625 14.71875 69.140625 
Q 20.953125 74.21875 31.78125 74.21875 
Q 42.671875 74.21875 48.875 69.140625 
Q 55.078125 64.0625 55.078125 55.328125 
Q 55.078125 49.078125 51.53125 44.71875 
Q 48 40.375 41.703125 38.8125 
Q 48.828125 37.15625 52.796875 32.3125 
Q 56.78125 27.484375 56.78125 20.515625 
Q 56.78125 9.90625 50.3125 4.234375 
Q 43.84375 -1.421875 31.78125 -1.421875 
Q 19.734375 -1.421875 13.25 4.234375 
Q 6.78125 9.90625 6.78125 20.515625 
Q 6.78125 27.484375 10.78125 32.3125 
Q 14.796875 37.15625 21.921875 38.8125 
z
M 18.3125 54.390625 
Q 18.3125 48.734375 21.84375 45.5625 
Q 25.390625 42.390625 31.78125 42.390625 
Q 38.140625 42.390625 41.71875 45.5625 
Q 45.3125 48.734375 45.3125 54.390625 
Q 45.3125 60.0625 41.71875 63.234375 
Q 38.140625 66.40625 31.78125 66.40625 
Q 25.390625 66.40625 21.84375 63.234375 
Q 18.3125 60.0625 18.3125 54.390625 
z
" id="DejaVuSans-56"/>
      </defs>
      <g transform="translate(338.519141 319.042187)scale(0.1 -0.1)">
       <use xlink:href="#DejaVuSans-56"/>
       <use x="63.623047" xlink:href="#DejaVuSans-48"/>
      </g>
     </g>
    </g>
    <g id="xtick_9">
     <g id="line2d_9">
      <g>
       <use style="stroke:#000000;stroke-width:0.8;" x="385.528984" xlink:href="#m28446d917d" y="304.44375"/>
      </g>
     </g>
     <g id="text_9">
      <!-- 90 -->
      <defs>
       <path d="M 10.984375 1.515625 
L 10.984375 10.5 
Q 14.703125 8.734375 18.5 7.8125 
Q 22.3125 6.890625 25.984375 6.890625 
Q 35.75 6.890625 40.890625 13.453125 
Q 46.046875 20.015625 46.78125 33.40625 
Q 43.953125 29.203125 39.59375 26.953125 
Q 35.25 24.703125 29.984375 24.703125 
Q 19.046875 24.703125 12.671875 31.3125 
Q 6.296875 37.9375 6.296875 49.421875 
Q 6.296875 60.640625 12.9375 67.421875 
Q 19.578125 74.21875 30.609375 74.21875 
Q 43.265625 74.21875 49.921875 64.515625 
Q 56.59375 54.828125 56.59375 36.375 
Q 56.59375 19.140625 48.40625 8.859375 
Q 40.234375 -1.421875 26.421875 -1.421875 
Q 22.703125 -1.421875 18.890625 -0.6875 
Q 15.09375 0.046875 10.984375 1.515625 
z
M 30.609375 32.421875 
Q 37.25 32.421875 41.125 36.953125 
Q 45.015625 41.5 45.015625 49.421875 
Q 45.015625 57.28125 41.125 61.84375 
Q 37.25 66.40625 30.609375 66.40625 
Q 23.96875 66.40625 20.09375 61.84375 
Q 16.21875 57.28125 16.21875 49.421875 
Q 16.21875 41.5 20.09375 36.953125 
Q 23.96875 32.421875 30.609375 32.421875 
z
" id="DejaVuSans-57"/>
      </defs>
      <g transform="translate(379.166484 319.042187)scale(0.1 -0.1)">
       <use xlink:href="#DejaVuSans-57"/>
       <use x="63.623047" xlink:href="#DejaVuSans-48"/>
      </g>
     </g>
    </g>
    <g id="xtick_10">
     <g id="line2d_10">
      <g>
       <use style="stroke:#000000;stroke-width:0.8;" x="426.176328" xlink:href="#m28446d917d" y="304.44375"/>
      </g>
     </g>
     <g id="text_10">
      <!-- 100 -->
      <g transform="translate(416.632578 319.042187)scale(0.1 -0.1)">
       <use xlink:href="#DejaVuSans-49"/>
       <use x="63.623047" xlink:href="#DejaVuSans-48"/>
       <use x="127.246094" xlink:href="#DejaVuSans-48"/>
      </g>
     </g>
    </g>
    <g id="text_11">
     <!-- Number of rectangles -->
     <defs>
      <path d="M 9.8125 72.90625 
L 23.09375 72.90625 
L 55.421875 11.921875 
L 55.421875 72.90625 
L 64.984375 72.90625 
L 64.984375 0 
L 51.703125 0 
L 19.390625 60.984375 
L 19.390625 0 
L 9.8125 0 
z
" id="DejaVuSans-78"/>
      <path d="M 8.5 21.578125 
L 8.5 54.6875 
L 17.484375 54.6875 
L 17.484375 21.921875 
Q 17.484375 14.15625 20.5 10.265625 
Q 23.53125 6.390625 29.59375 6.390625 
Q 36.859375 6.390625 41.078125 11.03125 
Q 45.3125 15.671875 45.3125 23.6875 
L 45.3125 54.6875 
L 54.296875 54.6875 
L 54.296875 0 
L 45.3125 0 
L 45.3125 8.40625 
Q 42.046875 3.421875 37.71875 1 
Q 33.40625 -1.421875 27.6875 -1.421875 
Q 18.265625 -1.421875 13.375 4.4375 
Q 8.5 10.296875 8.5 21.578125 
z
M 31.109375 56 
z
" id="DejaVuSans-117"/>
      <path d="M 52 44.1875 
Q 55.375 50.25 60.0625 53.125 
Q 64.75 56 71.09375 56 
Q 79.640625 56 84.28125 50.015625 
Q 88.921875 44.046875 88.921875 33.015625 
L 88.921875 0 
L 79.890625 0 
L 79.890625 32.71875 
Q 79.890625 40.578125 77.09375 44.375 
Q 74.3125 48.1875 68.609375 48.1875 
Q 61.625 48.1875 57.5625 43.546875 
Q 53.515625 38.921875 53.515625 30.90625 
L 53.515625 0 
L 44.484375 0 
L 44.484375 32.71875 
Q 44.484375 40.625 41.703125 44.40625 
Q 38.921875 48.1875 33.109375 48.1875 
Q 26.21875 48.1875 22.15625 43.53125 
Q 18.109375 38.875 18.109375 30.90625 
L 18.109375 0 
L 9.078125 0 
L 9.078125 54.6875 
L 18.109375 54.6875 
L 18.109375 46.1875 
Q 21.1875 51.21875 25.484375 53.609375 
Q 29.78125 56 35.6875 56 
Q 41.65625 56 45.828125 52.96875 
Q 50 49.953125 52 44.1875 
z
" id="DejaVuSans-109"/>
      <path d="M 48.6875 27.296875 
Q 48.6875 37.203125 44.609375 42.84375 
Q 40.53125 48.484375 33.40625 48.484375 
Q 26.265625 48.484375 22.1875 42.84375 
Q 18.109375 37.203125 18.109375 27.296875 
Q 18.109375 17.390625 22.1875 11.75 
Q 26.265625 6.109375 33.40625 6.109375 
Q 40.53125 6.109375 44.609375 11.75 
Q 48.6875 17.390625 48.6875 27.296875 
z
M 18.109375 46.390625 
Q 20.953125 51.265625 25.265625 53.625 
Q 29.59375 56 35.59375 56 
Q 45.5625 56 51.78125 48.09375 
Q 58.015625 40.1875 58.015625 27.296875 
Q 58.015625 14.40625 51.78125 6.484375 
Q 45.5625 -1.421875 35.59375 -1.421875 
Q 29.59375 -1.421875 25.265625 0.953125 
Q 20.953125 3.328125 18.109375 8.203125 
L 18.109375 0 
L 9.078125 0 
L 9.078125 75.984375 
L 18.109375 75.984375 
z
" id="DejaVuSans-98"/>
      <path d="M 56.203125 29.59375 
L 56.203125 25.203125 
L 14.890625 25.203125 
Q 15.484375 15.921875 20.484375 11.0625 
Q 25.484375 6.203125 34.421875 6.203125 
Q 39.59375 6.203125 44.453125 7.46875 
Q 49.3125 8.734375 54.109375 11.28125 
L 54.109375 2.78125 
Q 49.265625 0.734375 44.1875 -0.34375 
Q 39.109375 -1.421875 33.890625 -1.421875 
Q 20.796875 -1.421875 13.15625 6.1875 
Q 5.515625 13.8125 5.515625 26.8125 
Q 5.515625 40.234375 12.765625 48.109375 
Q 20.015625 56 32.328125 56 
Q 43.359375 56 49.78125 48.890625 
Q 56.203125 41.796875 56.203125 29.59375 
z
M 47.21875 32.234375 
Q 47.125 39.59375 43.09375 43.984375 
Q 39.0625 48.390625 32.421875 48.390625 
Q 24.90625 48.390625 20.390625 44.140625 
Q 15.875 39.890625 15.1875 32.171875 
z
" id="DejaVuSans-101"/>
      <path d="M 41.109375 46.296875 
Q 39.59375 47.171875 37.8125 47.578125 
Q 36.03125 48 33.890625 48 
Q 26.265625 48 22.1875 43.046875 
Q 18.109375 38.09375 18.109375 28.8125 
L 18.109375 0 
L 9.078125 0 
L 9.078125 54.6875 
L 18.109375 54.6875 
L 18.109375 46.1875 
Q 20.953125 51.171875 25.484375 53.578125 
Q 30.03125 56 36.53125 56 
Q 37.453125 56 38.578125 55.875 
Q 39.703125 55.765625 41.0625 55.515625 
z
" id="DejaVuSans-114"/>
      <path id="DejaVuSans-32"/>
      <path d="M 30.609375 48.390625 
Q 23.390625 48.390625 19.1875 42.75 
Q 14.984375 37.109375 14.984375 27.296875 
Q 14.984375 17.484375 19.15625 11.84375 
Q 23.34375 6.203125 30.609375 6.203125 
Q 37.796875 6.203125 41.984375 11.859375 
Q 46.1875 17.53125 46.1875 27.296875 
Q 46.1875 37.015625 41.984375 42.703125 
Q 37.796875 48.390625 30.609375 48.390625 
z
M 30.609375 56 
Q 42.328125 56 49.015625 48.375 
Q 55.71875 40.765625 55.71875 27.296875 
Q 55.71875 13.875 49.015625 6.21875 
Q 42.328125 -1.421875 30.609375 -1.421875 
Q 18.84375 -1.421875 12.171875 6.21875 
Q 5.515625 13.875 5.515625 27.296875 
Q 5.515625 40.765625 12.171875 48.375 
Q 18.84375 56 30.609375 56 
z
" id="DejaVuSans-111"/>
      <path d="M 37.109375 75.984375 
L 37.109375 68.5 
L 28.515625 68.5 
Q 23.6875 68.5 21.796875 66.546875 
Q 19.921875 64.59375 19.921875 59.515625 
L 19.921875 54.6875 
L 34.71875 54.6875 
L 34.71875 47.703125 
L 19.921875 47.703125 
L 19.921875 0 
L 10.890625 0 
L 10.890625 47.703125 
L 2.296875 47.703125 
L 2.296875 54.6875 
L 10.890625 54.6875 
L 10.890625 58.5 
Q 10.890625 67.625 15.140625 71.796875 
Q 19.390625 75.984375 28.609375 75.984375 
z
" id="DejaVuSans-102"/>
      <path d="M 48.78125 52.59375 
L 48.78125 44.1875 
Q 44.96875 46.296875 41.140625 47.34375 
Q 37.3125 48.390625 33.40625 48.390625 
Q 24.65625 48.390625 19.8125 42.84375 
Q 14.984375 37.3125 14.984375 27.296875 
Q 14.984375 17.28125 19.8125 11.734375 
Q 24.65625 6.203125 33.40625 6.203125 
Q 37.3125 6.203125 41.140625 7.25 
Q 44.96875 8.296875 48.78125 10.40625 
L 48.78125 2.09375 
Q 45.015625 0.34375 40.984375 -0.53125 
Q 36.96875 -1.421875 32.421875 -1.421875 
Q 20.0625 -1.421875 12.78125 6.34375 
Q 5.515625 14.109375 5.515625 27.296875 
Q 5.515625 40.671875 12.859375 48.328125 
Q 20.21875 56 33.015625 56 
Q 37.15625 56 41.109375 55.140625 
Q 45.0625 54.296875 48.78125 52.59375 
z
" id="DejaVuSans-99"/>
      <path d="M 18.3125 70.21875 
L 18.3125 54.6875 
L 36.8125 54.6875 
L 36.8125 47.703125 
L 18.3125 47.703125 
L 18.3125 18.015625 
Q 18.3125 11.328125 20.140625 9.421875 
Q 21.96875 7.515625 27.59375 7.515625 
L 36.8125 7.515625 
L 36.8125 0 
L 27.59375 0 
Q 17.1875 0 13.234375 3.875 
Q 9.28125 7.765625 9.28125 18.015625 
L 9.28125 47.703125 
L 2.6875 47.703125 
L 2.6875 54.6875 
L 9.28125 54.6875 
L 9.28125 70.21875 
z
" id="DejaVuSans-116"/>
      <path d="M 34.28125 27.484375 
Q 23.390625 27.484375 19.1875 25 
Q 14.984375 22.515625 14.984375 16.5 
Q 14.984375 11.71875 18.140625 8.90625 
Q 21.296875 6.109375 26.703125 6.109375 
Q 34.1875 6.109375 38.703125 11.40625 
Q 43.21875 16.703125 43.21875 25.484375 
L 43.21875 27.484375 
z
M 52.203125 31.203125 
L 52.203125 0 
L 43.21875 0 
L 43.21875 8.296875 
Q 40.140625 3.328125 35.546875 0.953125 
Q 30.953125 -1.421875 24.3125 -1.421875 
Q 15.921875 -1.421875 10.953125 3.296875 
Q 6 8.015625 6 15.921875 
Q 6 25.140625 12.171875 29.828125 
Q 18.359375 34.515625 30.609375 34.515625 
L 43.21875 34.515625 
L 43.21875 35.40625 
Q 43.21875 41.609375 39.140625 45 
Q 35.0625 48.390625 27.6875 48.390625 
Q 23 48.390625 18.546875 47.265625 
Q 14.109375 46.140625 10.015625 43.890625 
L 10.015625 52.203125 
Q 14.9375 54.109375 19.578125 55.046875 
Q 24.21875 56 28.609375 56 
Q 40.484375 56 46.34375 49.84375 
Q 52.203125 43.703125 52.203125 31.203125 
z
" id="DejaVuSans-97"/>
      <path d="M 54.890625 33.015625 
L 54.890625 0 
L 45.90625 0 
L 45.90625 32.71875 
Q 45.90625 40.484375 42.875 44.328125 
Q 39.84375 48.1875 33.796875 48.1875 
Q 26.515625 48.1875 22.3125 43.546875 
Q 18.109375 38.921875 18.109375 30.90625 
L 18.109375 0 
L 9.078125 0 
L 9.078125 54.6875 
L 18.109375 54.6875 
L 18.109375 46.1875 
Q 21.34375 51.125 25.703125 53.5625 
Q 30.078125 56 35.796875 56 
Q 45.21875 56 50.046875 50.171875 
Q 54.890625 44.34375 54.890625 33.015625 
z
" id="DejaVuSans-110"/>
      <path d="M 45.40625 27.984375 
Q 45.40625 37.75 41.375 43.109375 
Q 37.359375 48.484375 30.078125 48.484375 
Q 22.859375 48.484375 18.828125 43.109375 
Q 14.796875 37.75 14.796875 27.984375 
Q 14.796875 18.265625 18.828125 12.890625 
Q 22.859375 7.515625 30.078125 7.515625 
Q 37.359375 7.515625 41.375 12.890625 
Q 45.40625 18.265625 45.40625 27.984375 
z
M 54.390625 6.78125 
Q 54.390625 -7.171875 48.1875 -13.984375 
Q 42 -20.796875 29.203125 -20.796875 
Q 24.46875 -20.796875 20.265625 -20.09375 
Q 16.0625 -19.390625 12.109375 -17.921875 
L 12.109375 -9.1875 
Q 16.0625 -11.328125 19.921875 -12.34375 
Q 23.78125 -13.375 27.78125 -13.375 
Q 36.625 -13.375 41.015625 -8.765625 
Q 45.40625 -4.15625 45.40625 5.171875 
L 45.40625 9.625 
Q 42.625 4.78125 38.28125 2.390625 
Q 33.9375 0 27.875 0 
Q 17.828125 0 11.671875 7.65625 
Q 5.515625 15.328125 5.515625 27.984375 
Q 5.515625 40.671875 11.671875 48.328125 
Q 17.828125 56 27.875 56 
Q 33.9375 56 38.28125 53.609375 
Q 42.625 51.21875 45.40625 46.390625 
L 45.40625 54.6875 
L 54.390625 54.6875 
z
" id="DejaVuSans-103"/>
      <path d="M 9.421875 75.984375 
L 18.40625 75.984375 
L 18.40625 0 
L 9.421875 0 
z
" id="DejaVuSans-108"/>
      <path d="M 44.28125 53.078125 
L 44.28125 44.578125 
Q 40.484375 46.53125 36.375 47.5 
Q 32.28125 48.484375 27.875 48.484375 
Q 21.1875 48.484375 17.84375 46.4375 
Q 14.5 44.390625 14.5 40.28125 
Q 14.5 37.15625 16.890625 35.375 
Q 19.28125 33.59375 26.515625 31.984375 
L 29.59375 31.296875 
Q 39.15625 29.25 43.1875 25.515625 
Q 47.21875 21.78125 47.21875 15.09375 
Q 47.21875 7.46875 41.1875 3.015625 
Q 35.15625 -1.421875 24.609375 -1.421875 
Q 20.21875 -1.421875 15.453125 -0.5625 
Q 10.6875 0.296875 5.421875 2 
L 5.421875 11.28125 
Q 10.40625 8.6875 15.234375 7.390625 
Q 20.0625 6.109375 24.8125 6.109375 
Q 31.15625 6.109375 34.5625 8.28125 
Q 37.984375 10.453125 37.984375 14.40625 
Q 37.984375 18.0625 35.515625 20.015625 
Q 33.0625 21.96875 24.703125 23.78125 
L 21.578125 24.515625 
Q 13.234375 26.265625 9.515625 29.90625 
Q 5.8125 33.546875 5.8125 39.890625 
Q 5.8125 47.609375 11.28125 51.796875 
Q 16.75 56 26.8125 56 
Q 31.78125 56 36.171875 55.265625 
Q 40.578125 54.546875 44.28125 53.078125 
z
" id="DejaVuSans-115"/>
     </defs>
     <g transform="translate(188.8625 332.720312)scale(0.1 -0.1)">
      <use xlink:href="#DejaVuSans-78"/>
      <use x="74.804688" xlink:href="#DejaVuSans-117"/>
      <use x="138.183594" xlink:href="#DejaVuSans-109"/>
      <use x="235.595703" xlink:href="#DejaVuSans-98"/>
      <use x="299.072266" xlink:href="#DejaVuSans-101"/>
      <use x="360.595703" xlink:href="#DejaVuSans-114"/>
      <use x="401.708984" xlink:href="#DejaVuSans-32"/>
      <use x="433.496094" xlink:href="#DejaVuSans-111"/>
      <use x="494.677734" xlink:href="#DejaVuSans-102"/>
      <use x="529.882812" xlink:href="#DejaVuSans-32"/>
      <use x="561.669922" xlink:href="#DejaVuSans-114"/>
      <use x="602.751953" xlink:href="#DejaVuSans-101"/>
      <use x="664.275391" xlink:href="#DejaVuSans-99"/>
      <use x="719.255859" xlink:href="#DejaVuSans-116"/>
      <use x="758.464844" xlink:href="#DejaVuSans-97"/>
      <use x="819.744141" xlink:href="#DejaVuSans-110"/>
      <use x="883.123047" xlink:href="#DejaVuSans-103"/>
      <use x="946.599609" xlink:href="#DejaVuSans-108"/>
      <use x="974.382812" xlink:href="#DejaVuSans-101"/>
      <use x="1035.90625" xlink:href="#DejaVuSans-115"/>
     </g>
    </g>
   </g>
   <g id="matplotlib.axis_2">
    <g id="ytick_1">
     <g id="line2d_11">
      <path clip-path="url(#pc170ba237d)" d="M 40.026562 288.337405 
L 446.5 288.337405 
" style="fill:none;stroke:#b0b0b0;stroke-linecap:square;stroke-width:0.8;"/>
     </g>
     <g id="line2d_12">
      <defs>
       <path d="M 0 0 
L -3.5 0 
" id="m32e34b32da" style="stroke:#000000;stroke-width:0.8;"/>
      </defs>
      <g>
       <use style="stroke:#000000;stroke-width:0.8;" x="40.026562" xlink:href="#m32e34b32da" y="288.337405"/>
      </g>
     </g>
     <g id="text_12">
      <!-- 70% -->
      <defs>
       <path d="M 72.703125 32.078125 
Q 68.453125 32.078125 66.03125 28.46875 
Q 63.625 24.859375 63.625 18.40625 
Q 63.625 12.0625 66.03125 8.421875 
Q 68.453125 4.78125 72.703125 4.78125 
Q 76.859375 4.78125 79.265625 8.421875 
Q 81.6875 12.0625 81.6875 18.40625 
Q 81.6875 24.8125 79.265625 28.4375 
Q 76.859375 32.078125 72.703125 32.078125 
z
M 72.703125 38.28125 
Q 80.421875 38.28125 84.953125 32.90625 
Q 89.5 27.546875 89.5 18.40625 
Q 89.5 9.28125 84.9375 3.921875 
Q 80.375 -1.421875 72.703125 -1.421875 
Q 64.890625 -1.421875 60.34375 3.921875 
Q 55.8125 9.28125 55.8125 18.40625 
Q 55.8125 27.59375 60.375 32.9375 
Q 64.9375 38.28125 72.703125 38.28125 
z
M 22.3125 68.015625 
Q 18.109375 68.015625 15.6875 64.375 
Q 13.28125 60.75 13.28125 54.390625 
Q 13.28125 47.953125 15.671875 44.328125 
Q 18.0625 40.71875 22.3125 40.71875 
Q 26.5625 40.71875 28.96875 44.328125 
Q 31.390625 47.953125 31.390625 54.390625 
Q 31.390625 60.6875 28.953125 64.34375 
Q 26.515625 68.015625 22.3125 68.015625 
z
M 66.40625 74.21875 
L 74.21875 74.21875 
L 28.609375 -1.421875 
L 20.796875 -1.421875 
z
M 22.3125 74.21875 
Q 30.03125 74.21875 34.609375 68.875 
Q 39.203125 63.53125 39.203125 54.390625 
Q 39.203125 45.171875 34.640625 39.84375 
Q 30.078125 34.515625 22.3125 34.515625 
Q 14.546875 34.515625 10.03125 39.859375 
Q 5.515625 45.21875 5.515625 54.390625 
Q 5.515625 63.484375 10.046875 68.84375 
Q 14.59375 74.21875 22.3125 74.21875 
z
" id="DejaVuSans-37"/>
      </defs>
      <g transform="translate(10.8 292.136624)scale(0.1 -0.1)">
       <use xlink:href="#DejaVuSans-55"/>
       <use x="63.623047" xlink:href="#DejaVuSans-48"/>
       <use x="127.246094" xlink:href="#DejaVuSans-37"/>
      </g>
     </g>
    </g>
    <g id="ytick_2">
     <g id="line2d_13">
      <path clip-path="url(#pc170ba237d)" d="M 40.026562 243.697943 
L 446.5 243.697943 
" style="fill:none;stroke:#b0b0b0;stroke-linecap:square;stroke-width:0.8;"/>
     </g>
     <g id="line2d_14">
      <g>
       <use style="stroke:#000000;stroke-width:0.8;" x="40.026562" xlink:href="#m32e34b32da" y="243.697943"/>
      </g>
     </g>
     <g id="text_13">
      <!-- 75% -->
      <g transform="translate(10.8 247.497162)scale(0.1 -0.1)">
       <use xlink:href="#DejaVuSans-55"/>
       <use x="63.623047" xlink:href="#DejaVuSans-53"/>
       <use x="127.246094" xlink:href="#DejaVuSans-37"/>
      </g>
     </g>
    </g>
    <g id="ytick_3">
     <g id="line2d_15">
      <path clip-path="url(#pc170ba237d)" d="M 40.026562 199.058481 
L 446.5 199.058481 
" style="fill:none;stroke:#b0b0b0;stroke-linecap:square;stroke-width:0.8;"/>
     </g>
     <g id="line2d_16">
      <g>
       <use style="stroke:#000000;stroke-width:0.8;" x="40.026562" xlink:href="#m32e34b32da" y="199.058481"/>
      </g>
     </g>
     <g id="text_14">
      <!-- 80% -->
      <g transform="translate(10.8 202.857699)scale(0.1 -0.1)">
       <use xlink:href="#DejaVuSans-56"/>
       <use x="63.623047" xlink:href="#DejaVuSans-48"/>
       <use x="127.246094" xlink:href="#DejaVuSans-37"/>
      </g>
     </g>
    </g>
    <g id="ytick_4">
     <g id="line2d_17">
      <path clip-path="url(#pc170ba237d)" d="M 40.026562 154.419018 
L 446.5 154.419018 
" style="fill:none;stroke:#b0b0b0;stroke-linecap:square;stroke-width:0.8;"/>
     </g>
     <g id="line2d_18">
      <g>
       <use style="stroke:#000000;stroke-width:0.8;" x="40.026562" xlink:href="#m32e34b32da" y="154.419018"/>
      </g>
     </g>
     <g id="text_15">
      <!-- 85% -->
      <g transform="translate(10.8 158.218237)scale(0.1 -0.1)">
       <use xlink:href="#DejaVuSans-56"/>
       <use x="63.623047" xlink:href="#DejaVuSans-53"/>
       <use x="127.246094" xlink:href="#DejaVuSans-37"/>
      </g>
     </g>
    </g>
    <g id="ytick_5">
     <g id="line2d_19">
      <path clip-path="url(#pc170ba237d)" d="M 40.026562 109.779556 
L 446.5 109.779556 
" style="fill:none;stroke:#b0b0b0;stroke-linecap:square;stroke-width:0.8;"/>
     </g>
     <g id="line2d_20">
      <g>
       <use style="stroke:#000000;stroke-width:0.8;" x="40.026562" xlink:href="#m32e34b32da" y="109.779556"/>
      </g>
     </g>
     <g id="text_16">
      <!-- 90% -->
      <g transform="translate(10.8 113.578775)scale(0.1 -0.1)">
       <use xlink:href="#DejaVuSans-57"/>
       <use x="63.623047" xlink:href="#DejaVuSans-48"/>
       <use x="127.246094" xlink:href="#DejaVuSans-37"/>
      </g>
     </g>
    </g>
    <g id="ytick_6">
     <g id="line2d_21">
      <path clip-path="url(#pc170ba237d)" d="M 40.026562 65.140094 
L 446.5 65.140094 
" style="fill:none;stroke:#b0b0b0;stroke-linecap:square;stroke-width:0.8;"/>
     </g>
     <g id="line2d_22">
      <g>
       <use style="stroke:#000000;stroke-width:0.8;" x="40.026562" xlink:href="#m32e34b32da" y="65.140094"/>
      </g>
     </g>
     <g id="text_17">
      <!-- 95% -->
      <g transform="translate(10.8 68.939312)scale(0.1 -0.1)">
       <use xlink:href="#DejaVuSans-57"/>
       <use x="63.623047" xlink:href="#DejaVuSans-53"/>
       <use x="127.246094" xlink:href="#DejaVuSans-37"/>
      </g>
     </g>
    </g>
    <g id="ytick_7">
     <g id="line2d_23">
      <defs>
       <path d="M 0 0 
L -2 0 
" id="m66c6a80fb4" style="stroke:#000000;stroke-width:0.6;"/>
      </defs>
      <g>
       <use style="stroke:#000000;stroke-width:0.6;" x="40.026562" xlink:href="#m66c6a80fb4" y="297.265298"/>
      </g>
     </g>
    </g>
    <g id="ytick_8">
     <g id="line2d_24">
      <g>
       <use style="stroke:#000000;stroke-width:0.6;" x="40.026562" xlink:href="#m66c6a80fb4" y="288.337405"/>
      </g>
     </g>
    </g>
    <g id="ytick_9">
     <g id="line2d_25">
      <g>
       <use style="stroke:#000000;stroke-width:0.6;" x="40.026562" xlink:href="#m66c6a80fb4" y="279.409513"/>
      </g>
     </g>
    </g>
    <g id="ytick_10">
     <g id="line2d_26">
      <g>
       <use style="stroke:#000000;stroke-width:0.6;" x="40.026562" xlink:href="#m66c6a80fb4" y="270.48162"/>
      </g>
     </g>
    </g>
    <g id="ytick_11">
     <g id="line2d_27">
      <g>
       <use style="stroke:#000000;stroke-width:0.6;" x="40.026562" xlink:href="#m66c6a80fb4" y="261.553728"/>
      </g>
     </g>
    </g>
    <g id="ytick_12">
     <g id="line2d_28">
      <g>
       <use style="stroke:#000000;stroke-width:0.6;" x="40.026562" xlink:href="#m66c6a80fb4" y="252.625835"/>
      </g>
     </g>
    </g>
    <g id="ytick_13">
     <g id="line2d_29">
      <g>
       <use style="stroke:#000000;stroke-width:0.6;" x="40.026562" xlink:href="#m66c6a80fb4" y="243.697943"/>
      </g>
     </g>
    </g>
    <g id="ytick_14">
     <g id="line2d_30">
      <g>
       <use style="stroke:#000000;stroke-width:0.6;" x="40.026562" xlink:href="#m66c6a80fb4" y="234.77005"/>
      </g>
     </g>
    </g>
    <g id="ytick_15">
     <g id="line2d_31">
      <g>
       <use style="stroke:#000000;stroke-width:0.6;" x="40.026562" xlink:href="#m66c6a80fb4" y="225.842158"/>
      </g>
     </g>
    </g>
    <g id="ytick_16">
     <g id="line2d_32">
      <g>
       <use style="stroke:#000000;stroke-width:0.6;" x="40.026562" xlink:href="#m66c6a80fb4" y="216.914266"/>
      </g>
     </g>
    </g>
    <g id="ytick_17">
     <g id="line2d_33">
      <g>
       <use style="stroke:#000000;stroke-width:0.6;" x="40.026562" xlink:href="#m66c6a80fb4" y="207.986373"/>
      </g>
     </g>
    </g>
    <g id="ytick_18">
     <g id="line2d_34">
      <g>
       <use style="stroke:#000000;stroke-width:0.6;" x="40.026562" xlink:href="#m66c6a80fb4" y="199.058481"/>
      </g>
     </g>
    </g>
    <g id="ytick_19">
     <g id="line2d_35">
      <g>
       <use style="stroke:#000000;stroke-width:0.6;" x="40.026562" xlink:href="#m66c6a80fb4" y="190.130588"/>
      </g>
     </g>
    </g>
    <g id="ytick_20">
     <g id="line2d_36">
      <g>
       <use style="stroke:#000000;stroke-width:0.6;" x="40.026562" xlink:href="#m66c6a80fb4" y="181.202696"/>
      </g>
     </g>
    </g>
    <g id="ytick_21">
     <g id="line2d_37">
      <g>
       <use style="stroke:#000000;stroke-width:0.6;" x="40.026562" xlink:href="#m66c6a80fb4" y="172.274803"/>
      </g>
     </g>
    </g>
    <g id="ytick_22">
     <g id="line2d_38">
      <g>
       <use style="stroke:#000000;stroke-width:0.6;" x="40.026562" xlink:href="#m66c6a80fb4" y="163.346911"/>
      </g>
     </g>
    </g>
    <g id="ytick_23">
     <g id="line2d_39">
      <g>
       <use style="stroke:#000000;stroke-width:0.6;" x="40.026562" xlink:href="#m66c6a80fb4" y="154.419018"/>
      </g>
     </g>
    </g>
    <g id="ytick_24">
     <g id="line2d_40">
      <g>
       <use style="stroke:#000000;stroke-width:0.6;" x="40.026562" xlink:href="#m66c6a80fb4" y="145.491126"/>
      </g>
     </g>
    </g>
    <g id="ytick_25">
     <g id="line2d_41">
      <g>
       <use style="stroke:#000000;stroke-width:0.6;" x="40.026562" xlink:href="#m66c6a80fb4" y="136.563233"/>
      </g>
     </g>
    </g>
    <g id="ytick_26">
     <g id="line2d_42">
      <g>
       <use style="stroke:#000000;stroke-width:0.6;" x="40.026562" xlink:href="#m66c6a80fb4" y="127.635341"/>
      </g>
     </g>
    </g>
    <g id="ytick_27">
     <g id="line2d_43">
      <g>
       <use style="stroke:#000000;stroke-width:0.6;" x="40.026562" xlink:href="#m66c6a80fb4" y="118.707448"/>
      </g>
     </g>
    </g>
    <g id="ytick_28">
     <g id="line2d_44">
      <g>
       <use style="stroke:#000000;stroke-width:0.6;" x="40.026562" xlink:href="#m66c6a80fb4" y="109.779556"/>
      </g>
     </g>
    </g>
    <g id="ytick_29">
     <g id="line2d_45">
      <g>
       <use style="stroke:#000000;stroke-width:0.6;" x="40.026562" xlink:href="#m66c6a80fb4" y="100.851663"/>
      </g>
     </g>
    </g>
    <g id="ytick_30">
     <g id="line2d_46">
      <g>
       <use style="stroke:#000000;stroke-width:0.6;" x="40.026562" xlink:href="#m66c6a80fb4" y="91.923771"/>
      </g>
     </g>
    </g>
    <g id="ytick_31">
     <g id="line2d_47">
      <g>
       <use style="stroke:#000000;stroke-width:0.6;" x="40.026562" xlink:href="#m66c6a80fb4" y="82.995879"/>
      </g>
     </g>
    </g>
    <g id="ytick_32">
     <g id="line2d_48">
      <g>
       <use style="stroke:#000000;stroke-width:0.6;" x="40.026562" xlink:href="#m66c6a80fb4" y="74.067986"/>
      </g>
     </g>
    </g>
    <g id="ytick_33">
     <g id="line2d_49">
      <g>
       <use style="stroke:#000000;stroke-width:0.6;" x="40.026562" xlink:href="#m66c6a80fb4" y="65.140094"/>
      </g>
     </g>
    </g>
    <g id="ytick_34">
     <g id="line2d_50">
      <g>
       <use style="stroke:#000000;stroke-width:0.6;" x="40.026562" xlink:href="#m66c6a80fb4" y="56.212201"/>
      </g>
     </g>
    </g>
    <g id="ytick_35">
     <g id="line2d_51">
      <g>
       <use style="stroke:#000000;stroke-width:0.6;" x="40.026562" xlink:href="#m66c6a80fb4" y="47.284309"/>
      </g>
     </g>
    </g>
    <g id="ytick_36">
     <g id="line2d_52">
      <g>
       <use style="stroke:#000000;stroke-width:0.6;" x="40.026562" xlink:href="#m66c6a80fb4" y="38.356416"/>
      </g>
     </g>
    </g>
    <g id="ytick_37">
     <g id="line2d_53">
      <g>
       <use style="stroke:#000000;stroke-width:0.6;" x="40.026562" xlink:href="#m66c6a80fb4" y="29.428524"/>
      </g>
     </g>
    </g>
   </g>
   <g id="line2d_54">
    <path clip-path="url(#pc170ba237d)" d="M 60.350234 109.690538 
L 60.350234 146.529627 
" style="fill:none;stroke:#000000;stroke-linecap:square;"/>
   </g>
   <g id="line2d_55">
    <path clip-path="url(#pc170ba237d)" d="M 60.350234 85.100165 
L 60.350234 48.670223 
" style="fill:none;stroke:#000000;stroke-linecap:square;"/>
   </g>
   <g id="line2d_56">
    <path clip-path="url(#pc170ba237d)" d="M 55.269316 146.529627 
L 65.431152 146.529627 
" style="fill:none;stroke:#000000;stroke-linecap:square;"/>
   </g>
   <g id="line2d_57">
    <path clip-path="url(#pc170ba237d)" d="M 55.269316 48.670223 
L 65.431152 48.670223 
" style="fill:none;stroke:#000000;stroke-linecap:square;"/>
   </g>
   <g id="line2d_58">
    <defs>
     <path d="M 0 1.5 
C 0.397805 1.5 0.77937 1.341951 1.06066 1.06066 
C 1.341951 0.77937 1.5 0.397805 1.5 0 
C 1.5 -0.397805 1.341951 -0.77937 1.06066 -1.06066 
C 0.77937 -1.341951 0.397805 -1.5 0 -1.5 
C -0.397805 -1.5 -0.77937 -1.341951 -1.06066 -1.06066 
C -1.341951 -0.77937 -1.5 -0.397805 -1.5 0 
C -1.5 0.397805 -1.341951 0.77937 -1.06066 1.06066 
C -0.77937 1.341951 -0.397805 1.5 0 1.5 
z
" id="m9d24ca3b65" style="stroke:#000000;"/>
    </defs>
    <g clip-path="url(#pc170ba237d)">
     <use style="fill-opacity:0;stroke:#000000;" x="60.350234" xlink:href="#m9d24ca3b65" y="153.976833"/>
     <use style="fill-opacity:0;stroke:#000000;" x="60.350234" xlink:href="#m9d24ca3b65" y="155.439382"/>
     <use style="fill-opacity:0;stroke:#000000;" x="60.350234" xlink:href="#m9d24ca3b65" y="178.500138"/>
     <use style="fill-opacity:0;stroke:#000000;" x="60.350234" xlink:href="#m9d24ca3b65" y="146.644746"/>
     <use style="fill-opacity:0;stroke:#000000;" x="60.350234" xlink:href="#m9d24ca3b65" y="159.447218"/>
     <use style="fill-opacity:0;stroke:#000000;" x="60.350234" xlink:href="#m9d24ca3b65" y="210.220811"/>
     <use style="fill-opacity:0;stroke:#000000;" x="60.350234" xlink:href="#m9d24ca3b65" y="195.04736"/>
     <use style="fill-opacity:0;stroke:#000000;" x="60.350234" xlink:href="#m9d24ca3b65" y="151.622383"/>
     <use style="fill-opacity:0;stroke:#000000;" x="60.350234" xlink:href="#m9d24ca3b65" y="151.17948"/>
     <use style="fill-opacity:0;stroke:#000000;" x="60.350234" xlink:href="#m9d24ca3b65" y="147.808807"/>
     <use style="fill-opacity:0;stroke:#000000;" x="60.350234" xlink:href="#m9d24ca3b65" y="147.923474"/>
     <use style="fill-opacity:0;stroke:#000000;" x="60.350234" xlink:href="#m9d24ca3b65" y="167.678109"/>
     <use style="fill-opacity:0;stroke:#000000;" x="60.350234" xlink:href="#m9d24ca3b65" y="160.744802"/>
     <use style="fill-opacity:0;stroke:#000000;" x="60.350234" xlink:href="#m9d24ca3b65" y="160.535277"/>
     <use style="fill-opacity:0;stroke:#000000;" x="60.350234" xlink:href="#m9d24ca3b65" y="148.730242"/>
     <use style="fill-opacity:0;stroke:#000000;" x="60.350234" xlink:href="#m9d24ca3b65" y="147.993738"/>
     <use style="fill-opacity:0;stroke:#000000;" x="60.350234" xlink:href="#m9d24ca3b65" y="148.435917"/>
     <use style="fill-opacity:0;stroke:#000000;" x="60.350234" xlink:href="#m9d24ca3b65" y="152.587117"/>
     <use style="fill-opacity:0;stroke:#000000;" x="60.350234" xlink:href="#m9d24ca3b65" y="151.228048"/>
     <use style="fill-opacity:0;stroke:#000000;" x="60.350234" xlink:href="#m9d24ca3b65" y="155.88753"/>
     <use style="fill-opacity:0;stroke:#000000;" x="60.350234" xlink:href="#m9d24ca3b65" y="148.628875"/>
     <use style="fill-opacity:0;stroke:#000000;" x="60.350234" xlink:href="#m9d24ca3b65" y="154.511852"/>
     <use style="fill-opacity:0;stroke:#000000;" x="60.350234" xlink:href="#m9d24ca3b65" y="176.108962"/>
     <use style="fill-opacity:0;stroke:#000000;" x="60.350234" xlink:href="#m9d24ca3b65" y="153.363498"/>
     <use style="fill-opacity:0;stroke:#000000;" x="60.350234" xlink:href="#m9d24ca3b65" y="150.926355"/>
     <use style="fill-opacity:0;stroke:#000000;" x="60.350234" xlink:href="#m9d24ca3b65" y="147.424401"/>
     <use style="fill-opacity:0;stroke:#000000;" x="60.350234" xlink:href="#m9d24ca3b65" y="150.503248"/>
     <use style="fill-opacity:0;stroke:#000000;" x="60.350234" xlink:href="#m9d24ca3b65" y="152.390942"/>
     <use style="fill-opacity:0;stroke:#000000;" x="60.350234" xlink:href="#m9d24ca3b65" y="146.935429"/>
     <use style="fill-opacity:0;stroke:#000000;" x="60.350234" xlink:href="#m9d24ca3b65" y="168.995823"/>
     <use style="fill-opacity:0;stroke:#000000;" x="60.350234" xlink:href="#m9d24ca3b65" y="148.623826"/>
     <use style="fill-opacity:0;stroke:#000000;" x="60.350234" xlink:href="#m9d24ca3b65" y="165.827083"/>
     <use style="fill-opacity:0;stroke:#000000;" x="60.350234" xlink:href="#m9d24ca3b65" y="156.336156"/>
     <use style="fill-opacity:0;stroke:#000000;" x="60.350234" xlink:href="#m9d24ca3b65" y="151.232733"/>
     <use style="fill-opacity:0;stroke:#000000;" x="60.350234" xlink:href="#m9d24ca3b65" y="162.131166"/>
     <use style="fill-opacity:0;stroke:#000000;" x="60.350234" xlink:href="#m9d24ca3b65" y="154.694425"/>
     <use style="fill-opacity:0;stroke:#000000;" x="60.350234" xlink:href="#m9d24ca3b65" y="156.005305"/>
     <use style="fill-opacity:0;stroke:#000000;" x="60.350234" xlink:href="#m9d24ca3b65" y="150.425609"/>
     <use style="fill-opacity:0;stroke:#000000;" x="60.350234" xlink:href="#m9d24ca3b65" y="148.4284"/>
     <use style="fill-opacity:0;stroke:#000000;" x="60.350234" xlink:href="#m9d24ca3b65" y="166.617405"/>
     <use style="fill-opacity:0;stroke:#000000;" x="60.350234" xlink:href="#m9d24ca3b65" y="147.389452"/>
     <use style="fill-opacity:0;stroke:#000000;" x="60.350234" xlink:href="#m9d24ca3b65" y="154.94922"/>
     <use style="fill-opacity:0;stroke:#000000;" x="60.350234" xlink:href="#m9d24ca3b65" y="149.187071"/>
     <use style="fill-opacity:0;stroke:#000000;" x="60.350234" xlink:href="#m9d24ca3b65" y="152.104796"/>
     <use style="fill-opacity:0;stroke:#000000;" x="60.350234" xlink:href="#m9d24ca3b65" y="148.516022"/>
     <use style="fill-opacity:0;stroke:#000000;" x="60.350234" xlink:href="#m9d24ca3b65" y="215.149896"/>
     <use style="fill-opacity:0;stroke:#000000;" x="60.350234" xlink:href="#m9d24ca3b65" y="149.796357"/>
     <use style="fill-opacity:0;stroke:#000000;" x="60.350234" xlink:href="#m9d24ca3b65" y="153.295816"/>
     <use style="fill-opacity:0;stroke:#000000;" x="60.350234" xlink:href="#m9d24ca3b65" y="185.444049"/>
     <use style="fill-opacity:0;stroke:#000000;" x="60.350234" xlink:href="#m9d24ca3b65" y="148.573374"/>
     <use style="fill-opacity:0;stroke:#000000;" x="60.350234" xlink:href="#m9d24ca3b65" y="159.585321"/>
     <use style="fill-opacity:0;stroke:#000000;" x="60.350234" xlink:href="#m9d24ca3b65" y="163.715939"/>
     <use style="fill-opacity:0;stroke:#000000;" x="60.350234" xlink:href="#m9d24ca3b65" y="156.615043"/>
     <use style="fill-opacity:0;stroke:#000000;" x="60.350234" xlink:href="#m9d24ca3b65" y="166.839043"/>
     <use style="fill-opacity:0;stroke:#000000;" x="60.350234" xlink:href="#m9d24ca3b65" y="208.360651"/>
     <use style="fill-opacity:0;stroke:#000000;" x="60.350234" xlink:href="#m9d24ca3b65" y="165.004563"/>
     <use style="fill-opacity:0;stroke:#000000;" x="60.350234" xlink:href="#m9d24ca3b65" y="163.092536"/>
     <use style="fill-opacity:0;stroke:#000000;" x="60.350234" xlink:href="#m9d24ca3b65" y="168.357323"/>
     <use style="fill-opacity:0;stroke:#000000;" x="60.350234" xlink:href="#m9d24ca3b65" y="169.376623"/>
     <use style="fill-opacity:0;stroke:#000000;" x="60.350234" xlink:href="#m9d24ca3b65" y="171.803163"/>
     <use style="fill-opacity:0;stroke:#000000;" x="60.350234" xlink:href="#m9d24ca3b65" y="157.39869"/>
     <use style="fill-opacity:0;stroke:#000000;" x="60.350234" xlink:href="#m9d24ca3b65" y="150.721362"/>
     <use style="fill-opacity:0;stroke:#000000;" x="60.350234" xlink:href="#m9d24ca3b65" y="147.689519"/>
     <use style="fill-opacity:0;stroke:#000000;" x="60.350234" xlink:href="#m9d24ca3b65" y="161.652778"/>
     <use style="fill-opacity:0;stroke:#000000;" x="60.350234" xlink:href="#m9d24ca3b65" y="146.592296"/>
     <use style="fill-opacity:0;stroke:#000000;" x="60.350234" xlink:href="#m9d24ca3b65" y="155.222042"/>
     <use style="fill-opacity:0;stroke:#000000;" x="60.350234" xlink:href="#m9d24ca3b65" y="155.170497"/>
     <use style="fill-opacity:0;stroke:#000000;" x="60.350234" xlink:href="#m9d24ca3b65" y="158.654688"/>
     <use style="fill-opacity:0;stroke:#000000;" x="60.350234" xlink:href="#m9d24ca3b65" y="187.345528"/>
     <use style="fill-opacity:0;stroke:#000000;" x="60.350234" xlink:href="#m9d24ca3b65" y="150.136205"/>
     <use style="fill-opacity:0;stroke:#000000;" x="60.350234" xlink:href="#m9d24ca3b65" y="148.039045"/>
     <use style="fill-opacity:0;stroke:#000000;" x="60.350234" xlink:href="#m9d24ca3b65" y="152.374663"/>
     <use style="fill-opacity:0;stroke:#000000;" x="60.350234" xlink:href="#m9d24ca3b65" y="152.806565"/>
     <use style="fill-opacity:0;stroke:#000000;" x="60.350234" xlink:href="#m9d24ca3b65" y="148.891177"/>
     <use style="fill-opacity:0;stroke:#000000;" x="60.350234" xlink:href="#m9d24ca3b65" y="171.39763"/>
     <use style="fill-opacity:0;stroke:#000000;" x="60.350234" xlink:href="#m9d24ca3b65" y="158.24463"/>
     <use style="fill-opacity:0;stroke:#000000;" x="60.350234" xlink:href="#m9d24ca3b65" y="153.526029"/>
     <use style="fill-opacity:0;stroke:#000000;" x="60.350234" xlink:href="#m9d24ca3b65" y="146.849295"/>
     <use style="fill-opacity:0;stroke:#000000;" x="60.350234" xlink:href="#m9d24ca3b65" y="160.367492"/>
     <use style="fill-opacity:0;stroke:#000000;" x="60.350234" xlink:href="#m9d24ca3b65" y="182.458702"/>
     <use style="fill-opacity:0;stroke:#000000;" x="60.350234" xlink:href="#m9d24ca3b65" y="167.333667"/>
     <use style="fill-opacity:0;stroke:#000000;" x="60.350234" xlink:href="#m9d24ca3b65" y="151.899494"/>
     <use style="fill-opacity:0;stroke:#000000;" x="60.350234" xlink:href="#m9d24ca3b65" y="163.082953"/>
     <use style="fill-opacity:0;stroke:#000000;" x="60.350234" xlink:href="#m9d24ca3b65" y="169.372453"/>
     <use style="fill-opacity:0;stroke:#000000;" x="60.350234" xlink:href="#m9d24ca3b65" y="171.950645"/>
     <use style="fill-opacity:0;stroke:#000000;" x="60.350234" xlink:href="#m9d24ca3b65" y="151.861074"/>
     <use style="fill-opacity:0;stroke:#000000;" x="60.350234" xlink:href="#m9d24ca3b65" y="153.348695"/>
     <use style="fill-opacity:0;stroke:#000000;" x="60.350234" xlink:href="#m9d24ca3b65" y="153.962718"/>
     <use style="fill-opacity:0;stroke:#000000;" x="60.350234" xlink:href="#m9d24ca3b65" y="148.896582"/>
     <use style="fill-opacity:0;stroke:#000000;" x="60.350234" xlink:href="#m9d24ca3b65" y="148.841514"/>
     <use style="fill-opacity:0;stroke:#000000;" x="60.350234" xlink:href="#m9d24ca3b65" y="165.222816"/>
     <use style="fill-opacity:0;stroke:#000000;" x="60.350234" xlink:href="#m9d24ca3b65" y="149.12067"/>
     <use style="fill-opacity:0;stroke:#000000;" x="60.350234" xlink:href="#m9d24ca3b65" y="157.291263"/>
     <use style="fill-opacity:0;stroke:#000000;" x="60.350234" xlink:href="#m9d24ca3b65" y="240.715667"/>
     <use style="fill-opacity:0;stroke:#000000;" x="60.350234" xlink:href="#m9d24ca3b65" y="291.78358"/>
     <use style="fill-opacity:0;stroke:#000000;" x="60.350234" xlink:href="#m9d24ca3b65" y="153.70365"/>
     <use style="fill-opacity:0;stroke:#000000;" x="60.350234" xlink:href="#m9d24ca3b65" y="149.837988"/>
     <use style="fill-opacity:0;stroke:#000000;" x="60.350234" xlink:href="#m9d24ca3b65" y="189.58895"/>
     <use style="fill-opacity:0;stroke:#000000;" x="60.350234" xlink:href="#m9d24ca3b65" y="150.289318"/>
     <use style="fill-opacity:0;stroke:#000000;" x="60.350234" xlink:href="#m9d24ca3b65" y="173.4946"/>
     <use style="fill-opacity:0;stroke:#000000;" x="60.350234" xlink:href="#m9d24ca3b65" y="149.894378"/>
     <use style="fill-opacity:0;stroke:#000000;" x="60.350234" xlink:href="#m9d24ca3b65" y="194.235536"/>
     <use style="fill-opacity:0;stroke:#000000;" x="60.350234" xlink:href="#m9d24ca3b65" y="162.107525"/>
     <use style="fill-opacity:0;stroke:#000000;" x="60.350234" xlink:href="#m9d24ca3b65" y="150.151496"/>
     <use style="fill-opacity:0;stroke:#000000;" x="60.350234" xlink:href="#m9d24ca3b65" y="158.366407"/>
     <use style="fill-opacity:0;stroke:#000000;" x="60.350234" xlink:href="#m9d24ca3b65" y="160.647908"/>
     <use style="fill-opacity:0;stroke:#000000;" x="60.350234" xlink:href="#m9d24ca3b65" y="163.15584"/>
     <use style="fill-opacity:0;stroke:#000000;" x="60.350234" xlink:href="#m9d24ca3b65" y="172.0164"/>
     <use style="fill-opacity:0;stroke:#000000;" x="60.350234" xlink:href="#m9d24ca3b65" y="154.022243"/>
     <use style="fill-opacity:0;stroke:#000000;" x="60.350234" xlink:href="#m9d24ca3b65" y="147.144341"/>
     <use style="fill-opacity:0;stroke:#000000;" x="60.350234" xlink:href="#m9d24ca3b65" y="168.89236"/>
     <use style="fill-opacity:0;stroke:#000000;" x="60.350234" xlink:href="#m9d24ca3b65" y="47.56506"/>
     <use style="fill-opacity:0;stroke:#000000;" x="60.350234" xlink:href="#m9d24ca3b65" y="48.022317"/>
     <use style="fill-opacity:0;stroke:#000000;" x="60.350234" xlink:href="#m9d24ca3b65" y="43.526706"/>
     <use style="fill-opacity:0;stroke:#000000;" x="60.350234" xlink:href="#m9d24ca3b65" y="42.182043"/>
     <use style="fill-opacity:0;stroke:#000000;" x="60.350234" xlink:href="#m9d24ca3b65" y="38.58017"/>
     <use style="fill-opacity:0;stroke:#000000;" x="60.350234" xlink:href="#m9d24ca3b65" y="46.030672"/>
     <use style="fill-opacity:0;stroke:#000000;" x="60.350234" xlink:href="#m9d24ca3b65" y="43.715209"/>
     <use style="fill-opacity:0;stroke:#000000;" x="60.350234" xlink:href="#m9d24ca3b65" y="43.883527"/>
     <use style="fill-opacity:0;stroke:#000000;" x="60.350234" xlink:href="#m9d24ca3b65" y="40.422069"/>
     <use style="fill-opacity:0;stroke:#000000;" x="60.350234" xlink:href="#m9d24ca3b65" y="43.836758"/>
     <use style="fill-opacity:0;stroke:#000000;" x="60.350234" xlink:href="#m9d24ca3b65" y="45.970668"/>
    </g>
   </g>
   <g id="line2d_59">
    <path clip-path="url(#pc170ba237d)" d="M 100.997578 92.353096 
L 100.997578 113.792502 
" style="fill:none;stroke:#000000;stroke-linecap:square;"/>
   </g>
   <g id="line2d_60">
    <path clip-path="url(#pc170ba237d)" d="M 100.997578 78.043178 
L 100.997578 56.611235 
" style="fill:none;stroke:#000000;stroke-linecap:square;"/>
   </g>
   <g id="line2d_61">
    <path clip-path="url(#pc170ba237d)" d="M 95.91666 113.792502 
L 106.078496 113.792502 
" style="fill:none;stroke:#000000;stroke-linecap:square;"/>
   </g>
   <g id="line2d_62">
    <path clip-path="url(#pc170ba237d)" d="M 95.91666 56.611235 
L 106.078496 56.611235 
" style="fill:none;stroke:#000000;stroke-linecap:square;"/>
   </g>
   <g id="line2d_63">
    <g clip-path="url(#pc170ba237d)">
     <use style="fill-opacity:0;stroke:#000000;" x="100.997578" xlink:href="#m9d24ca3b65" y="114.170925"/>
     <use style="fill-opacity:0;stroke:#000000;" x="100.997578" xlink:href="#m9d24ca3b65" y="114.849596"/>
     <use style="fill-opacity:0;stroke:#000000;" x="100.997578" xlink:href="#m9d24ca3b65" y="120.638243"/>
     <use style="fill-opacity:0;stroke:#000000;" x="100.997578" xlink:href="#m9d24ca3b65" y="122.82597"/>
     <use style="fill-opacity:0;stroke:#000000;" x="100.997578" xlink:href="#m9d24ca3b65" y="113.869275"/>
     <use style="fill-opacity:0;stroke:#000000;" x="100.997578" xlink:href="#m9d24ca3b65" y="114.815936"/>
     <use style="fill-opacity:0;stroke:#000000;" x="100.997578" xlink:href="#m9d24ca3b65" y="114.375211"/>
     <use style="fill-opacity:0;stroke:#000000;" x="100.997578" xlink:href="#m9d24ca3b65" y="115.274792"/>
     <use style="fill-opacity:0;stroke:#000000;" x="100.997578" xlink:href="#m9d24ca3b65" y="117.375443"/>
     <use style="fill-opacity:0;stroke:#000000;" x="100.997578" xlink:href="#m9d24ca3b65" y="116.059451"/>
     <use style="fill-opacity:0;stroke:#000000;" x="100.997578" xlink:href="#m9d24ca3b65" y="115.003348"/>
     <use style="fill-opacity:0;stroke:#000000;" x="100.997578" xlink:href="#m9d24ca3b65" y="120.785831"/>
     <use style="fill-opacity:0;stroke:#000000;" x="100.997578" xlink:href="#m9d24ca3b65" y="116.848187"/>
     <use style="fill-opacity:0;stroke:#000000;" x="100.997578" xlink:href="#m9d24ca3b65" y="131.558599"/>
     <use style="fill-opacity:0;stroke:#000000;" x="100.997578" xlink:href="#m9d24ca3b65" y="118.591283"/>
     <use style="fill-opacity:0;stroke:#000000;" x="100.997578" xlink:href="#m9d24ca3b65" y="123.087467"/>
     <use style="fill-opacity:0;stroke:#000000;" x="100.997578" xlink:href="#m9d24ca3b65" y="115.357727"/>
     <use style="fill-opacity:0;stroke:#000000;" x="100.997578" xlink:href="#m9d24ca3b65" y="114.444717"/>
     <use style="fill-opacity:0;stroke:#000000;" x="100.997578" xlink:href="#m9d24ca3b65" y="119.642253"/>
     <use style="fill-opacity:0;stroke:#000000;" x="100.997578" xlink:href="#m9d24ca3b65" y="114.628167"/>
     <use style="fill-opacity:0;stroke:#000000;" x="100.997578" xlink:href="#m9d24ca3b65" y="115.799099"/>
     <use style="fill-opacity:0;stroke:#000000;" x="100.997578" xlink:href="#m9d24ca3b65" y="117.736914"/>
     <use style="fill-opacity:0;stroke:#000000;" x="100.997578" xlink:href="#m9d24ca3b65" y="118.287421"/>
     <use style="fill-opacity:0;stroke:#000000;" x="100.997578" xlink:href="#m9d24ca3b65" y="115.687239"/>
     <use style="fill-opacity:0;stroke:#000000;" x="100.997578" xlink:href="#m9d24ca3b65" y="55.990566"/>
     <use style="fill-opacity:0;stroke:#000000;" x="100.997578" xlink:href="#m9d24ca3b65" y="50.042306"/>
     <use style="fill-opacity:0;stroke:#000000;" x="100.997578" xlink:href="#m9d24ca3b65" y="50.392881"/>
     <use style="fill-opacity:0;stroke:#000000;" x="100.997578" xlink:href="#m9d24ca3b65" y="50.230974"/>
     <use style="fill-opacity:0;stroke:#000000;" x="100.997578" xlink:href="#m9d24ca3b65" y="55.550155"/>
     <use style="fill-opacity:0;stroke:#000000;" x="100.997578" xlink:href="#m9d24ca3b65" y="56.02613"/>
     <use style="fill-opacity:0;stroke:#000000;" x="100.997578" xlink:href="#m9d24ca3b65" y="56.015363"/>
     <use style="fill-opacity:0;stroke:#000000;" x="100.997578" xlink:href="#m9d24ca3b65" y="54.449178"/>
     <use style="fill-opacity:0;stroke:#000000;" x="100.997578" xlink:href="#m9d24ca3b65" y="51.735946"/>
     <use style="fill-opacity:0;stroke:#000000;" x="100.997578" xlink:href="#m9d24ca3b65" y="53.363084"/>
     <use style="fill-opacity:0;stroke:#000000;" x="100.997578" xlink:href="#m9d24ca3b65" y="55.861749"/>
     <use style="fill-opacity:0;stroke:#000000;" x="100.997578" xlink:href="#m9d24ca3b65" y="54.226754"/>
     <use style="fill-opacity:0;stroke:#000000;" x="100.997578" xlink:href="#m9d24ca3b65" y="51.022462"/>
    </g>
   </g>
   <g id="line2d_64">
    <path clip-path="url(#pc170ba237d)" d="M 141.644922 83.800081 
L 141.644922 98.774728 
" style="fill:none;stroke:#000000;stroke-linecap:square;"/>
   </g>
   <g id="line2d_65">
    <path clip-path="url(#pc170ba237d)" d="M 141.644922 73.689148 
L 141.644922 58.596461 
" style="fill:none;stroke:#000000;stroke-linecap:square;"/>
   </g>
   <g id="line2d_66">
    <path clip-path="url(#pc170ba237d)" d="M 136.564004 98.774728 
L 146.72584 98.774728 
" style="fill:none;stroke:#000000;stroke-linecap:square;"/>
   </g>
   <g id="line2d_67">
    <path clip-path="url(#pc170ba237d)" d="M 136.564004 58.596461 
L 146.72584 58.596461 
" style="fill:none;stroke:#000000;stroke-linecap:square;"/>
   </g>
   <g id="line2d_68">
    <g clip-path="url(#pc170ba237d)">
     <use style="fill-opacity:0;stroke:#000000;" x="141.644922" xlink:href="#m9d24ca3b65" y="100.989352"/>
     <use style="fill-opacity:0;stroke:#000000;" x="141.644922" xlink:href="#m9d24ca3b65" y="100.967828"/>
     <use style="fill-opacity:0;stroke:#000000;" x="141.644922" xlink:href="#m9d24ca3b65" y="99.648089"/>
     <use style="fill-opacity:0;stroke:#000000;" x="141.644922" xlink:href="#m9d24ca3b65" y="99.393847"/>
     <use style="fill-opacity:0;stroke:#000000;" x="141.644922" xlink:href="#m9d24ca3b65" y="101.03728"/>
     <use style="fill-opacity:0;stroke:#000000;" x="141.644922" xlink:href="#m9d24ca3b65" y="99.895439"/>
     <use style="fill-opacity:0;stroke:#000000;" x="141.644922" xlink:href="#m9d24ca3b65" y="104.38705"/>
     <use style="fill-opacity:0;stroke:#000000;" x="141.644922" xlink:href="#m9d24ca3b65" y="103.4969"/>
     <use style="fill-opacity:0;stroke:#000000;" x="141.644922" xlink:href="#m9d24ca3b65" y="99.357571"/>
     <use style="fill-opacity:0;stroke:#000000;" x="141.644922" xlink:href="#m9d24ca3b65" y="99.381139"/>
     <use style="fill-opacity:0;stroke:#000000;" x="141.644922" xlink:href="#m9d24ca3b65" y="99.656073"/>
     <use style="fill-opacity:0;stroke:#000000;" x="141.644922" xlink:href="#m9d24ca3b65" y="103.034224"/>
     <use style="fill-opacity:0;stroke:#000000;" x="141.644922" xlink:href="#m9d24ca3b65" y="100.662768"/>
     <use style="fill-opacity:0;stroke:#000000;" x="141.644922" xlink:href="#m9d24ca3b65" y="99.862212"/>
     <use style="fill-opacity:0;stroke:#000000;" x="141.644922" xlink:href="#m9d24ca3b65" y="101.600328"/>
     <use style="fill-opacity:0;stroke:#000000;" x="141.644922" xlink:href="#m9d24ca3b65" y="100.910865"/>
     <use style="fill-opacity:0;stroke:#000000;" x="141.644922" xlink:href="#m9d24ca3b65" y="103.667257"/>
     <use style="fill-opacity:0;stroke:#000000;" x="141.644922" xlink:href="#m9d24ca3b65" y="100.697861"/>
     <use style="fill-opacity:0;stroke:#000000;" x="141.644922" xlink:href="#m9d24ca3b65" y="104.159094"/>
     <use style="fill-opacity:0;stroke:#000000;" x="141.644922" xlink:href="#m9d24ca3b65" y="58.471973"/>
     <use style="fill-opacity:0;stroke:#000000;" x="141.644922" xlink:href="#m9d24ca3b65" y="54.650132"/>
     <use style="fill-opacity:0;stroke:#000000;" x="141.644922" xlink:href="#m9d24ca3b65" y="56.580336"/>
     <use style="fill-opacity:0;stroke:#000000;" x="141.644922" xlink:href="#m9d24ca3b65" y="53.152709"/>
     <use style="fill-opacity:0;stroke:#000000;" x="141.644922" xlink:href="#m9d24ca3b65" y="54.062307"/>
     <use style="fill-opacity:0;stroke:#000000;" x="141.644922" xlink:href="#m9d24ca3b65" y="57.731298"/>
     <use style="fill-opacity:0;stroke:#000000;" x="141.644922" xlink:href="#m9d24ca3b65" y="52.839766"/>
     <use style="fill-opacity:0;stroke:#000000;" x="141.644922" xlink:href="#m9d24ca3b65" y="57.60595"/>
     <use style="fill-opacity:0;stroke:#000000;" x="141.644922" xlink:href="#m9d24ca3b65" y="57.174618"/>
     <use style="fill-opacity:0;stroke:#000000;" x="141.644922" xlink:href="#m9d24ca3b65" y="56.187363"/>
     <use style="fill-opacity:0;stroke:#000000;" x="141.644922" xlink:href="#m9d24ca3b65" y="54.260352"/>
     <use style="fill-opacity:0;stroke:#000000;" x="141.644922" xlink:href="#m9d24ca3b65" y="58.313588"/>
     <use style="fill-opacity:0;stroke:#000000;" x="141.644922" xlink:href="#m9d24ca3b65" y="56.937344"/>
    </g>
   </g>
   <g id="line2d_69">
    <path clip-path="url(#pc170ba237d)" d="M 182.292266 78.263925 
L 182.292266 90.824066 
" style="fill:none;stroke:#000000;stroke-linecap:square;"/>
   </g>
   <g id="line2d_70">
    <path clip-path="url(#pc170ba237d)" d="M 182.292266 69.82594 
L 182.292266 57.244904 
" style="fill:none;stroke:#000000;stroke-linecap:square;"/>
   </g>
   <g id="line2d_71">
    <path clip-path="url(#pc170ba237d)" d="M 177.211348 90.824066 
L 187.373184 90.824066 
" style="fill:none;stroke:#000000;stroke-linecap:square;"/>
   </g>
   <g id="line2d_72">
    <path clip-path="url(#pc170ba237d)" d="M 177.211348 57.244904 
L 187.373184 57.244904 
" style="fill:none;stroke:#000000;stroke-linecap:square;"/>
   </g>
   <g id="line2d_73">
    <g clip-path="url(#pc170ba237d)">
     <use style="fill-opacity:0;stroke:#000000;" x="182.292266" xlink:href="#m9d24ca3b65" y="91.067953"/>
     <use style="fill-opacity:0;stroke:#000000;" x="182.292266" xlink:href="#m9d24ca3b65" y="91.467732"/>
     <use style="fill-opacity:0;stroke:#000000;" x="182.292266" xlink:href="#m9d24ca3b65" y="92.061784"/>
     <use style="fill-opacity:0;stroke:#000000;" x="182.292266" xlink:href="#m9d24ca3b65" y="90.987605"/>
     <use style="fill-opacity:0;stroke:#000000;" x="182.292266" xlink:href="#m9d24ca3b65" y="91.148933"/>
     <use style="fill-opacity:0;stroke:#000000;" x="182.292266" xlink:href="#m9d24ca3b65" y="90.972621"/>
     <use style="fill-opacity:0;stroke:#000000;" x="182.292266" xlink:href="#m9d24ca3b65" y="99.568786"/>
     <use style="fill-opacity:0;stroke:#000000;" x="182.292266" xlink:href="#m9d24ca3b65" y="91.213227"/>
     <use style="fill-opacity:0;stroke:#000000;" x="182.292266" xlink:href="#m9d24ca3b65" y="93.152259"/>
     <use style="fill-opacity:0;stroke:#000000;" x="182.292266" xlink:href="#m9d24ca3b65" y="93.861059"/>
     <use style="fill-opacity:0;stroke:#000000;" x="182.292266" xlink:href="#m9d24ca3b65" y="91.225849"/>
     <use style="fill-opacity:0;stroke:#000000;" x="182.292266" xlink:href="#m9d24ca3b65" y="92.401165"/>
     <use style="fill-opacity:0;stroke:#000000;" x="182.292266" xlink:href="#m9d24ca3b65" y="55.948999"/>
     <use style="fill-opacity:0;stroke:#000000;" x="182.292266" xlink:href="#m9d24ca3b65" y="56.487874"/>
     <use style="fill-opacity:0;stroke:#000000;" x="182.292266" xlink:href="#m9d24ca3b65" y="56.637864"/>
     <use style="fill-opacity:0;stroke:#000000;" x="182.292266" xlink:href="#m9d24ca3b65" y="56.586168"/>
     <use style="fill-opacity:0;stroke:#000000;" x="182.292266" xlink:href="#m9d24ca3b65" y="53.498725"/>
     <use style="fill-opacity:0;stroke:#000000;" x="182.292266" xlink:href="#m9d24ca3b65" y="56.022966"/>
     <use style="fill-opacity:0;stroke:#000000;" x="182.292266" xlink:href="#m9d24ca3b65" y="55.381002"/>
     <use style="fill-opacity:0;stroke:#000000;" x="182.292266" xlink:href="#m9d24ca3b65" y="54.201077"/>
     <use style="fill-opacity:0;stroke:#000000;" x="182.292266" xlink:href="#m9d24ca3b65" y="56.847846"/>
    </g>
   </g>
   <g id="line2d_74">
    <path clip-path="url(#pc170ba237d)" d="M 222.939609 73.858401 
L 222.939609 84.860115 
" style="fill:none;stroke:#000000;stroke-linecap:square;"/>
   </g>
   <g id="line2d_75">
    <path clip-path="url(#pc170ba237d)" d="M 222.939609 66.469796 
L 222.939609 55.547905 
" style="fill:none;stroke:#000000;stroke-linecap:square;"/>
   </g>
   <g id="line2d_76">
    <path clip-path="url(#pc170ba237d)" d="M 217.858691 84.860115 
L 228.020527 84.860115 
" style="fill:none;stroke:#000000;stroke-linecap:square;"/>
   </g>
   <g id="line2d_77">
    <path clip-path="url(#pc170ba237d)" d="M 217.858691 55.547905 
L 228.020527 55.547905 
" style="fill:none;stroke:#000000;stroke-linecap:square;"/>
   </g>
   <g id="line2d_78">
    <g clip-path="url(#pc170ba237d)">
     <use style="fill-opacity:0;stroke:#000000;" x="222.939609" xlink:href="#m9d24ca3b65" y="89.508088"/>
     <use style="fill-opacity:0;stroke:#000000;" x="222.939609" xlink:href="#m9d24ca3b65" y="86.874721"/>
     <use style="fill-opacity:0;stroke:#000000;" x="222.939609" xlink:href="#m9d24ca3b65" y="85.277305"/>
     <use style="fill-opacity:0;stroke:#000000;" x="222.939609" xlink:href="#m9d24ca3b65" y="89.045142"/>
     <use style="fill-opacity:0;stroke:#000000;" x="222.939609" xlink:href="#m9d24ca3b65" y="55.27576"/>
     <use style="fill-opacity:0;stroke:#000000;" x="222.939609" xlink:href="#m9d24ca3b65" y="52.592988"/>
     <use style="fill-opacity:0;stroke:#000000;" x="222.939609" xlink:href="#m9d24ca3b65" y="53.813112"/>
     <use style="fill-opacity:0;stroke:#000000;" x="222.939609" xlink:href="#m9d24ca3b65" y="54.57147"/>
     <use style="fill-opacity:0;stroke:#000000;" x="222.939609" xlink:href="#m9d24ca3b65" y="53.954219"/>
    </g>
   </g>
   <g id="line2d_79">
    <path clip-path="url(#pc170ba237d)" d="M 263.586953 70.881565 
L 263.586953 78.906177 
" style="fill:none;stroke:#000000;stroke-linecap:square;"/>
   </g>
   <g id="line2d_80">
    <path clip-path="url(#pc170ba237d)" d="M 263.586953 64.769056 
L 263.586953 55.634109 
" style="fill:none;stroke:#000000;stroke-linecap:square;"/>
   </g>
   <g id="line2d_81">
    <path clip-path="url(#pc170ba237d)" d="M 258.506035 78.906177 
L 268.667871 78.906177 
" style="fill:none;stroke:#000000;stroke-linecap:square;"/>
   </g>
   <g id="line2d_82">
    <path clip-path="url(#pc170ba237d)" d="M 258.506035 55.634109 
L 268.667871 55.634109 
" style="fill:none;stroke:#000000;stroke-linecap:square;"/>
   </g>
   <g id="line2d_83">
    <g clip-path="url(#pc170ba237d)">
     <use style="fill-opacity:0;stroke:#000000;" x="263.586953" xlink:href="#m9d24ca3b65" y="83.378408"/>
     <use style="fill-opacity:0;stroke:#000000;" x="263.586953" xlink:href="#m9d24ca3b65" y="80.244388"/>
     <use style="fill-opacity:0;stroke:#000000;" x="263.586953" xlink:href="#m9d24ca3b65" y="81.896127"/>
     <use style="fill-opacity:0;stroke:#000000;" x="263.586953" xlink:href="#m9d24ca3b65" y="81.316535"/>
     <use style="fill-opacity:0;stroke:#000000;" x="263.586953" xlink:href="#m9d24ca3b65" y="54.903139"/>
     <use style="fill-opacity:0;stroke:#000000;" x="263.586953" xlink:href="#m9d24ca3b65" y="52.278413"/>
     <use style="fill-opacity:0;stroke:#000000;" x="263.586953" xlink:href="#m9d24ca3b65" y="54.286587"/>
     <use style="fill-opacity:0;stroke:#000000;" x="263.586953" xlink:href="#m9d24ca3b65" y="53.098497"/>
    </g>
   </g>
   <g id="line2d_84">
    <path clip-path="url(#pc170ba237d)" d="M 304.234297 68.352645 
L 304.234297 76.828901 
" style="fill:none;stroke:#000000;stroke-linecap:square;"/>
   </g>
   <g id="line2d_85">
    <path clip-path="url(#pc170ba237d)" d="M 304.234297 62.1473 
L 304.234297 53.265934 
" style="fill:none;stroke:#000000;stroke-linecap:square;"/>
   </g>
   <g id="line2d_86">
    <path clip-path="url(#pc170ba237d)" d="M 299.153379 76.828901 
L 309.315215 76.828901 
" style="fill:none;stroke:#000000;stroke-linecap:square;"/>
   </g>
   <g id="line2d_87">
    <path clip-path="url(#pc170ba237d)" d="M 299.153379 53.265934 
L 309.315215 53.265934 
" style="fill:none;stroke:#000000;stroke-linecap:square;"/>
   </g>
   <g id="line2d_88">
    <g clip-path="url(#pc170ba237d)">
     <use style="fill-opacity:0;stroke:#000000;" x="304.234297" xlink:href="#m9d24ca3b65" y="79.642862"/>
    </g>
   </g>
   <g id="line2d_89">
    <path clip-path="url(#pc170ba237d)" d="M 344.881641 65.621687 
L 344.881641 71.63514 
" style="fill:none;stroke:#000000;stroke-linecap:square;"/>
   </g>
   <g id="line2d_90">
    <path clip-path="url(#pc170ba237d)" d="M 344.881641 61.058123 
L 344.881641 54.69422 
" style="fill:none;stroke:#000000;stroke-linecap:square;"/>
   </g>
   <g id="line2d_91">
    <path clip-path="url(#pc170ba237d)" d="M 339.800723 71.63514 
L 349.962559 71.63514 
" style="fill:none;stroke:#000000;stroke-linecap:square;"/>
   </g>
   <g id="line2d_92">
    <path clip-path="url(#pc170ba237d)" d="M 339.800723 54.69422 
L 349.962559 54.69422 
" style="fill:none;stroke:#000000;stroke-linecap:square;"/>
   </g>
   <g id="line2d_93">
    <g clip-path="url(#pc170ba237d)">
     <use style="fill-opacity:0;stroke:#000000;" x="344.881641" xlink:href="#m9d24ca3b65" y="73.52765"/>
     <use style="fill-opacity:0;stroke:#000000;" x="344.881641" xlink:href="#m9d24ca3b65" y="73.558559"/>
     <use style="fill-opacity:0;stroke:#000000;" x="344.881641" xlink:href="#m9d24ca3b65" y="73.903486"/>
     <use style="fill-opacity:0;stroke:#000000;" x="344.881641" xlink:href="#m9d24ca3b65" y="53.135325"/>
     <use style="fill-opacity:0;stroke:#000000;" x="344.881641" xlink:href="#m9d24ca3b65" y="53.383984"/>
     <use style="fill-opacity:0;stroke:#000000;" x="344.881641" xlink:href="#m9d24ca3b65" y="53.655465"/>
     <use style="fill-opacity:0;stroke:#000000;" x="344.881641" xlink:href="#m9d24ca3b65" y="49.881948"/>
    </g>
   </g>
   <g id="line2d_94">
    <path clip-path="url(#pc170ba237d)" d="M 385.528984 64.500642 
L 385.528984 71.205232 
" style="fill:none;stroke:#000000;stroke-linecap:square;"/>
   </g>
   <g id="line2d_95">
    <path clip-path="url(#pc170ba237d)" d="M 385.528984 59.16538 
L 385.528984 51.988656 
" style="fill:none;stroke:#000000;stroke-linecap:square;"/>
   </g>
   <g id="line2d_96">
    <path clip-path="url(#pc170ba237d)" d="M 380.448066 71.205232 
L 390.609902 71.205232 
" style="fill:none;stroke:#000000;stroke-linecap:square;"/>
   </g>
   <g id="line2d_97">
    <path clip-path="url(#pc170ba237d)" d="M 380.448066 51.988656 
L 390.609902 51.988656 
" style="fill:none;stroke:#000000;stroke-linecap:square;"/>
   </g>
   <g id="line2d_98">
    <g clip-path="url(#pc170ba237d)">
     <use style="fill-opacity:0;stroke:#000000;" x="385.528984" xlink:href="#m9d24ca3b65" y="50.284127"/>
     <use style="fill-opacity:0;stroke:#000000;" x="385.528984" xlink:href="#m9d24ca3b65" y="51.082265"/>
    </g>
   </g>
   <g id="line2d_99">
    <path clip-path="url(#pc170ba237d)" d="M 426.176328 62.425064 
L 426.176328 66.541151 
" style="fill:none;stroke:#000000;stroke-linecap:square;"/>
   </g>
   <g id="line2d_100">
    <path clip-path="url(#pc170ba237d)" d="M 426.176328 58.059845 
L 426.176328 52.277065 
" style="fill:none;stroke:#000000;stroke-linecap:square;"/>
   </g>
   <g id="line2d_101">
    <path clip-path="url(#pc170ba237d)" d="M 421.09541 66.541151 
L 431.257246 66.541151 
" style="fill:none;stroke:#000000;stroke-linecap:square;"/>
   </g>
   <g id="line2d_102">
    <path clip-path="url(#pc170ba237d)" d="M 421.09541 52.277065 
L 431.257246 52.277065 
" style="fill:none;stroke:#000000;stroke-linecap:square;"/>
   </g>
   <g id="line2d_103"/>
   <g id="patch_3">
    <path clip-path="url(#pc170ba237d)" d="M 50.188398 109.690538 
L 70.51207 109.690538 
L 70.51207 85.100165 
L 50.188398 85.100165 
L 50.188398 109.690538 
z
" style="fill:#add8e6;stroke:#000000;stroke-linejoin:miter;"/>
   </g>
   <g id="patch_4">
    <path clip-path="url(#pc170ba237d)" d="M 90.835742 92.353096 
L 111.159414 92.353096 
L 111.159414 78.043178 
L 90.835742 78.043178 
L 90.835742 92.353096 
z
" style="fill:#add8e6;stroke:#000000;stroke-linejoin:miter;"/>
   </g>
   <g id="patch_5">
    <path clip-path="url(#pc170ba237d)" d="M 131.483086 83.800081 
L 151.806758 83.800081 
L 151.806758 73.689148 
L 131.483086 73.689148 
L 131.483086 83.800081 
z
" style="fill:#add8e6;stroke:#000000;stroke-linejoin:miter;"/>
   </g>
   <g id="patch_6">
    <path clip-path="url(#pc170ba237d)" d="M 172.13043 78.263925 
L 192.454102 78.263925 
L 192.454102 69.82594 
L 172.13043 69.82594 
L 172.13043 78.263925 
z
" style="fill:#add8e6;stroke:#000000;stroke-linejoin:miter;"/>
   </g>
   <g id="patch_7">
    <path clip-path="url(#pc170ba237d)" d="M 212.777773 73.858401 
L 233.101445 73.858401 
L 233.101445 66.469796 
L 212.777773 66.469796 
L 212.777773 73.858401 
z
" style="fill:#add8e6;stroke:#000000;stroke-linejoin:miter;"/>
   </g>
   <g id="patch_8">
    <path clip-path="url(#pc170ba237d)" d="M 253.425117 70.881565 
L 273.748789 70.881565 
L 273.748789 64.769056 
L 253.425117 64.769056 
L 253.425117 70.881565 
z
" style="fill:#add8e6;stroke:#000000;stroke-linejoin:miter;"/>
   </g>
   <g id="patch_9">
    <path clip-path="url(#pc170ba237d)" d="M 294.072461 68.352645 
L 314.396133 68.352645 
L 314.396133 62.1473 
L 294.072461 62.1473 
L 294.072461 68.352645 
z
" style="fill:#add8e6;stroke:#000000;stroke-linejoin:miter;"/>
   </g>
   <g id="patch_10">
    <path clip-path="url(#pc170ba237d)" d="M 334.719805 65.621687 
L 355.043477 65.621687 
L 355.043477 61.058123 
L 334.719805 61.058123 
L 334.719805 65.621687 
z
" style="fill:#add8e6;stroke:#000000;stroke-linejoin:miter;"/>
   </g>
   <g id="patch_11">
    <path clip-path="url(#pc170ba237d)" d="M 375.367148 64.500642 
L 395.69082 64.500642 
L 395.69082 59.16538 
L 375.367148 59.16538 
L 375.367148 64.500642 
z
" style="fill:#add8e6;stroke:#000000;stroke-linejoin:miter;"/>
   </g>
   <g id="patch_12">
    <path clip-path="url(#pc170ba237d)" d="M 416.014492 62.425064 
L 436.338164 62.425064 
L 436.338164 58.059845 
L 416.014492 58.059845 
L 416.014492 62.425064 
z
" style="fill:#add8e6;stroke:#000000;stroke-linejoin:miter;"/>
   </g>
   <g id="line2d_104">
    <path clip-path="url(#pc170ba237d)" d="M 50.188398 97.408355 
L 70.51207 97.408355 
" style="fill:none;stroke:#000000;stroke-linecap:square;"/>
   </g>
   <g id="line2d_105">
    <path clip-path="url(#pc170ba237d)" d="M 60.350234 98.010351 
" style="fill:none;stroke:#2ca02c;stroke-dasharray:3.7,1.6;stroke-dashoffset:0;"/>
    <defs>
     <path d="M 0 -3 
L -3 3 
L 3 3 
z
" id="m50ae191cda" style="stroke:#2ca02c;stroke-linejoin:miter;"/>
    </defs>
    <g clip-path="url(#pc170ba237d)">
     <use style="fill:#2ca02c;stroke:#2ca02c;stroke-linejoin:miter;" x="60.350234" xlink:href="#m50ae191cda" y="98.010351"/>
    </g>
   </g>
   <g id="line2d_106">
    <path clip-path="url(#pc170ba237d)" d="M 90.835742 85.071561 
L 111.159414 85.071561 
" style="fill:none;stroke:#000000;stroke-linecap:square;"/>
   </g>
   <g id="line2d_107">
    <path clip-path="url(#pc170ba237d)" d="M 100.997578 85.255518 
" style="fill:none;stroke:#2ca02c;stroke-dasharray:3.7,1.6;stroke-dashoffset:0;"/>
    <g clip-path="url(#pc170ba237d)">
     <use style="fill:#2ca02c;stroke:#2ca02c;stroke-linejoin:miter;" x="100.997578" xlink:href="#m50ae191cda" y="85.255518"/>
    </g>
   </g>
   <g id="line2d_108">
    <path clip-path="url(#pc170ba237d)" d="M 131.483086 78.654394 
L 151.806758 78.654394 
" style="fill:none;stroke:#000000;stroke-linecap:square;"/>
   </g>
   <g id="line2d_109">
    <path clip-path="url(#pc170ba237d)" d="M 141.644922 78.700759 
" style="fill:none;stroke:#2ca02c;stroke-dasharray:3.7,1.6;stroke-dashoffset:0;"/>
    <g clip-path="url(#pc170ba237d)">
     <use style="fill:#2ca02c;stroke:#2ca02c;stroke-linejoin:miter;" x="141.644922" xlink:href="#m50ae191cda" y="78.700759"/>
    </g>
   </g>
   <g id="line2d_110">
    <path clip-path="url(#pc170ba237d)" d="M 172.13043 74.176344 
L 192.454102 74.176344 
" style="fill:none;stroke:#000000;stroke-linecap:square;"/>
   </g>
   <g id="line2d_111">
    <path clip-path="url(#pc170ba237d)" d="M 182.292266 74.072791 
" style="fill:none;stroke:#2ca02c;stroke-dasharray:3.7,1.6;stroke-dashoffset:0;"/>
    <g clip-path="url(#pc170ba237d)">
     <use style="fill:#2ca02c;stroke:#2ca02c;stroke-linejoin:miter;" x="182.292266" xlink:href="#m50ae191cda" y="74.072791"/>
    </g>
   </g>
   <g id="line2d_112">
    <path clip-path="url(#pc170ba237d)" d="M 212.777773 70.158918 
L 233.101445 70.158918 
" style="fill:none;stroke:#000000;stroke-linecap:square;"/>
   </g>
   <g id="line2d_113">
    <path clip-path="url(#pc170ba237d)" d="M 222.939609 70.175908 
" style="fill:none;stroke:#2ca02c;stroke-dasharray:3.7,1.6;stroke-dashoffset:0;"/>
    <g clip-path="url(#pc170ba237d)">
     <use style="fill:#2ca02c;stroke:#2ca02c;stroke-linejoin:miter;" x="222.939609" xlink:href="#m50ae191cda" y="70.175908"/>
    </g>
   </g>
   <g id="line2d_114">
    <path clip-path="url(#pc170ba237d)" d="M 253.425117 67.730319 
L 273.748789 67.730319 
" style="fill:none;stroke:#000000;stroke-linecap:square;"/>
   </g>
   <g id="line2d_115">
    <path clip-path="url(#pc170ba237d)" d="M 263.586953 67.662814 
" style="fill:none;stroke:#2ca02c;stroke-dasharray:3.7,1.6;stroke-dashoffset:0;"/>
    <g clip-path="url(#pc170ba237d)">
     <use style="fill:#2ca02c;stroke:#2ca02c;stroke-linejoin:miter;" x="263.586953" xlink:href="#m50ae191cda" y="67.662814"/>
    </g>
   </g>
   <g id="line2d_116">
    <path clip-path="url(#pc170ba237d)" d="M 294.072461 64.898424 
L 314.396133 64.898424 
" style="fill:none;stroke:#000000;stroke-linecap:square;"/>
   </g>
   <g id="line2d_117">
    <path clip-path="url(#pc170ba237d)" d="M 304.234297 65.138405 
" style="fill:none;stroke:#2ca02c;stroke-dasharray:3.7,1.6;stroke-dashoffset:0;"/>
    <g clip-path="url(#pc170ba237d)">
     <use style="fill:#2ca02c;stroke:#2ca02c;stroke-linejoin:miter;" x="304.234297" xlink:href="#m50ae191cda" y="65.138405"/>
    </g>
   </g>
   <g id="line2d_118">
    <path clip-path="url(#pc170ba237d)" d="M 334.719805 63.479999 
L 355.043477 63.479999 
" style="fill:none;stroke:#000000;stroke-linecap:square;"/>
   </g>
   <g id="line2d_119">
    <path clip-path="url(#pc170ba237d)" d="M 344.881641 63.361067 
" style="fill:none;stroke:#2ca02c;stroke-dasharray:3.7,1.6;stroke-dashoffset:0;"/>
    <g clip-path="url(#pc170ba237d)">
     <use style="fill:#2ca02c;stroke:#2ca02c;stroke-linejoin:miter;" x="344.881641" xlink:href="#m50ae191cda" y="63.361067"/>
    </g>
   </g>
   <g id="line2d_120">
    <path clip-path="url(#pc170ba237d)" d="M 375.367148 61.578071 
L 395.69082 61.578071 
" style="fill:none;stroke:#000000;stroke-linecap:square;"/>
   </g>
   <g id="line2d_121">
    <path clip-path="url(#pc170ba237d)" d="M 385.528984 61.659179 
" style="fill:none;stroke:#2ca02c;stroke-dasharray:3.7,1.6;stroke-dashoffset:0;"/>
    <g clip-path="url(#pc170ba237d)">
     <use style="fill:#2ca02c;stroke:#2ca02c;stroke-linejoin:miter;" x="385.528984" xlink:href="#m50ae191cda" y="61.659179"/>
    </g>
   </g>
   <g id="line2d_122">
    <path clip-path="url(#pc170ba237d)" d="M 416.014492 60.421677 
L 436.338164 60.421677 
" style="fill:none;stroke:#000000;stroke-linecap:square;"/>
   </g>
   <g id="line2d_123">
    <path clip-path="url(#pc170ba237d)" d="M 426.176328 60.00271 
" style="fill:none;stroke:#2ca02c;stroke-dasharray:3.7,1.6;stroke-dashoffset:0;"/>
    <g clip-path="url(#pc170ba237d)">
     <use style="fill:#2ca02c;stroke:#2ca02c;stroke-linejoin:miter;" x="426.176328" xlink:href="#m50ae191cda" y="60.00271"/>
    </g>
   </g>
   <g id="patch_13">
    <path d="M 40.026562 304.44375 
L 40.026562 25.92 
" style="fill:none;stroke:#000000;stroke-linecap:square;stroke-linejoin:miter;stroke-width:0.8;"/>
   </g>
   <g id="patch_14">
    <path d="M 446.5 304.44375 
L 446.5 25.92 
" style="fill:none;stroke:#000000;stroke-linecap:square;stroke-linejoin:miter;stroke-width:0.8;"/>
   </g>
   <g id="patch_15">
    <path d="M 40.026562 304.44375 
L 446.5 304.44375 
" style="fill:none;stroke:#000000;stroke-linecap:square;stroke-linejoin:miter;stroke-width:0.8;"/>
   </g>
   <g id="patch_16">
    <path d="M 40.026562 25.92 
L 446.5 25.92 
" style="fill:none;stroke:#000000;stroke-linecap:square;stroke-linejoin:miter;stroke-width:0.8;"/>
   </g>
   <g id="text_18">
    <!-- Packing density, rectangle side lengths ~ $Unif\{1, 1000\}$ -->
    <defs>
     <path d="M 19.671875 64.796875 
L 19.671875 37.40625 
L 32.078125 37.40625 
Q 38.96875 37.40625 42.71875 40.96875 
Q 46.484375 44.53125 46.484375 51.125 
Q 46.484375 57.671875 42.71875 61.234375 
Q 38.96875 64.796875 32.078125 64.796875 
z
M 9.8125 72.90625 
L 32.078125 72.90625 
Q 44.34375 72.90625 50.609375 67.359375 
Q 56.890625 61.8125 56.890625 51.125 
Q 56.890625 40.328125 50.609375 34.8125 
Q 44.34375 29.296875 32.078125 29.296875 
L 19.671875 29.296875 
L 19.671875 0 
L 9.8125 0 
z
" id="DejaVuSans-80"/>
     <path d="M 9.078125 75.984375 
L 18.109375 75.984375 
L 18.109375 31.109375 
L 44.921875 54.6875 
L 56.390625 54.6875 
L 27.390625 29.109375 
L 57.625 0 
L 45.90625 0 
L 18.109375 26.703125 
L 18.109375 0 
L 9.078125 0 
z
" id="DejaVuSans-107"/>
     <path d="M 9.421875 54.6875 
L 18.40625 54.6875 
L 18.40625 0 
L 9.421875 0 
z
M 9.421875 75.984375 
L 18.40625 75.984375 
L 18.40625 64.59375 
L 9.421875 64.59375 
z
" id="DejaVuSans-105"/>
     <path d="M 45.40625 46.390625 
L 45.40625 75.984375 
L 54.390625 75.984375 
L 54.390625 0 
L 45.40625 0 
L 45.40625 8.203125 
Q 42.578125 3.328125 38.25 0.953125 
Q 33.9375 -1.421875 27.875 -1.421875 
Q 17.96875 -1.421875 11.734375 6.484375 
Q 5.515625 14.40625 5.515625 27.296875 
Q 5.515625 40.1875 11.734375 48.09375 
Q 17.96875 56 27.875 56 
Q 33.9375 56 38.25 53.625 
Q 42.578125 51.265625 45.40625 46.390625 
z
M 14.796875 27.296875 
Q 14.796875 17.390625 18.875 11.75 
Q 22.953125 6.109375 30.078125 6.109375 
Q 37.203125 6.109375 41.296875 11.75 
Q 45.40625 17.390625 45.40625 27.296875 
Q 45.40625 37.203125 41.296875 42.84375 
Q 37.203125 48.484375 30.078125 48.484375 
Q 22.953125 48.484375 18.875 42.84375 
Q 14.796875 37.203125 14.796875 27.296875 
z
" id="DejaVuSans-100"/>
     <path d="M 32.171875 -5.078125 
Q 28.375 -14.84375 24.75 -17.8125 
Q 21.140625 -20.796875 15.09375 -20.796875 
L 7.90625 -20.796875 
L 7.90625 -13.28125 
L 13.1875 -13.28125 
Q 16.890625 -13.28125 18.9375 -11.515625 
Q 21 -9.765625 23.484375 -3.21875 
L 25.09375 0.875 
L 2.984375 54.6875 
L 12.5 54.6875 
L 29.59375 11.921875 
L 46.6875 54.6875 
L 56.203125 54.6875 
z
" id="DejaVuSans-121"/>
     <path d="M 11.71875 12.40625 
L 22.015625 12.40625 
L 22.015625 4 
L 14.015625 -11.625 
L 7.71875 -11.625 
L 11.71875 4 
z
" id="DejaVuSans-44"/>
     <path d="M 54.890625 33.015625 
L 54.890625 0 
L 45.90625 0 
L 45.90625 32.71875 
Q 45.90625 40.484375 42.875 44.328125 
Q 39.84375 48.1875 33.796875 48.1875 
Q 26.515625 48.1875 22.3125 43.546875 
Q 18.109375 38.921875 18.109375 30.90625 
L 18.109375 0 
L 9.078125 0 
L 9.078125 75.984375 
L 18.109375 75.984375 
L 18.109375 46.1875 
Q 21.34375 51.125 25.703125 53.5625 
Q 30.078125 56 35.796875 56 
Q 45.21875 56 50.046875 50.171875 
Q 54.890625 44.34375 54.890625 33.015625 
z
" id="DejaVuSans-104"/>
     <path d="M 73.1875 39.890625 
L 73.1875 31.203125 
Q 68.0625 27.34375 63.6875 25.6875 
Q 59.328125 24.03125 54.59375 24.03125 
Q 49.21875 24.03125 42.09375 26.90625 
Q 41.546875 27.09375 41.3125 27.203125 
Q 40.96875 27.34375 40.234375 27.59375 
Q 32.671875 30.609375 28.078125 30.609375 
Q 23.78125 30.609375 19.578125 28.734375 
Q 15.375 26.859375 10.59375 22.796875 
L 10.59375 31.5 
Q 15.71875 35.359375 20.09375 37.03125 
Q 24.46875 38.71875 29.203125 38.71875 
Q 34.578125 38.71875 41.75 35.796875 
Q 42.234375 35.59375 42.484375 35.5 
Q 42.875 35.359375 43.5625 35.109375 
Q 51.125 32.078125 55.71875 32.078125 
Q 59.90625 32.078125 64.03125 33.9375 
Q 68.171875 35.796875 73.1875 39.890625 
z
" id="DejaVuSans-126"/>
     <path d="M 15.484375 72.90625 
L 25.390625 72.90625 
L 16.796875 28.609375 
Q 16.265625 25.640625 16.046875 23.703125 
Q 15.828125 21.78125 15.828125 20.3125 
Q 15.828125 13.578125 19.578125 10.078125 
Q 23.34375 6.59375 30.609375 6.59375 
Q 40.046875 6.59375 45.28125 11.765625 
Q 50.53125 16.9375 52.78125 28.609375 
L 61.375 72.90625 
L 71.296875 72.90625 
L 62.5 27.390625 
Q 59.625 12.640625 51.5625 5.609375 
Q 43.5 -1.421875 29.5 -1.421875 
Q 18.5625 -1.421875 12.1875 4.078125 
Q 5.8125 9.578125 5.8125 19 
Q 5.8125 20.703125 6.046875 22.828125 
Q 6.296875 24.953125 6.78125 27.390625 
z
" id="DejaVuSans-Oblique-85"/>
     <path d="M 55.71875 33.015625 
L 49.3125 0 
L 40.28125 0 
L 46.6875 32.671875 
Q 47.125 34.96875 47.359375 36.71875 
Q 47.609375 38.484375 47.609375 39.5 
Q 47.609375 43.609375 45.015625 45.890625 
Q 42.4375 48.1875 37.796875 48.1875 
Q 30.5625 48.1875 25.34375 43.375 
Q 20.125 38.578125 18.5 30.328125 
L 12.5 0 
L 3.515625 0 
L 14.109375 54.6875 
L 23.09375 54.6875 
L 21.296875 46.09375 
Q 25.046875 50.828125 30.3125 53.40625 
Q 35.59375 56 41.40625 56 
Q 48.640625 56 52.609375 52.09375 
Q 56.59375 48.1875 56.59375 41.109375 
Q 56.59375 39.359375 56.375 37.359375 
Q 56.15625 35.359375 55.71875 33.015625 
z
" id="DejaVuSans-Oblique-110"/>
     <path d="M 18.3125 75.984375 
L 27.296875 75.984375 
L 25.09375 64.59375 
L 16.109375 64.59375 
z
M 14.203125 54.6875 
L 23.1875 54.6875 
L 12.5 0 
L 3.515625 0 
z
" id="DejaVuSans-Oblique-105"/>
     <path d="M 47.796875 75.984375 
L 46.390625 68.5 
L 37.796875 68.5 
Q 32.90625 68.5 30.6875 66.578125 
Q 28.46875 64.65625 27.390625 59.515625 
L 26.421875 54.6875 
L 41.21875 54.6875 
L 39.890625 47.703125 
L 25.09375 47.703125 
L 15.828125 0 
L 6.78125 0 
L 16.109375 47.703125 
L 7.515625 47.703125 
L 8.796875 54.6875 
L 17.390625 54.6875 
L 18.109375 58.5 
Q 19.96875 68.171875 24.625 72.078125 
Q 29.296875 75.984375 39.3125 75.984375 
z
" id="DejaVuSans-Oblique-102"/>
     <path d="M 51.125 -9.28125 
L 51.125 -16.3125 
L 48.09375 -16.3125 
Q 35.9375 -16.3125 31.8125 -12.6875 
Q 27.6875 -9.078125 27.6875 1.703125 
L 27.6875 13.375 
Q 27.6875 20.75 25.046875 23.578125 
Q 22.40625 26.421875 15.484375 26.421875 
L 12.5 26.421875 
L 12.5 33.40625 
L 15.484375 33.40625 
Q 22.46875 33.40625 25.078125 36.203125 
Q 27.6875 39.015625 27.6875 46.296875 
L 27.6875 58.015625 
Q 27.6875 68.796875 31.8125 72.390625 
Q 35.9375 75.984375 48.09375 75.984375 
L 51.125 75.984375 
L 51.125 69 
L 47.796875 69 
Q 40.921875 69 38.8125 66.84375 
Q 36.71875 64.703125 36.71875 57.8125 
L 36.71875 45.703125 
Q 36.71875 38.03125 34.5 34.5625 
Q 32.28125 31.109375 26.90625 29.890625 
Q 32.328125 28.5625 34.515625 25.09375 
Q 36.71875 21.625 36.71875 14.015625 
L 36.71875 1.90625 
Q 36.71875 -4.984375 38.8125 -7.125 
Q 40.921875 -9.28125 47.796875 -9.28125 
z
" id="DejaVuSans-123"/>
     <path d="M 12.5 -9.28125 
L 15.921875 -9.28125 
Q 22.75 -9.28125 24.828125 -7.171875 
Q 26.90625 -5.078125 26.90625 1.90625 
L 26.90625 14.015625 
Q 26.90625 21.625 29.09375 25.09375 
Q 31.296875 28.5625 36.71875 29.890625 
Q 31.296875 31.109375 29.09375 34.5625 
Q 26.90625 38.03125 26.90625 45.703125 
L 26.90625 57.8125 
Q 26.90625 64.75 24.828125 66.875 
Q 22.75 69 15.921875 69 
L 12.5 69 
L 12.5 75.984375 
L 15.578125 75.984375 
Q 27.734375 75.984375 31.8125 72.390625 
Q 35.890625 68.796875 35.890625 58.015625 
L 35.890625 46.296875 
Q 35.890625 39.015625 38.515625 36.203125 
Q 41.15625 33.40625 48.09375 33.40625 
L 51.125 33.40625 
L 51.125 26.421875 
L 48.09375 26.421875 
Q 41.15625 26.421875 38.515625 23.578125 
Q 35.890625 20.75 35.890625 13.375 
L 35.890625 1.703125 
Q 35.890625 -9.078125 31.8125 -12.6875 
Q 27.734375 -16.3125 15.578125 -16.3125 
L 12.5 -16.3125 
z
" id="DejaVuSans-125"/>
    </defs>
    <g transform="translate(74.723281 19.92)scale(0.12 -0.12)">
     <use transform="translate(0 0.015625)" xlink:href="#DejaVuSans-80"/>
     <use transform="translate(60.302734 0.015625)" xlink:href="#DejaVuSans-97"/>
     <use transform="translate(121.582031 0.015625)" xlink:href="#DejaVuSans-99"/>
     <use transform="translate(176.5625 0.015625)" xlink:href="#DejaVuSans-107"/>
     <use transform="translate(234.472656 0.015625)" xlink:href="#DejaVuSans-105"/>
     <use transform="translate(262.255859 0.015625)" xlink:href="#DejaVuSans-110"/>
     <use transform="translate(325.634766 0.015625)" xlink:href="#DejaVuSans-103"/>
     <use transform="translate(389.111328 0.015625)" xlink:href="#DejaVuSans-32"/>
     <use transform="translate(420.898438 0.015625)" xlink:href="#DejaVuSans-100"/>
     <use transform="translate(484.375 0.015625)" xlink:href="#DejaVuSans-101"/>
     <use transform="translate(545.898438 0.015625)" xlink:href="#DejaVuSans-110"/>
     <use transform="translate(609.277344 0.015625)" xlink:href="#DejaVuSans-115"/>
     <use transform="translate(661.376953 0.015625)" xlink:href="#DejaVuSans-105"/>
     <use transform="translate(689.160156 0.015625)" xlink:href="#DejaVuSans-116"/>
     <use transform="translate(728.369141 0.015625)" xlink:href="#DejaVuSans-121"/>
     <use transform="translate(787.548828 0.015625)" xlink:href="#DejaVuSans-44"/>
     <use transform="translate(819.335938 0.015625)" xlink:href="#DejaVuSans-32"/>
     <use transform="translate(851.123047 0.015625)" xlink:href="#DejaVuSans-114"/>
     <use transform="translate(892.236328 0.015625)" xlink:href="#DejaVuSans-101"/>
     <use transform="translate(953.759766 0.015625)" xlink:href="#DejaVuSans-99"/>
     <use transform="translate(1008.740234 0.015625)" xlink:href="#DejaVuSans-116"/>
     <use transform="translate(1047.949219 0.015625)" xlink:href="#DejaVuSans-97"/>
     <use transform="translate(1109.228516 0.015625)" xlink:href="#DejaVuSans-110"/>
     <use transform="translate(1172.607422 0.015625)" xlink:href="#DejaVuSans-103"/>
     <use transform="translate(1236.083984 0.015625)" xlink:href="#DejaVuSans-108"/>
     <use transform="translate(1263.867188 0.015625)" xlink:href="#DejaVuSans-101"/>
     <use transform="translate(1325.390625 0.015625)" xlink:href="#DejaVuSans-32"/>
     <use transform="translate(1357.177734 0.015625)" xlink:href="#DejaVuSans-115"/>
     <use transform="translate(1409.277344 0.015625)" xlink:href="#DejaVuSans-105"/>
     <use transform="translate(1437.060547 0.015625)" xlink:href="#DejaVuSans-100"/>
     <use transform="translate(1500.537109 0.015625)" xlink:href="#DejaVuSans-101"/>
     <use transform="translate(1562.060547 0.015625)" xlink:href="#DejaVuSans-32"/>
     <use transform="translate(1593.847656 0.015625)" xlink:href="#DejaVuSans-108"/>
     <use transform="translate(1621.630859 0.015625)" xlink:href="#DejaVuSans-101"/>
     <use transform="translate(1683.154297 0.015625)" xlink:href="#DejaVuSans-110"/>
     <use transform="translate(1746.533203 0.015625)" xlink:href="#DejaVuSans-103"/>
     <use transform="translate(1810.009766 0.015625)" xlink:href="#DejaVuSans-116"/>
     <use transform="translate(1849.21875 0.015625)" xlink:href="#DejaVuSans-104"/>
     <use transform="translate(1912.597656 0.015625)" xlink:href="#DejaVuSans-115"/>
     <use transform="translate(1964.697266 0.015625)" xlink:href="#DejaVuSans-32"/>
     <use transform="translate(1996.484375 0.015625)" xlink:href="#DejaVuSans-126"/>
     <use transform="translate(2080.273438 0.015625)" xlink:href="#DejaVuSans-32"/>
     <use transform="translate(2112.060547 0.015625)" xlink:href="#DejaVuSans-Oblique-85"/>
     <use transform="translate(2185.253906 0.015625)" xlink:href="#DejaVuSans-Oblique-110"/>
     <use transform="translate(2248.632812 0.015625)" xlink:href="#DejaVuSans-Oblique-105"/>
     <use transform="translate(2276.416016 0.015625)" xlink:href="#DejaVuSans-Oblique-102"/>
     <use transform="translate(2311.621094 0.015625)" xlink:href="#DejaVuSans-123"/>
     <use transform="translate(2375.244141 0.015625)" xlink:href="#DejaVuSans-49"/>
     <use transform="translate(2438.867188 0.015625)" xlink:href="#DejaVuSans-44"/>
     <use transform="translate(2490.136719 0.015625)" xlink:href="#DejaVuSans-49"/>
     <use transform="translate(2553.759766 0.015625)" xlink:href="#DejaVuSans-48"/>
     <use transform="translate(2617.382812 0.015625)" xlink:href="#DejaVuSans-48"/>
     <use transform="translate(2681.005859 0.015625)" xlink:href="#DejaVuSans-48"/>
     <use transform="translate(2744.628906 0.015625)" xlink:href="#DejaVuSans-125"/>
    </g>
   </g>
  </g>
 </g>
 <defs>
  <clipPath id="pc170ba237d">
   <rect height="278.52375" width="406.473437" x="40.026562" y="25.92"/>
  </clipPath>
 </defs>
</svg>
