<?xml version="1.0" encoding="utf-8" standalone="no"?>
<!DOCTYPE svg PUBLIC "-//W3C//DTD SVG 1.1//EN"
  "http://www.w3.org/Graphics/SVG/1.1/DTD/svg11.dtd">
<!-- Created with matplotlib (https://matplotlib.org/) -->
<svg height="301.576115pt" version="1.1" viewBox="0 0 453.6 301.576115" width="453.6pt" xmlns="http://www.w3.org/2000/svg" xmlns:xlink="http://www.w3.org/1999/xlink">
 <defs>
  <style type="text/css">
*{stroke-linecap:butt;stroke-linejoin:round;}
  </style>
 </defs>
 <g id="figure_1">
  <g id="patch_1">
   <path d="M 0 301.576115 
L 453.6 301.576115 
L 453.6 0 
L 0 0 
z
" style="fill:#ffffff;"/>
  </g>
  <g id="axes_1">
   <g id="patch_2">
    <path d="M 7.2 294.376115 
L 446.4 294.376115 
L 446.4 22.318125 
L 7.2 22.318125 
z
" style="fill:#ffffff;"/>
   </g>
   <g id="patch_3">
    <path clip-path="url(#p5c326fb7ff)" d="M 358.125865 84.544155 
L 388.515321 84.544155 
L 388.515321 145.323067 
L 358.125865 145.323067 
z
" style="fill:#277e8e;stroke:#000000;stroke-linejoin:miter;"/>
   </g>
   <g id="patch_4">
    <path clip-path="url(#p5c326fb7ff)" d="M 78.108731 291.481881 
L 148.293904 291.481881 
L 148.293904 292.928998 
L 78.108731 292.928998 
z
" style="fill:#77d153;stroke:#000000;stroke-linejoin:miter;"/>
   </g>
   <g id="patch_5">
    <path clip-path="url(#p5c326fb7ff)" d="M 425.416804 22.318125 
L 446.4 22.318125 
L 446.4 78.755687 
L 425.416804 78.755687 
z
" style="fill:#2a768e;stroke:#000000;stroke-linejoin:miter;"/>
   </g>
   <g id="patch_6">
    <path clip-path="url(#p5c326fb7ff)" d="M 183.74827 235.767878 
L 246.697858 235.767878 
L 246.697858 266.157334 
L 183.74827 266.157334 
z
" style="fill:#3aba76;stroke:#000000;stroke-linejoin:miter;"/>
   </g>
   <g id="patch_7">
    <path clip-path="url(#p5c326fb7ff)" d="M 167.106425 92.503298 
L 177.959802 92.503298 
L 177.959802 140.258158 
L 167.106425 140.258158 
z
" style="fill:#2e6e8e;stroke:#000000;stroke-linejoin:miter;"/>
   </g>
   <g id="patch_8">
    <path clip-path="url(#p5c326fb7ff)" d="M 249.592092 22.318125 
L 267.681054 22.318125 
L 267.681054 88.885506 
L 249.592092 88.885506 
z
" style="fill:#2d718e;stroke:#000000;stroke-linejoin:miter;"/>
   </g>
   <g id="patch_9">
    <path clip-path="url(#p5c326fb7ff)" d="M 7.2 287.864089 
L 78.108731 287.864089 
L 78.108731 293.652557 
L 7.2 293.652557 
z
" style="fill:#6ece58;stroke:#000000;stroke-linejoin:miter;"/>
   </g>
   <g id="patch_10">
    <path clip-path="url(#p5c326fb7ff)" d="M 249.592092 88.885506 
L 282.152224 88.885506 
L 282.152224 144.599509 
L 249.592092 144.599509 
z
" style="fill:#25838e;stroke:#000000;stroke-linejoin:miter;"/>
   </g>
   <g id="patch_11">
    <path clip-path="url(#p5c326fb7ff)" d="M 301.688303 226.361618 
L 347.272488 226.361618 
L 347.272488 253.85684 
L 301.688303 253.85684 
z
" style="fill:#2fb47c;stroke:#000000;stroke-linejoin:miter;"/>
   </g>
   <g id="patch_12">
    <path clip-path="url(#p5c326fb7ff)" d="M 52.784185 22.318125 
L 61.466886 22.318125 
L 61.466886 94.673973 
L 52.784185 94.673973 
z
" style="fill:#31678e;stroke:#000000;stroke-linejoin:miter;"/>
   </g>
   <g id="patch_13">
    <path clip-path="url(#p5c326fb7ff)" d="M 180.854036 91.056181 
L 239.462273 91.056181 
L 239.462273 151.111535 
L 180.854036 151.111535 
z
" style="fill:#1e9b8a;stroke:#000000;stroke-linejoin:miter;"/>
   </g>
   <g id="patch_14">
    <path clip-path="url(#p5c326fb7ff)" d="M 7.2 197.419278 
L 75.214498 197.419278 
L 75.214498 240.109229 
L 7.2 240.109229 
z
" style="fill:#2db27d;stroke:#000000;stroke-linejoin:miter;"/>
   </g>
   <g id="patch_15">
    <path clip-path="url(#p5c326fb7ff)" d="M 70.873147 93.226856 
L 125.863591 93.226856 
L 125.863591 151.835094 
L 70.873147 151.835094 
z
" style="fill:#1f988b;stroke:#000000;stroke-linejoin:miter;"/>
   </g>
   <g id="patch_16">
    <path clip-path="url(#p5c326fb7ff)" d="M 351.613839 282.075621 
L 390.685997 282.075621 
L 390.685997 289.311206 
L 351.613839 289.311206 
z
" style="fill:#5ec962;stroke:#000000;stroke-linejoin:miter;"/>
   </g>
   <g id="patch_17">
    <path clip-path="url(#p5c326fb7ff)" d="M 59.296211 94.673973 
L 70.873147 94.673973 
L 70.873147 125.06343 
L 59.296211 125.06343 
z
" style="fill:#2a778e;stroke:#000000;stroke-linejoin:miter;"/>
   </g>
   <g id="patch_18">
    <path clip-path="url(#p5c326fb7ff)" d="M 180.854036 266.157334 
L 213.414168 266.157334 
L 213.414168 279.181387 
L 180.854036 279.181387 
z
" style="fill:#44bf70;stroke:#000000;stroke-linejoin:miter;"/>
   </g>
   <g id="patch_19">
    <path clip-path="url(#p5c326fb7ff)" d="M 293.005601 84.544155 
L 358.125865 84.544155 
L 358.125865 145.323067 
L 293.005601 145.323067 
z
" style="fill:#1fa188;stroke:#000000;stroke-linejoin:miter;"/>
   </g>
   <g id="patch_20">
    <path clip-path="url(#p5c326fb7ff)" d="M 78.108731 287.864089 
L 119.351565 287.864089 
L 119.351565 291.481881 
L 78.108731 291.481881 
z
" style="fill:#6ece58;stroke:#000000;stroke-linejoin:miter;"/>
   </g>
   <g id="patch_21">
    <path clip-path="url(#p5c326fb7ff)" d="M 401.539374 240.832787 
L 444.952883 240.832787 
L 444.952883 265.433776 
L 401.539374 265.433776 
z
" style="fill:#32b67a;stroke:#000000;stroke-linejoin:miter;"/>
   </g>
   <g id="patch_22">
    <path clip-path="url(#p5c326fb7ff)" d="M 125.863591 146.770184 
L 159.147282 146.770184 
L 159.147282 197.419278 
L 125.863591 197.419278 
z
" style="fill:#24878e;stroke:#000000;stroke-linejoin:miter;"/>
   </g>
   <g id="patch_23">
    <path clip-path="url(#p5c326fb7ff)" d="M 239.462273 145.323067 
L 309.647446 145.323067 
L 309.647446 201.037071 
L 239.462273 201.037071 
z
" style="fill:#22a884;stroke:#000000;stroke-linejoin:miter;"/>
   </g>
   <g id="patch_24">
    <path clip-path="url(#p5c326fb7ff)" d="M 213.414168 151.111535 
L 239.462273 151.111535 
L 239.462273 194.525044 
L 213.414168 194.525044 
z
" style="fill:#25848e;stroke:#000000;stroke-linejoin:miter;"/>
   </g>
   <g id="patch_25">
    <path clip-path="url(#p5c326fb7ff)" d="M 410.222076 237.214995 
L 443.505766 237.214995 
L 443.505766 240.109229 
L 410.222076 240.109229 
z
" style="fill:#6ece58;stroke:#000000;stroke-linejoin:miter;"/>
   </g>
   <g id="patch_26">
    <path clip-path="url(#p5c326fb7ff)" d="M 137.440527 265.433776 
L 180.854036 265.433776 
L 180.854036 282.075621 
L 137.440527 282.075621 
z
" style="fill:#46c06f;stroke:#000000;stroke-linejoin:miter;"/>
   </g>
   <g id="patch_27">
    <path clip-path="url(#p5c326fb7ff)" d="M 246.697858 90.332623 
L 248.868534 90.332623 
L 248.868534 110.59226 
L 246.697858 110.59226 
z
" style="fill:#31668e;stroke:#000000;stroke-linejoin:miter;"/>
   </g>
   <g id="patch_28">
    <path clip-path="url(#p5c326fb7ff)" d="M 413.839868 22.318125 
L 425.416804 22.318125 
L 425.416804 84.544155 
L 413.839868 84.544155 
z
" style="fill:#2f6b8e;stroke:#000000;stroke-linejoin:miter;"/>
   </g>
   <g id="patch_29">
    <path clip-path="url(#p5c326fb7ff)" d="M 309.647446 145.323067 
L 355.231631 145.323067 
L 355.231631 198.142837 
L 309.647446 198.142837 
z
" style="fill:#1f948c;stroke:#000000;stroke-linejoin:miter;"/>
   </g>
   <g id="patch_30">
    <path clip-path="url(#p5c326fb7ff)" d="M 7.2 240.109229 
L 69.42603 240.109229 
L 69.42603 265.433776 
L 7.2 265.433776 
z
" style="fill:#42be71;stroke:#000000;stroke-linejoin:miter;"/>
   </g>
   <g id="patch_31">
    <path clip-path="url(#p5c326fb7ff)" d="M 69.42603 240.109229 
L 109.945305 240.109229 
L 109.945305 264.710217 
L 69.42603 264.710217 
z
" style="fill:#2eb37c;stroke:#000000;stroke-linejoin:miter;"/>
   </g>
   <g id="patch_32">
    <path clip-path="url(#p5c326fb7ff)" d="M 185.195387 197.419278 
L 207.6257 197.419278 
L 207.6257 229.97941 
L 185.195387 229.97941 
z
" style="fill:#23898e;stroke:#000000;stroke-linejoin:miter;"/>
   </g>
   <g id="patch_33">
    <path clip-path="url(#p5c326fb7ff)" d="M 133.099176 92.503298 
L 154.082372 92.503298 
L 154.082372 146.770184 
L 133.099176 146.770184 
z
" style="fill:#2a778e;stroke:#000000;stroke-linejoin:miter;"/>
   </g>
   <g id="patch_34">
    <path clip-path="url(#p5c326fb7ff)" d="M 137.440527 282.075621 
L 177.959802 282.075621 
L 177.959802 291.481881 
L 137.440527 291.481881 
z
" style="fill:#58c765;stroke:#000000;stroke-linejoin:miter;"/>
   </g>
   <g id="patch_35">
    <path clip-path="url(#p5c326fb7ff)" d="M 292.282043 88.885506 
L 293.005601 88.885506 
L 293.005601 98.291766 
L 292.282043 98.291766 
z
" style="fill:#32648e;stroke:#000000;stroke-linejoin:miter;"/>
   </g>
   <g id="patch_36">
    <path clip-path="url(#p5c326fb7ff)" d="M 164.93575 197.419278 
L 185.195387 197.419278 
L 185.195387 232.873644 
L 164.93575 232.873644 
z
" style="fill:#26828e;stroke:#000000;stroke-linejoin:miter;"/>
   </g>
   <g id="patch_37">
    <path clip-path="url(#p5c326fb7ff)" d="M 239.462273 136.640366 
L 247.421417 136.640366 
L 247.421417 144.599509 
L 239.462273 144.599509 
z
" style="fill:#1e9c89;stroke:#000000;stroke-linejoin:miter;"/>
   </g>
   <g id="patch_38">
    <path clip-path="url(#p5c326fb7ff)" d="M 390.685997 265.433776 
L 435.546623 265.433776 
L 435.546623 281.352062 
L 390.685997 281.352062 
z
" style="fill:#4ac16d;stroke:#000000;stroke-linejoin:miter;"/>
   </g>
   <g id="patch_39">
    <path clip-path="url(#p5c326fb7ff)" d="M 239.462273 91.056181 
L 240.90939 91.056181 
L 240.90939 104.803792 
L 239.462273 104.803792 
z
" style="fill:#31668e;stroke:#000000;stroke-linejoin:miter;"/>
   </g>
   <g id="patch_40">
    <path clip-path="url(#p5c326fb7ff)" d="M 347.272488 240.832787 
L 401.539374 240.832787 
L 401.539374 265.433776 
L 347.272488 265.433776 
z
" style="fill:#3dbc74;stroke:#000000;stroke-linejoin:miter;"/>
   </g>
   <g id="patch_41">
    <path clip-path="url(#p5c326fb7ff)" d="M 112.11598 197.419278 
L 164.93575 197.419278 
L 164.93575 233.597202 
L 112.11598 233.597202 
z
" style="fill:#28ae80;stroke:#000000;stroke-linejoin:miter;"/>
   </g>
   <g id="patch_42">
    <path clip-path="url(#p5c326fb7ff)" d="M 112.11598 233.597202 
L 183.74827 233.597202 
L 183.74827 265.433776 
L 112.11598 265.433776 
z
" style="fill:#3fbc73;stroke:#000000;stroke-linejoin:miter;"/>
   </g>
   <g id="patch_43">
    <path clip-path="url(#p5c326fb7ff)" d="M 7.2 265.433776 
L 69.42603 265.433776 
L 69.42603 287.864089 
L 7.2 287.864089 
z
" style="fill:#48c16e;stroke:#000000;stroke-linejoin:miter;"/>
   </g>
   <g id="patch_44">
    <path clip-path="url(#p5c326fb7ff)" d="M 309.647446 198.142837 
L 337.142669 198.142837 
L 337.142669 226.361618 
L 309.647446 226.361618 
z
" style="fill:#1e9b8a;stroke:#000000;stroke-linejoin:miter;"/>
   </g>
   <g id="patch_45">
    <path clip-path="url(#p5c326fb7ff)" d="M 311.094563 282.075621 
L 351.613839 282.075621 
L 351.613839 291.481881 
L 311.094563 291.481881 
z
" style="fill:#58c765;stroke:#000000;stroke-linejoin:miter;"/>
   </g>
   <g id="patch_46">
    <path clip-path="url(#p5c326fb7ff)" d="M 180.854036 22.318125 
L 244.527183 22.318125 
L 244.527183 91.056181 
L 180.854036 91.056181 
z
" style="fill:#1f988b;stroke:#000000;stroke-linejoin:miter;"/>
   </g>
   <g id="patch_47">
    <path clip-path="url(#p5c326fb7ff)" d="M 236.56804 201.037071 
L 301.688303 201.037071 
L 301.688303 235.767878 
L 236.56804 235.767878 
z
" style="fill:#35b779;stroke:#000000;stroke-linejoin:miter;"/>
   </g>
   <g id="patch_48">
    <path clip-path="url(#p5c326fb7ff)" d="M 213.414168 194.525044 
L 236.56804 194.525044 
L 236.56804 233.597202 
L 213.414168 233.597202 
z
" style="fill:#25838e;stroke:#000000;stroke-linejoin:miter;"/>
   </g>
   <g id="patch_49">
    <path clip-path="url(#p5c326fb7ff)" d="M 154.082372 92.503298 
L 167.106425 92.503298 
L 167.106425 142.428833 
L 154.082372 142.428833 
z
" style="fill:#2d708e;stroke:#000000;stroke-linejoin:miter;"/>
   </g>
   <g id="patch_50">
    <path clip-path="url(#p5c326fb7ff)" d="M 7.2 148.217301 
L 66.531796 148.217301 
L 66.531796 197.419278 
L 7.2 197.419278 
z
" style="fill:#21a685;stroke:#000000;stroke-linejoin:miter;"/>
   </g>
   <g id="patch_51">
    <path clip-path="url(#p5c326fb7ff)" d="M 70.873147 22.318125 
L 114.286656 22.318125 
L 114.286656 93.226856 
L 70.873147 93.226856 
z
" style="fill:#25848e;stroke:#000000;stroke-linejoin:miter;"/>
   </g>
   <g id="patch_52">
    <path clip-path="url(#p5c326fb7ff)" d="M 431.92883 227.808735 
L 442.782208 227.808735 
L 442.782208 237.214995 
L 431.92883 237.214995 
z
" style="fill:#20a486;stroke:#000000;stroke-linejoin:miter;"/>
   </g>
   <g id="patch_53">
    <path clip-path="url(#p5c326fb7ff)" d="M 359.572982 22.318125 
L 413.839868 22.318125 
L 413.839868 84.544155 
L 359.572982 84.544155 
z
" style="fill:#1f948c;stroke:#000000;stroke-linejoin:miter;"/>
   </g>
   <g id="patch_54">
    <path clip-path="url(#p5c326fb7ff)" d="M 246.697858 235.767878 
L 262.616145 235.767878 
L 262.616145 261.092425 
L 246.697858 261.092425 
z
" style="fill:#24868e;stroke:#000000;stroke-linejoin:miter;"/>
   </g>
   <g id="patch_55">
    <path clip-path="url(#p5c326fb7ff)" d="M 390.685997 281.352062 
L 430.481713 281.352062 
L 430.481713 292.20544 
L 390.685997 292.20544 
z
" style="fill:#54c568;stroke:#000000;stroke-linejoin:miter;"/>
   </g>
   <g id="patch_56">
    <path clip-path="url(#p5c326fb7ff)" d="M 425.416804 78.755687 
L 441.335091 78.755687 
L 441.335091 82.373479 
L 425.416804 82.373479 
z
" style="fill:#5ac864;stroke:#000000;stroke-linejoin:miter;"/>
   </g>
   <g id="patch_57">
    <path clip-path="url(#p5c326fb7ff)" d="M 173.618451 151.111535 
L 213.414168 151.111535 
L 213.414168 197.419278 
L 173.618451 197.419278 
z
" style="fill:#20938c;stroke:#000000;stroke-linejoin:miter;"/>
   </g>
   <g id="patch_58">
    <path clip-path="url(#p5c326fb7ff)" d="M 246.697858 261.092425 
L 287.217133 261.092425 
L 287.217133 279.181387 
L 246.697858 279.181387 
z
" style="fill:#3fbc73;stroke:#000000;stroke-linejoin:miter;"/>
   </g>
   <g id="patch_59">
    <path clip-path="url(#p5c326fb7ff)" d="M 251.039209 279.181387 
L 272.745964 279.181387 
L 272.745964 294.376115 
L 251.039209 294.376115 
z
" style="fill:#28ae80;stroke:#000000;stroke-linejoin:miter;"/>
   </g>
   <g id="patch_60">
    <path clip-path="url(#p5c326fb7ff)" d="M 69.42603 265.433776 
L 137.440527 265.433776 
L 137.440527 285.693413 
L 69.42603 285.693413 
z
" style="fill:#50c46a;stroke:#000000;stroke-linejoin:miter;"/>
   </g>
   <g id="patch_61">
    <path clip-path="url(#p5c326fb7ff)" d="M 355.231631 195.972161 
L 410.222076 195.972161 
L 410.222076 240.832787 
L 355.231631 240.832787 
z
" style="fill:#22a785;stroke:#000000;stroke-linejoin:miter;"/>
   </g>
   <g id="patch_62">
    <path clip-path="url(#p5c326fb7ff)" d="M 293.005601 22.318125 
L 359.572982 22.318125 
L 359.572982 84.544155 
L 293.005601 84.544155 
z
" style="fill:#1fa088;stroke:#000000;stroke-linejoin:miter;"/>
   </g>
   <g id="patch_63">
    <path clip-path="url(#p5c326fb7ff)" d="M 299.517628 253.85684 
L 334.248435 253.85684 
L 334.248435 278.457828 
L 299.517628 278.457828 
z
" style="fill:#27ad81;stroke:#000000;stroke-linejoin:miter;"/>
   </g>
   <g id="patch_64">
    <path clip-path="url(#p5c326fb7ff)" d="M 159.147282 146.770184 
L 173.618451 146.770184 
L 173.618451 195.972161 
L 159.147282 195.972161 
z
" style="fill:#2c718e;stroke:#000000;stroke-linejoin:miter;"/>
   </g>
   <g id="patch_65">
    <path clip-path="url(#p5c326fb7ff)" d="M 66.531796 151.835094 
L 117.18089 151.835094 
L 117.18089 197.419278 
L 66.531796 197.419278 
z
" style="fill:#1fa287;stroke:#000000;stroke-linejoin:miter;"/>
   </g>
   <g id="patch_66">
    <path clip-path="url(#p5c326fb7ff)" d="M 267.681054 22.318125 
L 293.005601 22.318125 
L 293.005601 87.438389 
L 267.681054 87.438389 
z
" style="fill:#2a778e;stroke:#000000;stroke-linejoin:miter;"/>
   </g>
   <g id="patch_67">
    <path clip-path="url(#p5c326fb7ff)" d="M 244.527183 22.318125 
L 249.592092 22.318125 
L 249.592092 90.332623 
L 244.527183 90.332623 
z
" style="fill:#32648e;stroke:#000000;stroke-linejoin:miter;"/>
   </g>
   <g id="patch_68">
    <path clip-path="url(#p5c326fb7ff)" d="M 59.296211 125.06343 
L 69.42603 125.06343 
L 69.42603 146.770184 
L 59.296211 146.770184 
z
" style="fill:#287c8e;stroke:#000000;stroke-linejoin:miter;"/>
   </g>
   <g id="patch_69">
    <path clip-path="url(#p5c326fb7ff)" d="M 213.414168 266.157334 
L 245.9743 266.157334 
L 245.9743 279.181387 
L 213.414168 279.181387 
z
" style="fill:#44bf70;stroke:#000000;stroke-linejoin:miter;"/>
   </g>
   <g id="patch_70">
    <path clip-path="url(#p5c326fb7ff)" d="M 337.142669 198.142837 
L 353.060956 198.142837 
L 353.060956 226.361618 
L 337.142669 226.361618 
z
" style="fill:#26828e;stroke:#000000;stroke-linejoin:miter;"/>
   </g>
   <g id="patch_71">
    <path clip-path="url(#p5c326fb7ff)" d="M 185.195387 229.97941 
L 209.796376 229.97941 
L 209.796376 235.767878 
L 185.195387 235.767878 
z
" style="fill:#58c765;stroke:#000000;stroke-linejoin:miter;"/>
   </g>
   <g id="patch_72">
    <path clip-path="url(#p5c326fb7ff)" d="M 114.286656 22.318125 
L 133.099176 22.318125 
L 133.099176 93.226856 
L 114.286656 93.226856 
z
" style="fill:#2d708e;stroke:#000000;stroke-linejoin:miter;"/>
   </g>
   <g id="patch_73">
    <path clip-path="url(#p5c326fb7ff)" d="M 388.515321 84.544155 
L 446.4 84.544155 
L 446.4 144.599509 
L 388.515321 144.599509 
z
" style="fill:#1f9a8a;stroke:#000000;stroke-linejoin:miter;"/>
   </g>
   <g id="patch_74">
    <path clip-path="url(#p5c326fb7ff)" d="M 133.099176 22.318125 
L 180.854036 22.318125 
L 180.854036 92.503298 
L 133.099176 92.503298 
z
" style="fill:#23898e;stroke:#000000;stroke-linejoin:miter;"/>
   </g>
   <g id="patch_75">
    <path clip-path="url(#p5c326fb7ff)" d="M 262.616145 235.767878 
L 299.517628 235.767878 
L 299.517628 260.368866 
L 262.616145 260.368866 
z
" style="fill:#2ab07f;stroke:#000000;stroke-linejoin:miter;"/>
   </g>
   <g id="patch_76">
    <path clip-path="url(#p5c326fb7ff)" d="M 410.222076 195.972161 
L 431.92883 195.972161 
L 431.92883 234.320761 
L 410.222076 234.320761 
z
" style="fill:#26828e;stroke:#000000;stroke-linejoin:miter;"/>
   </g>
   <g id="patch_77">
    <path clip-path="url(#p5c326fb7ff)" d="M 282.152224 88.885506 
L 285.046458 88.885506 
L 285.046458 141.705275 
L 282.152224 141.705275 
z
" style="fill:#33638d;stroke:#000000;stroke-linejoin:miter;"/>
   </g>
   <g id="patch_78">
    <path clip-path="url(#p5c326fb7ff)" d="M 61.466886 22.318125 
L 70.873147 22.318125 
L 70.873147 93.950415 
L 61.466886 93.950415 
z
" style="fill:#31688e;stroke:#000000;stroke-linejoin:miter;"/>
   </g>
   <g id="patch_79">
    <path clip-path="url(#p5c326fb7ff)" d="M 7.2 94.673973 
L 59.296211 94.673973 
L 59.296211 148.217301 
L 7.2 148.217301 
z
" style="fill:#1e9b8a;stroke:#000000;stroke-linejoin:miter;"/>
   </g>
   <g id="patch_80">
    <path clip-path="url(#p5c326fb7ff)" d="M 431.92883 197.419278 
L 442.782208 197.419278 
L 442.782208 227.808735 
L 431.92883 227.808735 
z
" style="fill:#2b758e;stroke:#000000;stroke-linejoin:miter;"/>
   </g>
   <g id="patch_81">
    <path clip-path="url(#p5c326fb7ff)" d="M 334.248435 253.85684 
L 343.654695 253.85684 
L 343.654695 274.116478 
L 334.248435 274.116478 
z
" style="fill:#287c8e;stroke:#000000;stroke-linejoin:miter;"/>
   </g>
   <g id="patch_82">
    <path clip-path="url(#p5c326fb7ff)" d="M 287.217133 261.092425 
L 299.517628 261.092425 
L 299.517628 277.73427 
L 287.217133 277.73427 
z
" style="fill:#228d8d;stroke:#000000;stroke-linejoin:miter;"/>
   </g>
   <g id="patch_83">
    <path clip-path="url(#p5c326fb7ff)" d="M 180.854036 279.181387 
L 251.039209 279.181387 
L 251.039209 294.376115 
L 180.854036 294.376115 
z
" style="fill:#5ac864;stroke:#000000;stroke-linejoin:miter;"/>
   </g>
   <g id="patch_84">
    <path clip-path="url(#p5c326fb7ff)" d="M 7.2 22.318125 
L 52.784185 22.318125 
L 52.784185 94.673973 
L 7.2 94.673973 
z
" style="fill:#24868e;stroke:#000000;stroke-linejoin:miter;"/>
   </g>
   <g id="patch_85">
    <path clip-path="url(#p5c326fb7ff)" d="M 287.217133 278.457828 
L 311.094563 278.457828 
L 311.094563 290.758323 
L 287.217133 290.758323 
z
" style="fill:#37b878;stroke:#000000;stroke-linejoin:miter;"/>
   </g>
   <g id="patch_86">
    <path clip-path="url(#p5c326fb7ff)" d="M 244.527183 90.332623 
L 246.697858 90.332623 
L 246.697858 136.640366 
L 244.527183 136.640366 
z
" style="fill:#33628d;stroke:#000000;stroke-linejoin:miter;"/>
   </g>
   <g id="patch_87">
    <path clip-path="url(#p5c326fb7ff)" d="M 117.18089 151.835094 
L 125.140033 151.835094 
L 125.140033 162.688471 
L 117.18089 162.688471 
z
" style="fill:#228c8d;stroke:#000000;stroke-linejoin:miter;"/>
   </g>
   <g id="patch_88">
    <path clip-path="url(#p5c326fb7ff)" d="M 343.654695 265.433776 
L 390.685997 265.433776 
L 390.685997 282.075621 
L 343.654695 282.075621 
z
" style="fill:#4ac16d;stroke:#000000;stroke-linejoin:miter;"/>
   </g>
   <g id="patch_89">
    <path clip-path="url(#p5c326fb7ff)" d="M 75.214498 197.419278 
L 112.11598 197.419278 
L 112.11598 239.38567 
L 75.214498 239.38567 
z
" style="fill:#1f958b;stroke:#000000;stroke-linejoin:miter;"/>
   </g>
   <g id="patch_90">
    <path clip-path="url(#p5c326fb7ff)" d="M 355.231631 145.323067 
L 404.433608 145.323067 
L 404.433608 195.972161 
L 355.231631 195.972161 
z
" style="fill:#1f9a8a;stroke:#000000;stroke-linejoin:miter;"/>
   </g>
   <g id="patch_91">
    <path clip-path="url(#p5c326fb7ff)" d="M 285.046458 88.885506 
L 292.282043 88.885506 
L 292.282043 140.981716 
L 285.046458 140.981716 
z
" style="fill:#31688e;stroke:#000000;stroke-linejoin:miter;"/>
   </g>
   <g id="patch_92">
    <path clip-path="url(#p5c326fb7ff)" d="M 404.433608 145.323067 
L 439.164415 145.323067 
L 439.164415 195.972161 
L 404.433608 195.972161 
z
" style="fill:#23898e;stroke:#000000;stroke-linejoin:miter;"/>
   </g>
   <g id="patch_93">
    <path d="M 7.2 294.376115 
L 7.2 22.318125 
" style="fill:none;stroke:#000000;stroke-linecap:square;stroke-linejoin:miter;stroke-width:0.8;"/>
   </g>
   <g id="patch_94">
    <path d="M 446.4 294.376115 
L 446.4 22.318125 
" style="fill:none;stroke:#000000;stroke-linecap:square;stroke-linejoin:miter;stroke-width:0.8;"/>
   </g>
   <g id="patch_95">
    <path d="M 7.2 294.376115 
L 446.4 294.376115 
" style="fill:none;stroke:#000000;stroke-linecap:square;stroke-linejoin:miter;stroke-width:0.8;"/>
   </g>
   <g id="patch_96">
    <path d="M 7.2 22.318125 
L 446.4 22.318125 
" style="fill:none;stroke:#000000;stroke-linecap:square;stroke-linejoin:miter;stroke-width:0.8;"/>
   </g>
   <g id="text_1">
    <!-- Packing density 95.83% (607 x 376), 90 rectangles. -->
    <defs>
     <path d="M 19.671875 64.796875 
L 19.671875 37.40625 
L 32.078125 37.40625 
Q 38.96875 37.40625 42.71875 40.96875 
Q 46.484375 44.53125 46.484375 51.125 
Q 46.484375 57.671875 42.71875 61.234375 
Q 38.96875 64.796875 32.078125 64.796875 
z
M 9.8125 72.90625 
L 32.078125 72.90625 
Q 44.34375 72.90625 50.609375 67.359375 
Q 56.890625 61.8125 56.890625 51.125 
Q 56.890625 40.328125 50.609375 34.8125 
Q 44.34375 29.296875 32.078125 29.296875 
L 19.671875 29.296875 
L 19.671875 0 
L 9.8125 0 
z
" id="DejaVuSans-80"/>
     <path d="M 34.28125 27.484375 
Q 23.390625 27.484375 19.1875 25 
Q 14.984375 22.515625 14.984375 16.5 
Q 14.984375 11.71875 18.140625 8.90625 
Q 21.296875 6.109375 26.703125 6.109375 
Q 34.1875 6.109375 38.703125 11.40625 
Q 43.21875 16.703125 43.21875 25.484375 
L 43.21875 27.484375 
z
M 52.203125 31.203125 
L 52.203125 0 
L 43.21875 0 
L 43.21875 8.296875 
Q 40.140625 3.328125 35.546875 0.953125 
Q 30.953125 -1.421875 24.3125 -1.421875 
Q 15.921875 -1.421875 10.953125 3.296875 
Q 6 8.015625 6 15.921875 
Q 6 25.140625 12.171875 29.828125 
Q 18.359375 34.515625 30.609375 34.515625 
L 43.21875 34.515625 
L 43.21875 35.40625 
Q 43.21875 41.609375 39.140625 45 
Q 35.0625 48.390625 27.6875 48.390625 
Q 23 48.390625 18.546875 47.265625 
Q 14.109375 46.140625 10.015625 43.890625 
L 10.015625 52.203125 
Q 14.9375 54.109375 19.578125 55.046875 
Q 24.21875 56 28.609375 56 
Q 40.484375 56 46.34375 49.84375 
Q 52.203125 43.703125 52.203125 31.203125 
z
" id="DejaVuSans-97"/>
     <path d="M 48.78125 52.59375 
L 48.78125 44.1875 
Q 44.96875 46.296875 41.140625 47.34375 
Q 37.3125 48.390625 33.40625 48.390625 
Q 24.65625 48.390625 19.8125 42.84375 
Q 14.984375 37.3125 14.984375 27.296875 
Q 14.984375 17.28125 19.8125 11.734375 
Q 24.65625 6.203125 33.40625 6.203125 
Q 37.3125 6.203125 41.140625 7.25 
Q 44.96875 8.296875 48.78125 10.40625 
L 48.78125 2.09375 
Q 45.015625 0.34375 40.984375 -0.53125 
Q 36.96875 -1.421875 32.421875 -1.421875 
Q 20.0625 -1.421875 12.78125 6.34375 
Q 5.515625 14.109375 5.515625 27.296875 
Q 5.515625 40.671875 12.859375 48.328125 
Q 20.21875 56 33.015625 56 
Q 37.15625 56 41.109375 55.140625 
Q 45.0625 54.296875 48.78125 52.59375 
z
" id="DejaVuSans-99"/>
     <path d="M 9.078125 75.984375 
L 18.109375 75.984375 
L 18.109375 31.109375 
L 44.921875 54.6875 
L 56.390625 54.6875 
L 27.390625 29.109375 
L 57.625 0 
L 45.90625 0 
L 18.109375 26.703125 
L 18.109375 0 
L 9.078125 0 
z
" id="DejaVuSans-107"/>
     <path d="M 9.421875 54.6875 
L 18.40625 54.6875 
L 18.40625 0 
L 9.421875 0 
z
M 9.421875 75.984375 
L 18.40625 75.984375 
L 18.40625 64.59375 
L 9.421875 64.59375 
z
" id="DejaVuSans-105"/>
     <path d="M 54.890625 33.015625 
L 54.890625 0 
L 45.90625 0 
L 45.90625 32.71875 
Q 45.90625 40.484375 42.875 44.328125 
Q 39.84375 48.1875 33.796875 48.1875 
Q 26.515625 48.1875 22.3125 43.546875 
Q 18.109375 38.921875 18.109375 30.90625 
L 18.109375 0 
L 9.078125 0 
L 9.078125 54.6875 
L 18.109375 54.6875 
L 18.109375 46.1875 
Q 21.34375 51.125 25.703125 53.5625 
Q 30.078125 56 35.796875 56 
Q 45.21875 56 50.046875 50.171875 
Q 54.890625 44.34375 54.890625 33.015625 
z
" id="DejaVuSans-110"/>
     <path d="M 45.40625 27.984375 
Q 45.40625 37.75 41.375 43.109375 
Q 37.359375 48.484375 30.078125 48.484375 
Q 22.859375 48.484375 18.828125 43.109375 
Q 14.796875 37.75 14.796875 27.984375 
Q 14.796875 18.265625 18.828125 12.890625 
Q 22.859375 7.515625 30.078125 7.515625 
Q 37.359375 7.515625 41.375 12.890625 
Q 45.40625 18.265625 45.40625 27.984375 
z
M 54.390625 6.78125 
Q 54.390625 -7.171875 48.1875 -13.984375 
Q 42 -20.796875 29.203125 -20.796875 
Q 24.46875 -20.796875 20.265625 -20.09375 
Q 16.0625 -19.390625 12.109375 -17.921875 
L 12.109375 -9.1875 
Q 16.0625 -11.328125 19.921875 -12.34375 
Q 23.78125 -13.375 27.78125 -13.375 
Q 36.625 -13.375 41.015625 -8.765625 
Q 45.40625 -4.15625 45.40625 5.171875 
L 45.40625 9.625 
Q 42.625 4.78125 38.28125 2.390625 
Q 33.9375 0 27.875 0 
Q 17.828125 0 11.671875 7.65625 
Q 5.515625 15.328125 5.515625 27.984375 
Q 5.515625 40.671875 11.671875 48.328125 
Q 17.828125 56 27.875 56 
Q 33.9375 56 38.28125 53.609375 
Q 42.625 51.21875 45.40625 46.390625 
L 45.40625 54.6875 
L 54.390625 54.6875 
z
" id="DejaVuSans-103"/>
     <path id="DejaVuSans-32"/>
     <path d="M 45.40625 46.390625 
L 45.40625 75.984375 
L 54.390625 75.984375 
L 54.390625 0 
L 45.40625 0 
L 45.40625 8.203125 
Q 42.578125 3.328125 38.25 0.953125 
Q 33.9375 -1.421875 27.875 -1.421875 
Q 17.96875 -1.421875 11.734375 6.484375 
Q 5.515625 14.40625 5.515625 27.296875 
Q 5.515625 40.1875 11.734375 48.09375 
Q 17.96875 56 27.875 56 
Q 33.9375 56 38.25 53.625 
Q 42.578125 51.265625 45.40625 46.390625 
z
M 14.796875 27.296875 
Q 14.796875 17.390625 18.875 11.75 
Q 22.953125 6.109375 30.078125 6.109375 
Q 37.203125 6.109375 41.296875 11.75 
Q 45.40625 17.390625 45.40625 27.296875 
Q 45.40625 37.203125 41.296875 42.84375 
Q 37.203125 48.484375 30.078125 48.484375 
Q 22.953125 48.484375 18.875 42.84375 
Q 14.796875 37.203125 14.796875 27.296875 
z
" id="DejaVuSans-100"/>
     <path d="M 56.203125 29.59375 
L 56.203125 25.203125 
L 14.890625 25.203125 
Q 15.484375 15.921875 20.484375 11.0625 
Q 25.484375 6.203125 34.421875 6.203125 
Q 39.59375 6.203125 44.453125 7.46875 
Q 49.3125 8.734375 54.109375 11.28125 
L 54.109375 2.78125 
Q 49.265625 0.734375 44.1875 -0.34375 
Q 39.109375 -1.421875 33.890625 -1.421875 
Q 20.796875 -1.421875 13.15625 6.1875 
Q 5.515625 13.8125 5.515625 26.8125 
Q 5.515625 40.234375 12.765625 48.109375 
Q 20.015625 56 32.328125 56 
Q 43.359375 56 49.78125 48.890625 
Q 56.203125 41.796875 56.203125 29.59375 
z
M 47.21875 32.234375 
Q 47.125 39.59375 43.09375 43.984375 
Q 39.0625 48.390625 32.421875 48.390625 
Q 24.90625 48.390625 20.390625 44.140625 
Q 15.875 39.890625 15.1875 32.171875 
z
" id="DejaVuSans-101"/>
     <path d="M 44.28125 53.078125 
L 44.28125 44.578125 
Q 40.484375 46.53125 36.375 47.5 
Q 32.28125 48.484375 27.875 48.484375 
Q 21.1875 48.484375 17.84375 46.4375 
Q 14.5 44.390625 14.5 40.28125 
Q 14.5 37.15625 16.890625 35.375 
Q 19.28125 33.59375 26.515625 31.984375 
L 29.59375 31.296875 
Q 39.15625 29.25 43.1875 25.515625 
Q 47.21875 21.78125 47.21875 15.09375 
Q 47.21875 7.46875 41.1875 3.015625 
Q 35.15625 -1.421875 24.609375 -1.421875 
Q 20.21875 -1.421875 15.453125 -0.5625 
Q 10.6875 0.296875 5.421875 2 
L 5.421875 11.28125 
Q 10.40625 8.6875 15.234375 7.390625 
Q 20.0625 6.109375 24.8125 6.109375 
Q 31.15625 6.109375 34.5625 8.28125 
Q 37.984375 10.453125 37.984375 14.40625 
Q 37.984375 18.0625 35.515625 20.015625 
Q 33.0625 21.96875 24.703125 23.78125 
L 21.578125 24.515625 
Q 13.234375 26.265625 9.515625 29.90625 
Q 5.8125 33.546875 5.8125 39.890625 
Q 5.8125 47.609375 11.28125 51.796875 
Q 16.75 56 26.8125 56 
Q 31.78125 56 36.171875 55.265625 
Q 40.578125 54.546875 44.28125 53.078125 
z
" id="DejaVuSans-115"/>
     <path d="M 18.3125 70.21875 
L 18.3125 54.6875 
L 36.8125 54.6875 
L 36.8125 47.703125 
L 18.3125 47.703125 
L 18.3125 18.015625 
Q 18.3125 11.328125 20.140625 9.421875 
Q 21.96875 7.515625 27.59375 7.515625 
L 36.8125 7.515625 
L 36.8125 0 
L 27.59375 0 
Q 17.1875 0 13.234375 3.875 
Q 9.28125 7.765625 9.28125 18.015625 
L 9.28125 47.703125 
L 2.6875 47.703125 
L 2.6875 54.6875 
L 9.28125 54.6875 
L 9.28125 70.21875 
z
" id="DejaVuSans-116"/>
     <path d="M 32.171875 -5.078125 
Q 28.375 -14.84375 24.75 -17.8125 
Q 21.140625 -20.796875 15.09375 -20.796875 
L 7.90625 -20.796875 
L 7.90625 -13.28125 
L 13.1875 -13.28125 
Q 16.890625 -13.28125 18.9375 -11.515625 
Q 21 -9.765625 23.484375 -3.21875 
L 25.09375 0.875 
L 2.984375 54.6875 
L 12.5 54.6875 
L 29.59375 11.921875 
L 46.6875 54.6875 
L 56.203125 54.6875 
z
" id="DejaVuSans-121"/>
     <path d="M 10.984375 1.515625 
L 10.984375 10.5 
Q 14.703125 8.734375 18.5 7.8125 
Q 22.3125 6.890625 25.984375 6.890625 
Q 35.75 6.890625 40.890625 13.453125 
Q 46.046875 20.015625 46.78125 33.40625 
Q 43.953125 29.203125 39.59375 26.953125 
Q 35.25 24.703125 29.984375 24.703125 
Q 19.046875 24.703125 12.671875 31.3125 
Q 6.296875 37.9375 6.296875 49.421875 
Q 6.296875 60.640625 12.9375 67.421875 
Q 19.578125 74.21875 30.609375 74.21875 
Q 43.265625 74.21875 49.921875 64.515625 
Q 56.59375 54.828125 56.59375 36.375 
Q 56.59375 19.140625 48.40625 8.859375 
Q 40.234375 -1.421875 26.421875 -1.421875 
Q 22.703125 -1.421875 18.890625 -0.6875 
Q 15.09375 0.046875 10.984375 1.515625 
z
M 30.609375 32.421875 
Q 37.25 32.421875 41.125 36.953125 
Q 45.015625 41.5 45.015625 49.421875 
Q 45.015625 57.28125 41.125 61.84375 
Q 37.25 66.40625 30.609375 66.40625 
Q 23.96875 66.40625 20.09375 61.84375 
Q 16.21875 57.28125 16.21875 49.421875 
Q 16.21875 41.5 20.09375 36.953125 
Q 23.96875 32.421875 30.609375 32.421875 
z
" id="DejaVuSans-57"/>
     <path d="M 10.796875 72.90625 
L 49.515625 72.90625 
L 49.515625 64.59375 
L 19.828125 64.59375 
L 19.828125 46.734375 
Q 21.96875 47.46875 24.109375 47.828125 
Q 26.265625 48.1875 28.421875 48.1875 
Q 40.625 48.1875 47.75 41.5 
Q 54.890625 34.8125 54.890625 23.390625 
Q 54.890625 11.625 47.5625 5.09375 
Q 40.234375 -1.421875 26.90625 -1.421875 
Q 22.3125 -1.421875 17.546875 -0.640625 
Q 12.796875 0.140625 7.71875 1.703125 
L 7.71875 11.625 
Q 12.109375 9.234375 16.796875 8.0625 
Q 21.484375 6.890625 26.703125 6.890625 
Q 35.15625 6.890625 40.078125 11.328125 
Q 45.015625 15.765625 45.015625 23.390625 
Q 45.015625 31 40.078125 35.4375 
Q 35.15625 39.890625 26.703125 39.890625 
Q 22.75 39.890625 18.8125 39.015625 
Q 14.890625 38.140625 10.796875 36.28125 
z
" id="DejaVuSans-53"/>
     <path d="M 10.6875 12.40625 
L 21 12.40625 
L 21 0 
L 10.6875 0 
z
" id="DejaVuSans-46"/>
     <path d="M 31.78125 34.625 
Q 24.75 34.625 20.71875 30.859375 
Q 16.703125 27.09375 16.703125 20.515625 
Q 16.703125 13.921875 20.71875 10.15625 
Q 24.75 6.390625 31.78125 6.390625 
Q 38.8125 6.390625 42.859375 10.171875 
Q 46.921875 13.96875 46.921875 20.515625 
Q 46.921875 27.09375 42.890625 30.859375 
Q 38.875 34.625 31.78125 34.625 
z
M 21.921875 38.8125 
Q 15.578125 40.375 12.03125 44.71875 
Q 8.5 49.078125 8.5 55.328125 
Q 8.5 64.0625 14.71875 69.140625 
Q 20.953125 74.21875 31.78125 74.21875 
Q 42.671875 74.21875 48.875 69.140625 
Q 55.078125 64.0625 55.078125 55.328125 
Q 55.078125 49.078125 51.53125 44.71875 
Q 48 40.375 41.703125 38.8125 
Q 48.828125 37.15625 52.796875 32.3125 
Q 56.78125 27.484375 56.78125 20.515625 
Q 56.78125 9.90625 50.3125 4.234375 
Q 43.84375 -1.421875 31.78125 -1.421875 
Q 19.734375 -1.421875 13.25 4.234375 
Q 6.78125 9.90625 6.78125 20.515625 
Q 6.78125 27.484375 10.78125 32.3125 
Q 14.796875 37.15625 21.921875 38.8125 
z
M 18.3125 54.390625 
Q 18.3125 48.734375 21.84375 45.5625 
Q 25.390625 42.390625 31.78125 42.390625 
Q 38.140625 42.390625 41.71875 45.5625 
Q 45.3125 48.734375 45.3125 54.390625 
Q 45.3125 60.0625 41.71875 63.234375 
Q 38.140625 66.40625 31.78125 66.40625 
Q 25.390625 66.40625 21.84375 63.234375 
Q 18.3125 60.0625 18.3125 54.390625 
z
" id="DejaVuSans-56"/>
     <path d="M 40.578125 39.3125 
Q 47.65625 37.796875 51.625 33 
Q 55.609375 28.21875 55.609375 21.1875 
Q 55.609375 10.40625 48.1875 4.484375 
Q 40.765625 -1.421875 27.09375 -1.421875 
Q 22.515625 -1.421875 17.65625 -0.515625 
Q 12.796875 0.390625 7.625 2.203125 
L 7.625 11.71875 
Q 11.71875 9.328125 16.59375 8.109375 
Q 21.484375 6.890625 26.8125 6.890625 
Q 36.078125 6.890625 40.9375 10.546875 
Q 45.796875 14.203125 45.796875 21.1875 
Q 45.796875 27.640625 41.28125 31.265625 
Q 36.765625 34.90625 28.71875 34.90625 
L 20.21875 34.90625 
L 20.21875 43.015625 
L 29.109375 43.015625 
Q 36.375 43.015625 40.234375 45.921875 
Q 44.09375 48.828125 44.09375 54.296875 
Q 44.09375 59.90625 40.109375 62.90625 
Q 36.140625 65.921875 28.71875 65.921875 
Q 24.65625 65.921875 20.015625 65.03125 
Q 15.375 64.15625 9.8125 62.3125 
L 9.8125 71.09375 
Q 15.4375 72.65625 20.34375 73.4375 
Q 25.25 74.21875 29.59375 74.21875 
Q 40.828125 74.21875 47.359375 69.109375 
Q 53.90625 64.015625 53.90625 55.328125 
Q 53.90625 49.265625 50.4375 45.09375 
Q 46.96875 40.921875 40.578125 39.3125 
z
" id="DejaVuSans-51"/>
     <path d="M 72.703125 32.078125 
Q 68.453125 32.078125 66.03125 28.46875 
Q 63.625 24.859375 63.625 18.40625 
Q 63.625 12.0625 66.03125 8.421875 
Q 68.453125 4.78125 72.703125 4.78125 
Q 76.859375 4.78125 79.265625 8.421875 
Q 81.6875 12.0625 81.6875 18.40625 
Q 81.6875 24.8125 79.265625 28.4375 
Q 76.859375 32.078125 72.703125 32.078125 
z
M 72.703125 38.28125 
Q 80.421875 38.28125 84.953125 32.90625 
Q 89.5 27.546875 89.5 18.40625 
Q 89.5 9.28125 84.9375 3.921875 
Q 80.375 -1.421875 72.703125 -1.421875 
Q 64.890625 -1.421875 60.34375 3.921875 
Q 55.8125 9.28125 55.8125 18.40625 
Q 55.8125 27.59375 60.375 32.9375 
Q 64.9375 38.28125 72.703125 38.28125 
z
M 22.3125 68.015625 
Q 18.109375 68.015625 15.6875 64.375 
Q 13.28125 60.75 13.28125 54.390625 
Q 13.28125 47.953125 15.671875 44.328125 
Q 18.0625 40.71875 22.3125 40.71875 
Q 26.5625 40.71875 28.96875 44.328125 
Q 31.390625 47.953125 31.390625 54.390625 
Q 31.390625 60.6875 28.953125 64.34375 
Q 26.515625 68.015625 22.3125 68.015625 
z
M 66.40625 74.21875 
L 74.21875 74.21875 
L 28.609375 -1.421875 
L 20.796875 -1.421875 
z
M 22.3125 74.21875 
Q 30.03125 74.21875 34.609375 68.875 
Q 39.203125 63.53125 39.203125 54.390625 
Q 39.203125 45.171875 34.640625 39.84375 
Q 30.078125 34.515625 22.3125 34.515625 
Q 14.546875 34.515625 10.03125 39.859375 
Q 5.515625 45.21875 5.515625 54.390625 
Q 5.515625 63.484375 10.046875 68.84375 
Q 14.59375 74.21875 22.3125 74.21875 
z
" id="DejaVuSans-37"/>
     <path d="M 31 75.875 
Q 24.46875 64.65625 21.28125 53.65625 
Q 18.109375 42.671875 18.109375 31.390625 
Q 18.109375 20.125 21.3125 9.0625 
Q 24.515625 -2 31 -13.1875 
L 23.1875 -13.1875 
Q 15.875 -1.703125 12.234375 9.375 
Q 8.59375 20.453125 8.59375 31.390625 
Q 8.59375 42.28125 12.203125 53.3125 
Q 15.828125 64.359375 23.1875 75.875 
z
" id="DejaVuSans-40"/>
     <path d="M 33.015625 40.375 
Q 26.375 40.375 22.484375 35.828125 
Q 18.609375 31.296875 18.609375 23.390625 
Q 18.609375 15.53125 22.484375 10.953125 
Q 26.375 6.390625 33.015625 6.390625 
Q 39.65625 6.390625 43.53125 10.953125 
Q 47.40625 15.53125 47.40625 23.390625 
Q 47.40625 31.296875 43.53125 35.828125 
Q 39.65625 40.375 33.015625 40.375 
z
M 52.59375 71.296875 
L 52.59375 62.3125 
Q 48.875 64.0625 45.09375 64.984375 
Q 41.3125 65.921875 37.59375 65.921875 
Q 27.828125 65.921875 22.671875 59.328125 
Q 17.53125 52.734375 16.796875 39.40625 
Q 19.671875 43.65625 24.015625 45.921875 
Q 28.375 48.1875 33.59375 48.1875 
Q 44.578125 48.1875 50.953125 41.515625 
Q 57.328125 34.859375 57.328125 23.390625 
Q 57.328125 12.15625 50.6875 5.359375 
Q 44.046875 -1.421875 33.015625 -1.421875 
Q 20.359375 -1.421875 13.671875 8.265625 
Q 6.984375 17.96875 6.984375 36.375 
Q 6.984375 53.65625 15.1875 63.9375 
Q 23.390625 74.21875 37.203125 74.21875 
Q 40.921875 74.21875 44.703125 73.484375 
Q 48.484375 72.75 52.59375 71.296875 
z
" id="DejaVuSans-54"/>
     <path d="M 31.78125 66.40625 
Q 24.171875 66.40625 20.328125 58.90625 
Q 16.5 51.421875 16.5 36.375 
Q 16.5 21.390625 20.328125 13.890625 
Q 24.171875 6.390625 31.78125 6.390625 
Q 39.453125 6.390625 43.28125 13.890625 
Q 47.125 21.390625 47.125 36.375 
Q 47.125 51.421875 43.28125 58.90625 
Q 39.453125 66.40625 31.78125 66.40625 
z
M 31.78125 74.21875 
Q 44.046875 74.21875 50.515625 64.515625 
Q 56.984375 54.828125 56.984375 36.375 
Q 56.984375 17.96875 50.515625 8.265625 
Q 44.046875 -1.421875 31.78125 -1.421875 
Q 19.53125 -1.421875 13.0625 8.265625 
Q 6.59375 17.96875 6.59375 36.375 
Q 6.59375 54.828125 13.0625 64.515625 
Q 19.53125 74.21875 31.78125 74.21875 
z
" id="DejaVuSans-48"/>
     <path d="M 8.203125 72.90625 
L 55.078125 72.90625 
L 55.078125 68.703125 
L 28.609375 0 
L 18.3125 0 
L 43.21875 64.59375 
L 8.203125 64.59375 
z
" id="DejaVuSans-55"/>
     <path d="M 54.890625 54.6875 
L 35.109375 28.078125 
L 55.90625 0 
L 45.3125 0 
L 29.390625 21.484375 
L 13.484375 0 
L 2.875 0 
L 24.125 28.609375 
L 4.6875 54.6875 
L 15.28125 54.6875 
L 29.78125 35.203125 
L 44.28125 54.6875 
z
" id="DejaVuSans-120"/>
     <path d="M 8.015625 75.875 
L 15.828125 75.875 
Q 23.140625 64.359375 26.78125 53.3125 
Q 30.421875 42.28125 30.421875 31.390625 
Q 30.421875 20.453125 26.78125 9.375 
Q 23.140625 -1.703125 15.828125 -13.1875 
L 8.015625 -13.1875 
Q 14.5 -2 17.703125 9.0625 
Q 20.90625 20.125 20.90625 31.390625 
Q 20.90625 42.671875 17.703125 53.65625 
Q 14.5 64.65625 8.015625 75.875 
z
" id="DejaVuSans-41"/>
     <path d="M 11.71875 12.40625 
L 22.015625 12.40625 
L 22.015625 4 
L 14.015625 -11.625 
L 7.71875 -11.625 
L 11.71875 4 
z
" id="DejaVuSans-44"/>
     <path d="M 41.109375 46.296875 
Q 39.59375 47.171875 37.8125 47.578125 
Q 36.03125 48 33.890625 48 
Q 26.265625 48 22.1875 43.046875 
Q 18.109375 38.09375 18.109375 28.8125 
L 18.109375 0 
L 9.078125 0 
L 9.078125 54.6875 
L 18.109375 54.6875 
L 18.109375 46.1875 
Q 20.953125 51.171875 25.484375 53.578125 
Q 30.03125 56 36.53125 56 
Q 37.453125 56 38.578125 55.875 
Q 39.703125 55.765625 41.0625 55.515625 
z
" id="DejaVuSans-114"/>
     <path d="M 9.421875 75.984375 
L 18.40625 75.984375 
L 18.40625 0 
L 9.421875 0 
z
" id="DejaVuSans-108"/>
    </defs>
    <g transform="translate(71.064375 16.318125)scale(0.12 -0.12)">
     <use xlink:href="#DejaVuSans-80"/>
     <use x="60.240234" xlink:href="#DejaVuSans-97"/>
     <use x="121.519531" xlink:href="#DejaVuSans-99"/>
     <use x="176.5" xlink:href="#DejaVuSans-107"/>
     <use x="234.410156" xlink:href="#DejaVuSans-105"/>
     <use x="262.193359" xlink:href="#DejaVuSans-110"/>
     <use x="325.572266" xlink:href="#DejaVuSans-103"/>
     <use x="389.048828" xlink:href="#DejaVuSans-32"/>
     <use x="420.835938" xlink:href="#DejaVuSans-100"/>
     <use x="484.3125" xlink:href="#DejaVuSans-101"/>
     <use x="545.835938" xlink:href="#DejaVuSans-110"/>
     <use x="609.214844" xlink:href="#DejaVuSans-115"/>
     <use x="661.314453" xlink:href="#DejaVuSans-105"/>
     <use x="689.097656" xlink:href="#DejaVuSans-116"/>
     <use x="728.306641" xlink:href="#DejaVuSans-121"/>
     <use x="787.486328" xlink:href="#DejaVuSans-32"/>
     <use x="819.273438" xlink:href="#DejaVuSans-57"/>
     <use x="882.896484" xlink:href="#DejaVuSans-53"/>
     <use x="946.519531" xlink:href="#DejaVuSans-46"/>
     <use x="978.306641" xlink:href="#DejaVuSans-56"/>
     <use x="1041.929688" xlink:href="#DejaVuSans-51"/>
     <use x="1105.552734" xlink:href="#DejaVuSans-37"/>
     <use x="1200.572266" xlink:href="#DejaVuSans-32"/>
     <use x="1232.359375" xlink:href="#DejaVuSans-40"/>
     <use x="1271.373047" xlink:href="#DejaVuSans-54"/>
     <use x="1334.996094" xlink:href="#DejaVuSans-48"/>
     <use x="1398.619141" xlink:href="#DejaVuSans-55"/>
     <use x="1462.242188" xlink:href="#DejaVuSans-32"/>
     <use x="1494.029297" xlink:href="#DejaVuSans-120"/>
     <use x="1553.208984" xlink:href="#DejaVuSans-32"/>
     <use x="1584.996094" xlink:href="#DejaVuSans-51"/>
     <use x="1648.619141" xlink:href="#DejaVuSans-55"/>
     <use x="1712.242188" xlink:href="#DejaVuSans-54"/>
     <use x="1775.865234" xlink:href="#DejaVuSans-41"/>
     <use x="1814.878906" xlink:href="#DejaVuSans-44"/>
     <use x="1846.666016" xlink:href="#DejaVuSans-32"/>
     <use x="1878.453125" xlink:href="#DejaVuSans-57"/>
     <use x="1942.076172" xlink:href="#DejaVuSans-48"/>
     <use x="2005.699219" xlink:href="#DejaVuSans-32"/>
     <use x="2037.486328" xlink:href="#DejaVuSans-114"/>
     <use x="2078.568359" xlink:href="#DejaVuSans-101"/>
     <use x="2140.091797" xlink:href="#DejaVuSans-99"/>
     <use x="2195.072266" xlink:href="#DejaVuSans-116"/>
     <use x="2234.28125" xlink:href="#DejaVuSans-97"/>
     <use x="2295.560547" xlink:href="#DejaVuSans-110"/>
     <use x="2358.939453" xlink:href="#DejaVuSans-103"/>
     <use x="2422.416016" xlink:href="#DejaVuSans-108"/>
     <use x="2450.199219" xlink:href="#DejaVuSans-101"/>
     <use x="2511.722656" xlink:href="#DejaVuSans-115"/>
     <use x="2563.822266" xlink:href="#DejaVuSans-46"/>
    </g>
   </g>
  </g>
 </g>
 <defs>
  <clipPath id="p5c326fb7ff">
   <rect height="272.05799" width="439.2" x="7.2" y="22.318125"/>
  </clipPath>
 </defs>
</svg>
